<svg width="13" height="20" viewBox="0 0 13 20" fill="none" xmlns="http://www.w3.org/2000/svg">
<path fill-rule="evenodd" clip-rule="evenodd" d="M5 1.61583L12.1012 5.95542C12.3492 6.10708 12.5 6.37625 12.5 6.66667C12.5 6.95708 12.3492 7.22625 12.1012 7.37792L5 11.7175V16.25C5 16.71 4.62667 17.0833 4.16667 17.0833C3.70667 17.0833 3.33333 16.71 3.33333 16.25V11.25V2.08333V0.833333C3.33333 0.373333 3.70667 0 4.16667 0C4.62667 0 5 0.373333 5 0.833333V1.61583ZM10.0683 6.66667L5 3.56917V9.76417L10.0683 6.66667ZM6.23208 15.3174C6.53125 14.9682 7.0575 14.9278 7.4075 15.2282C8.00458 15.7411 8.33333 16.4003 8.33333 17.084C8.33333 18.7194 6.50292 20.0007 4.16667 20.0007C1.83042 20.0007 0 18.7194 0 17.084C0 16.3811 0.345417 15.7078 0.9725 15.1886C1.32667 14.8949 1.8525 14.944 2.14583 15.299C2.43958 15.6536 2.39 16.1786 2.03542 16.4724C1.86708 16.6115 1.66667 16.8311 1.66667 17.084C1.66667 17.674 2.73583 18.334 4.16667 18.334C5.5975 18.334 6.66667 17.674 6.66667 17.084C6.66667 16.8403 6.47875 16.6278 6.32125 16.4924C5.97208 16.1928 5.93208 15.6665 6.23208 15.3174Z" fill="white"/>
</svg>
