<svg width="17" height="20" viewBox="0 0 17 20" fill="none" xmlns="http://www.w3.org/2000/svg">
<path fill-rule="evenodd" clip-rule="evenodd" d="M0 8.01231C0 3.59434 3.5943 0 8.01231 0C12.4303 0 16.0246 3.59434 16.0246 8.01234V8.23383C16.0246 10.4682 14.7436 13.0719 12.217 15.9726C10.3855 18.0754 8.57953 19.5417 8.50355 19.6031L8.01231 20L7.52105 19.603C7.44512 19.5416 5.63914 18.0754 3.80758 15.9726C1.28102 13.0719 0 10.4682 0 8.23379V8.01231ZM8.01231 17.9683C9.59598 16.5807 14.4612 12.0098 14.4612 8.23383V8.01234C14.4612 4.45641 11.5682 1.5634 8.01231 1.5634C4.45637 1.5634 1.56336 4.45641 1.56336 8.01234V8.23383C1.56336 12.0095 6.4282 16.5803 8.01231 17.9683ZM4.29688 8.32238C4.29688 6.27504 5.96254 4.60938 8.00988 4.60938C10.0573 4.60938 11.7229 6.27504 11.7229 8.32238C11.7229 10.3697 10.0572 12.0354 8.00988 12.0354C5.96254 12.0354 4.29688 10.3697 4.29688 8.32238ZM5.86023 8.32238C5.86023 9.5077 6.82457 10.472 8.00988 10.472C9.1952 10.472 10.1595 9.5077 10.1595 8.32238C10.1595 7.13707 9.1952 6.17273 8.00988 6.17273C6.82457 6.17273 5.86023 7.13707 5.86023 8.32238Z" fill="white"/>
</svg>
