<svg width="20" height="20" viewBox="0 0 20 20" fill="none" xmlns="http://www.w3.org/2000/svg">
<path fill-rule="evenodd" clip-rule="evenodd" d="M2.03125 0H17.9688C19.0888 0 20 0.911211 20 2.03125V14.5312C20 15.6513 19.0888 16.5625 17.9688 16.5625H13.4375V18.125H15C15.5178 18.125 15.9375 18.5447 15.9375 19.0625C15.9375 19.5803 15.5178 20 15 20H5C4.48223 20 4.0625 19.5803 4.0625 19.0625C4.0625 18.5447 4.48223 18.125 5 18.125H6.5625V16.5625H2.03125C0.911211 16.5625 0 15.6513 0 14.5312V2.03125C0 0.911211 0.911211 0 2.03125 0ZM8.4375 18.125H11.5625V16.5625H8.4375V18.125ZM17.9688 14.6875C18.0549 14.6875 18.125 14.6174 18.125 14.5312V2.03125C18.125 1.94508 18.0549 1.875 17.9688 1.875H2.03125C1.94508 1.875 1.875 1.94508 1.875 2.03125V14.5312C1.875 14.6174 1.94508 14.6875 2.03125 14.6875H17.9688ZM9.375 11.875H10.625C11.1428 11.875 11.5625 12.2947 11.5625 12.8125C11.5625 13.3303 11.1428 13.75 10.625 13.75H9.375C8.85723 13.75 8.4375 13.3303 8.4375 12.8125C8.4375 12.2947 8.85723 11.875 9.375 11.875Z" fill="white"/>
</svg>
