<svg width="34" height="40" viewBox="0 0 34 40" fill="none" xmlns="http://www.w3.org/2000/svg">
<path fill-rule="evenodd" clip-rule="evenodd" d="M17 4C13.6863 4 11 6.68629 11 10C11 13.3137 13.6863 16 17 16C20.3137 16 23 13.3137 23 10C23 6.68629 20.3137 4 17 4ZM7 10C7 4.47715 11.4772 0 17 0C22.5228 0 27 4.47715 27 10C27 15.5228 22.5228 20 17 20C11.4772 20 7 15.5228 7 10ZM2.92893 26.9289C4.8043 25.0536 7.34783 24 10 24H24C26.6522 24 29.1957 25.0536 31.0711 26.9289C32.9464 28.8043 34 31.3478 34 34V38C34 39.1046 33.1046 40 32 40C30.8954 40 30 39.1046 30 38V34C30 32.4087 29.3679 30.8826 28.2426 29.7574C27.1174 28.6321 25.5913 28 24 28H10C8.4087 28 6.88258 28.6321 5.75736 29.7574C4.63214 30.8826 4 32.4087 4 34V38C4 39.1046 3.10457 40 2 40C0.89543 40 0 39.1046 0 38V34C0 31.3478 1.05357 28.8043 2.92893 26.9289Z" fill="white"/>
</svg>
