<svg width="40" height="40" viewBox="0 0 40 40" fill="none" xmlns="http://www.w3.org/2000/svg">
<path fill-rule="evenodd" clip-rule="evenodd" d="M35.345 14.6549L39.5117 18.8216C40.1625 19.4724 40.1625 20.5274 39.5117 21.1782C39.1858 21.5041 38.76 21.6666 38.3333 21.6666C37.9067 21.6666 37.4808 21.5041 37.155 21.1782L35.8333 19.8566V38.3333C35.8333 39.2533 35.0866 40 34.1666 40H21.6666C20.7466 40 19.9999 39.2533 19.9999 38.3333C19.9999 37.4133 20.7466 36.6666 21.6666 36.6666H23.3332V24.9999H16.6665V38.3333C16.6665 39.2533 15.9199 40 14.9999 40H5.83316C4.91315 40 4.16648 39.2533 4.16648 38.3333V19.8566L2.84481 21.1782C2.51897 21.5041 2.09314 21.6666 1.66647 21.6666C1.2398 21.6666 0.813963 21.5041 0.488128 21.1782C-0.162709 20.5274 -0.162709 19.4724 0.488128 18.8216L4.65482 14.6549L18.8216 0.488128C19.4724 -0.162709 20.5274 -0.162709 21.1782 0.488128L35.345 14.6549ZM26.6666 36.6666H32.5V16.524L19.9999 4.02398L7.49983 16.524V36.6666H13.3332V23.3332C13.3332 22.4132 14.0799 21.6666 14.9999 21.6666H24.9999C25.9199 21.6666 26.6666 22.4132 26.6666 23.3332V36.6666ZM17.4997 14.1665C17.4997 12.7882 18.6214 11.6665 19.9997 11.6665C21.378 11.6665 22.4997 12.7882 22.4997 14.1665C22.4997 15.5449 21.378 16.6666 19.9997 16.6666C18.6214 16.6666 17.4997 15.5449 17.4997 14.1665Z" fill="white"/>
</svg>
