<svg width="40" height="40" viewBox="0 0 40 40" fill="none" xmlns="http://www.w3.org/2000/svg">
<path fill-rule="evenodd" clip-rule="evenodd" d="M5.86103 5.86099C13.6762 -1.95422 26.3248 -1.95312 34.1389 5.86099C41.9543 13.6763 41.9531 26.3249 34.1389 34.1389C26.3236 41.9541 13.6751 41.953 5.86103 34.1389C-1.95426 26.3236 -1.95309 13.6751 5.86103 5.86099ZM3.28927 20C3.28927 29.2143 10.7857 36.7107 20 36.7107C29.2143 36.7107 36.7107 29.2143 36.7107 20C36.7107 10.7857 29.2143 3.28932 20 3.28932C10.7857 3.28932 3.28927 10.7858 3.28927 20ZM22.5289 15.8292C22.5289 13.5915 19.8013 12.452 18.2121 14.0411C17.0408 15.2145 17.4956 17.1853 19.0098 17.8125L22.2474 19.1535C25.9223 20.6757 26.9444 25.4797 24.0895 28.3037C23.3984 28.9878 22.5588 29.4767 21.6425 29.7438V30.8454C21.6425 31.7525 20.9072 32.4878 20.0001 32.4878C19.093 32.4878 18.3577 31.7525 18.3577 30.8454V29.7461C15.8826 29.0251 14.1866 26.7376 14.1866 24.1715C14.1866 23.2644 14.9219 22.5291 15.829 22.5291C16.7361 22.5291 17.4714 23.2644 17.4714 24.1715C17.4714 26.4676 20.2984 27.5586 21.8527 25.8929C22.936 24.7304 22.4878 22.8085 20.9905 22.1883L17.7529 20.8473C16.0421 20.1386 14.7862 18.6328 14.3935 16.8191C13.7555 13.8727 15.5606 11.0701 18.3578 10.2508V9.1554C18.3578 8.24833 19.0931 7.51301 20.0002 7.51301C20.9073 7.51301 21.6426 8.24833 21.6426 9.1554V10.2535C24.0507 10.9641 25.8137 13.194 25.8137 15.8292C25.8137 16.7363 25.0784 17.4716 24.1713 17.4716C23.2643 17.4716 22.5289 16.7363 22.5289 15.8292Z" fill="white"/>
</svg>
