<svg width="16" height="10" viewBox="0 0 16 10" fill="none" xmlns="http://www.w3.org/2000/svg">
<path d="M1.33333 8.3343H1.36328C1.52262 9.27864 2.34408 10.001 3.33333 10.001C4.32259 10.001 5.14372 9.27864 5.30339 8.3343H10.3633C10.5226 9.27864 11.3441 10.001 12.3333 10.001C13.3226 10.001 14.1437 9.27864 14.3034 8.3343H14.6667C15.402 8.3343 16 7.73632 16 7.00097C16 6.96662 15.9974 6.93228 15.992 6.89827L15.7837 5.56135C15.674 4.68489 15.0163 3.99299 14.1514 3.84065L11.6644 3.38362L8.98405 0.610667C8.60938 0.222972 8.08496 0.000641443 7.54606 0.000641443L4.66895 0.000966964C4.66829 0.000966964 4.66764 0.000641443 4.66699 0.000641443C4.66634 0.000641443 4.66569 0.000966964 4.66504 0.000966964H2.81901C1.83936 -0.0297948 0.985677 0.676911 0.829264 1.61962L0.348307 3.86099C0.347982 3.86262 0.347982 3.86425 0.347656 3.86555C0.347331 3.86702 0.34668 3.86832 0.346354 3.86995L0.0130208 5.53661C0.00439454 5.57991 0 5.62401 0 5.66763V7.00097C0 7.73632 0.597982 8.3343 1.33333 8.3343ZM3.33333 8.66763C2.96566 8.66763 2.66667 8.36864 2.66667 8.00097C2.66667 7.63329 2.96566 7.3343 3.33333 7.3343C3.70101 7.3343 4 7.63329 4 8.00097C4 8.36864 3.70101 8.66763 3.33333 8.66763ZM12.3333 8.66763C11.9657 8.66763 11.6667 8.36864 11.6667 8.00097C11.6667 7.63329 11.9657 7.3343 12.3333 7.3343C12.701 7.3343 13 7.63329 13 8.00097C13 8.36864 12.701 8.66763 12.3333 8.66763ZM14.4634 5.7469L14.6587 7.00129H14.0627C13.7163 6.40461 13.0716 6.00129 12.3333 6.00129C11.5951 6.00129 10.9504 6.40461 10.604 7.00129H5.06266C4.71631 6.40461 4.07161 6.00129 3.33333 6.00129C2.59505 6.00129 1.95036 6.40461 1.604 7.00129H1.33333V5.73388L1.54671 4.66796H11.2726L13.915 5.15364C14.2046 5.20426 14.424 5.43489 14.4634 5.7469ZM8.02507 1.53759L9.76172 3.3343H5.33333V1.3343H7.54574C7.72526 1.3343 7.90007 1.40868 8.02507 1.53759ZM2.79639 1.3343H4V3.3343H1.82471L2.13867 1.86929C2.19206 1.54866 2.45703 1.3203 2.79639 1.3343Z" fill="white"/>
</svg>
