<svg width="41" height="33" viewBox="0 0 41 33" fill="none" xmlns="http://www.w3.org/2000/svg">
<path d="M9.43396 14.5449H1.88679C0.844717 14.5449 0 15.3588 0 16.3629V30.5427C0 31.5467 0.844717 32.3606 1.88679 32.3606H9.43396C10.476 32.3606 11.3208 31.5467 11.3208 30.5427V16.3629C11.3208 15.3588 10.476 14.5449 9.43396 14.5449ZM7.54717 28.7248H3.77358V18.1808H7.54717V28.7248Z" fill="white"/>
<path d="M38.1156 0H30.5684C29.5264 0 28.6816 0.813888 28.6816 1.81793V30.5412C28.6816 31.5453 29.5264 32.3592 30.5684 32.3592H38.1156C39.1577 32.3592 40.0024 31.5453 40.0024 30.5412V1.81793C40.0024 0.813888 39.1577 0 38.1156 0ZM36.2288 28.7233H32.4552V3.63586H36.2288V28.7233Z" fill="white"/>
<path d="M23.7758 7.27148H16.2286C15.1865 7.27148 14.3418 8.08537 14.3418 9.08942V30.541C14.3418 31.545 15.1865 32.3589 16.2286 32.3589H23.7758C24.8178 32.3589 25.6625 31.545 25.6625 30.541V9.08942C25.6625 8.08537 24.8178 7.27148 23.7758 7.27148ZM21.889 28.7231H18.1154V10.9073H21.889V28.7231Z" fill="white"/>
</svg>
