<svg width="40" height="35" viewBox="0 0 40 35" fill="none" xmlns="http://www.w3.org/2000/svg">
<path fill-rule="evenodd" clip-rule="evenodd" d="M11.2527 5.9073C14.498 5.85763 25.7392 5.34568 34.9456 0.858307C37.2739 -0.276599 40 1.4215 40 4.02586V27.3223C40 28.6175 39.2896 29.8059 38.1461 30.4235C32.949 33.2306 26.5074 34.2357 20.531 34.2357C8.13753 34.2357 1.08811 29.9944 0.78524 29.8084C0.412205 29.5792 0.141482 29.2045 0.0435498 28.7694C0.0404815 28.7558 0.0376216 28.746 0.0349568 28.7368L0.0349557 28.7368L0.0331976 28.7308C-0.00144822 28.61 -0.00141182 28.4793 0.0008121 20.4948C0.00156256 17.8004 0.00256213 14.2117 0.00256213 9.42724C0.00256213 7.48635 1.58161 5.9073 3.5225 5.9073H11.2527ZM3.5225 9.19258C3.39312 9.19258 3.28784 9.29786 3.28784 9.42724V26.7681C4.13998 26.77 4.93827 26.7734 5.69306 26.7767L5.6939 26.7767C11.3789 26.8013 14.596 26.8152 19.7697 26.0786C26.3937 25.1352 32.2274 23.3121 36.7147 20.7899V4.02594C36.7147 3.85205 36.5372 3.73769 36.385 3.81146C28.9181 7.45099 18.4419 9.32712 10.0762 9.19461C9.11724 9.19375 7.24777 9.19258 3.5225 9.19258ZM11.3232 30.0491C19.1589 31.6377 29.5624 31.326 36.5848 27.5329C36.6649 27.4897 36.7147 27.409 36.7146 27.3222V24.5092C32.1254 26.8057 26.5964 28.4246 20.2329 29.331C16.4031 29.8763 14.4437 29.9429 11.8261 30.0319L11.3232 30.0491ZM25.8178 17.564C25.8178 20.7701 23.2096 23.3784 20.0035 23.3784C16.7973 23.3784 14.189 20.7701 14.1891 17.564C14.1891 14.358 16.7974 11.7496 20.0035 11.7496C23.2095 11.7496 25.8178 14.358 25.8178 17.564ZM22.5326 17.564C22.5326 16.1694 21.3981 15.0349 20.0035 15.0349C18.6089 15.0349 17.4743 16.1695 17.4743 17.564C17.4743 18.9585 18.6089 20.0931 20.0035 20.0931C21.398 20.0931 22.5326 18.9586 22.5326 17.564ZM30.8462 11.6994C31.1309 11.6994 31.1381 11.697 32.5044 11.2376C32.8585 11.1185 33.3038 10.9687 33.869 10.7804C34.7296 10.4935 35.1947 9.56324 34.9079 8.70257C34.6211 7.84191 33.6908 7.37681 32.8301 7.66365L30.3271 8.49803C29.4664 8.78486 29.0013 9.71514 29.2881 10.5758C29.5176 11.2641 30.1584 11.6994 30.8462 11.6994ZM9.15109 25.0494H6.64804C5.74083 25.0494 5.0054 24.314 5.0054 23.4068C5.0054 22.4996 5.74083 21.7641 6.64804 21.7641H9.15109C10.0583 21.7641 10.7937 22.4996 10.7937 23.4068C10.7937 24.314 10.0583 25.0494 9.15109 25.0494Z" fill="white"/>
</svg>
