<svg width="40" height="40" viewBox="0 0 40 40" fill="none" xmlns="http://www.w3.org/2000/svg">
<path fill-rule="evenodd" clip-rule="evenodd" d="M34.3513 11.3087C37.1094 11.6678 39.2233 14.0601 39.2233 16.8932C39.2233 18.7588 38.3067 20.4332 36.8932 21.4618V29.5146C36.8932 31.763 35.6361 33.7178 33.7864 34.7145V36.3107C33.7864 38.3482 32.1346 40 30.0971 40C28.0595 40 26.4078 38.3482 26.4078 36.3107V35.4175H12.8155V36.3107C12.8155 38.3482 11.1638 40 9.12621 40C7.08866 40 5.43689 38.3482 5.43689 36.3107V34.7145C3.5872 33.7178 2.3301 31.763 2.3301 29.5146V21.4618C0.916559 20.4332 0 18.7588 0 16.8932C0 14.0601 2.11386 11.6678 4.87201 11.3087C5.47417 4.96355 10.8176 0 17.3204 0H21.9029C28.4057 -2.23302e-06 33.7491 4.96355 34.3513 11.3087ZM32.0285 11.4981C29.7144 12.1978 28.0388 14.3708 28.0388 16.8932C28.0388 17.3607 28.0964 17.8161 28.2049 18.2524H28.1942V23.301H11.0291V18.2524H11.0184C11.1269 17.8161 11.1845 17.3607 11.1845 16.8932C11.1845 14.3708 9.50888 12.1978 7.19481 11.4981C7.70034 6.35132 12.0408 2.3301 17.3204 2.3301L21.9029 2.3301C27.1825 2.3301 31.523 6.35132 32.0285 11.4981ZM30.5243 23.5594C31.8892 24.1006 32.8544 25.4327 32.8544 26.9903C32.8544 29.0278 31.2026 30.6796 29.165 30.6796H10.1359C8.09837 30.6796 6.4466 29.0278 6.4466 26.9903C6.4466 25.4624 7.37533 24.1515 8.69903 23.5913V21.5709C7.81193 22.1717 6.74423 22.5243 5.59223 22.5243C5.27447 22.5243 4.96311 22.4974 4.66019 22.446V29.5146C4.66019 31.4878 6.2598 33.0874 8.23301 33.0874H30.9903C32.9635 33.0874 34.5631 31.4878 34.5631 29.5146V22.446C34.2602 22.4974 33.9488 22.5243 33.6311 22.5243C32.4791 22.5243 31.4114 22.1717 30.5243 21.5709V23.5594ZM8.23301 35.4175H10.4854V36.3107C10.4854 37.0614 9.87689 37.6699 9.12621 37.6699C8.37554 37.6699 7.76699 37.0614 7.76699 36.3107V35.3993C7.92075 35.4114 8.07617 35.4175 8.23301 35.4175ZM28.7379 35.4175V36.3107C28.7379 37.0614 29.3464 37.6699 30.0971 37.6699C30.8478 37.6699 31.4563 37.0614 31.4563 36.3107V35.3993C31.3025 35.4114 31.1471 35.4175 30.9903 35.4175H28.7379ZM5.59223 13.5922C3.8038 13.5922 2.3301 15.0783 2.3301 16.8932C2.3301 18.7081 3.8038 20.1942 5.59223 20.1942C7.38067 20.1942 8.85437 18.7081 8.85437 16.8932C8.85437 15.0783 7.38067 13.5922 5.59223 13.5922ZM10.1359 25.6311C9.38524 25.6311 8.7767 26.2396 8.7767 26.9903C8.7767 27.741 9.38524 28.3495 10.1359 28.3495H29.165C29.9157 28.3495 30.5243 27.741 30.5243 26.9903C30.5243 26.2396 29.9157 25.6311 29.165 25.6311H10.1359ZM30.3689 16.8932C30.3689 15.0783 31.8426 13.5922 33.6311 13.5922C35.4195 13.5922 36.8932 15.0783 36.8932 16.8932C36.8932 18.7081 35.4195 20.1942 33.6311 20.1942C31.8426 20.1942 30.3689 18.7081 30.3689 16.8932Z" fill="white"/>
</svg>
