<svg width="40" height="40" viewBox="0 0 40 40" fill="none" xmlns="http://www.w3.org/2000/svg">
<path d="M34.1422 5.85781C30.3646 2.08031 25.3422 0 20 0C14.6578 0 9.63539 2.08031 5.85781 5.85781C2.08023 9.63531 0 14.6578 0 20C0 25.3422 2.08031 30.3646 5.85781 34.1422C9.63531 37.9198 14.6578 40 20 40C25.3422 40 30.3646 37.9197 34.1422 34.1422C37.9198 30.3647 40 25.3422 40 20C40 14.6578 37.9197 9.63539 34.1422 5.85781ZM33.9756 30.5202C32.7795 29.7108 31.5275 29.0113 30.2294 28.4273C30.8027 26.1916 31.1432 23.7642 31.2281 21.25H37.4548C37.2092 24.7137 35.9514 27.9021 33.9756 30.5202ZM2.54516 21.25H8.77188C8.85687 23.7643 9.19734 26.1917 9.77063 28.4273C8.4725 29.0113 7.22047 29.7107 6.02437 30.5202C4.04859 27.9021 2.79078 24.7137 2.54516 21.25ZM6.02406 9.48016C7.22016 10.2897 8.47219 10.9891 9.77047 11.5731C9.19719 13.8087 8.8568 16.2359 8.7718 18.75H2.54516C2.79078 15.2864 4.04852 12.0983 6.02406 9.48016ZM28.174 6.15352C27.7159 5.29477 27.221 4.51984 26.6947 3.83219C28.8095 4.71109 30.716 5.99297 32.3179 7.58195C31.4097 8.17867 30.4662 8.70453 29.4933 9.15891C29.1116 8.09141 28.6708 7.08492 28.174 6.15352ZM27.1611 10.0913C24.879 10.8563 22.4705 11.25 20 11.25C17.5295 11.25 15.121 10.8563 12.8389 10.0913C14.4376 5.54031 17.079 2.5 20 2.5C22.921 2.5 25.5624 5.54031 27.1611 10.0913ZM11.2737 18.75C11.3562 16.5358 11.6553 14.4202 12.1281 12.4909C14.6388 13.3225 17.2858 13.75 20 13.75C22.7142 13.75 25.3612 13.3225 27.8719 12.4909C28.3448 14.4202 28.6438 16.5357 28.7263 18.75H11.2737ZM28.7263 21.25C28.6437 23.4644 28.3447 25.58 27.8718 27.5094C25.3609 26.6777 22.714 26.25 20 26.25C17.286 26.25 14.6391 26.6777 12.1282 27.5094C11.6553 25.58 11.3562 23.4644 11.2737 21.25H28.7263ZM11.826 6.15352C11.3293 7.08492 10.8885 8.09141 10.5067 9.15883C9.53391 8.70453 8.59031 8.17859 7.68211 7.58187C9.28391 5.99281 11.1905 4.71102 13.3053 3.83211C12.779 4.51984 12.284 5.29477 11.826 6.15352ZM10.5068 30.8416C10.8885 31.9089 11.3293 32.9152 11.8259 33.8465C12.284 34.7052 12.7789 35.4802 13.3052 36.1678C11.1906 35.2889 9.28422 34.0073 7.6825 32.4184C8.5907 31.8218 9.53414 31.2959 10.5068 30.8416ZM12.8391 29.909C15.1213 29.1438 17.5297 28.75 20 28.75C22.4703 28.75 24.8787 29.1438 27.1609 29.909C25.5623 34.4598 22.9209 37.5 20 37.5C17.0791 37.5 14.4377 34.4598 12.8391 29.909ZM28.174 33.8465C28.6706 32.9152 29.1114 31.9089 29.4931 30.8416C30.4659 31.2959 31.4093 31.8219 32.3174 32.4184C30.7157 34.0073 28.8093 35.289 26.6947 36.1678C27.221 35.4802 27.716 34.7052 28.174 33.8465ZM31.2281 18.75C31.1431 16.2359 30.8027 13.8087 30.2295 11.5731C31.5277 10.9891 32.7798 10.2897 33.9759 9.48016C35.9514 12.0982 37.2091 15.2863 37.4548 18.75H31.2281Z" fill="white"/>
</svg>
