<svg width="40" height="40" viewBox="0 0 40 40" fill="none" xmlns="http://www.w3.org/2000/svg">
<path fill-rule="evenodd" clip-rule="evenodd" d="M37.8453 18.8217L39.512 20.4884C40.1628 21.1392 40.1628 22.1942 39.512 22.8451C39.187 23.1709 38.7603 23.3334 38.3336 23.3334C37.9069 23.3334 37.4803 23.1709 37.1553 22.8451L36.4261 22.1159L24.4659 29.591C25.3268 30.616 25.8335 31.9219 25.8335 33.3335C25.8335 36.5503 23.2168 39.167 20 39.167C17.63 39.167 15.5892 37.7436 14.6775 35.7094L12.66 36.9703L12.845 37.1553C13.4958 37.8061 13.4958 38.8611 12.845 39.512C12.52 39.8378 12.0933 40.0003 11.6666 40.0003C11.2399 40.0003 10.8133 39.8378 10.4883 39.512L8.82157 37.8453L2.15482 31.1785L0.488131 29.5118C-0.16271 28.861 -0.16271 27.806 0.488131 27.1551C1.13814 26.5043 2.19482 26.5043 2.84483 27.1551L3.02983 27.3401L17.8842 3.574L17.155 2.84483C16.5042 2.19399 16.5042 1.13897 17.155 0.488131C17.805 -0.16271 18.8617 -0.16271 19.5117 0.488131L21.1784 2.15482L25.3484 6.32487L25.3543 6.33071L37.8453 18.8217ZM17.5658 33.9036C17.825 35.0086 18.8175 35.8336 20 35.8336C21.3784 35.8336 22.5001 34.7119 22.5001 33.3335C22.5001 32.5752 22.1484 31.8635 21.5784 31.396L17.5658 33.9036ZM14.9666 31.5952L20.02 28.4385L34.0069 19.6967L24.4259 10.1158L17.22 20.9242C16.8992 21.4059 16.37 21.6667 15.8317 21.6667C15.5142 21.6667 15.1925 21.5767 14.9091 21.3859C14.1433 20.8759 13.9358 19.8409 14.4466 19.075L22.0226 7.71156L20.3034 5.99237L5.44903 29.7585L10.2408 34.5502L14.9558 31.6035L14.9582 31.6019C14.9596 31.6008 14.9609 31.5996 14.9622 31.5985C14.9636 31.5974 14.965 31.5962 14.9666 31.5952ZM28.6142 0.74305C29.1251 -0.0227935 30.1601 -0.230296 30.9251 0.280544C31.6909 0.79055 31.8984 1.82556 31.3876 2.59141L29.7209 5.09144C29.4001 5.57311 28.8709 5.83395 28.3326 5.83395C28.0151 5.83395 27.6934 5.74395 27.4101 5.55394C26.6442 5.0431 26.4367 4.00892 26.9476 3.24308L28.6142 0.74305ZM39.7207 9.07672C39.2099 8.31005 38.1748 8.10255 37.4098 8.61422L34.9098 10.2809C34.144 10.7917 33.9373 11.8259 34.4473 12.5918C34.7681 13.0743 35.2965 13.3343 35.8357 13.3343C36.1532 13.3343 36.4748 13.2443 36.7582 13.0543L39.2582 11.3876C40.024 10.8767 40.2307 9.84256 39.7207 9.07672ZM36.3219 1.32148C36.9719 0.670634 38.0286 0.670634 38.6786 1.32148C39.3294 1.97232 39.3294 3.02733 38.6786 3.67817L34.5119 7.84489C34.1869 8.17073 33.7602 8.33323 33.3335 8.33323C32.9069 8.33323 32.4802 8.17073 32.1552 7.84489C31.5043 7.19405 31.5043 6.13904 32.1552 5.4882L36.3219 1.32148Z" fill="white"/>
</svg>
