<svg width="40" height="40" viewBox="0 0 40 40" fill="none" xmlns="http://www.w3.org/2000/svg">
<path fill-rule="evenodd" clip-rule="evenodd" d="M1.66723 10C2.58723 10 3.3339 9.25334 3.3339 8.33333V3.33333H8.3339C9.2539 3.33333 10.0006 2.58667 10.0006 1.66667C10.0006 0.746663 9.2539 0 8.3339 0H3.3339C1.49552 0 0.000564575 1.49495 0.000564575 3.33333V8.33333C0.000564575 9.25334 0.747228 10 1.66723 10ZM0.378108 18.9425C0.733739 18.5091 9.21071 8.33333 19.9997 8.33333C30.7887 8.33333 39.2656 18.5091 39.6213 18.9425C40.1254 19.5577 40.1254 20.4435 39.6213 21.0575C39.2656 21.4909 30.7887 31.6667 19.9997 31.6667C9.21071 31.6667 0.733739 21.4909 0.378108 21.0575C-0.126042 20.4423 -0.126042 19.5577 0.378108 18.9425ZM3.91733 20C6.27655 22.4569 12.6865 28.3333 19.9997 28.3333C27.3129 28.3333 33.7228 22.4556 36.082 20C33.7241 17.5444 27.3129 11.6667 19.9997 11.6667C12.6865 11.6667 6.27655 17.5431 3.91733 20ZM14.1672 20C14.1672 16.7834 16.784 14.1667 20.0006 14.1667C23.2171 14.1667 25.8339 16.7834 25.8339 20C25.8339 23.2157 23.2171 25.8333 20.0006 25.8333C16.784 25.8333 14.1672 23.2157 14.1672 20ZM17.5006 20C17.5006 21.3782 18.6224 22.5 20.0006 22.5C21.3787 22.5 22.5006 21.3782 22.5006 20C22.5006 18.6218 21.3787 17.5 20.0006 17.5C18.6224 17.5 17.5006 18.6218 17.5006 20ZM8.3339 40H3.3339C1.49552 40 0.000564575 38.505 0.000564575 36.6667V31.6667C0.000564575 30.7467 0.747228 30 1.66723 30C2.58723 30 3.3339 30.7467 3.3339 31.6667V36.6667H8.3339C9.2539 36.6667 10.0006 37.4133 10.0006 38.3333C10.0006 39.2533 9.2539 40 8.3339 40ZM38.3339 30C37.4139 30 36.6672 30.7467 36.6672 31.6667V36.6667H31.6672C30.7472 36.6667 30.0006 37.4133 30.0006 38.3333C30.0006 39.2533 30.7472 40 31.6672 40H36.6672C38.5056 40 40.0006 38.505 40.0006 36.6667V31.6667C40.0006 30.7467 39.2539 30 38.3339 30ZM31.6672 0H36.6672C38.5056 0 40.0006 1.49495 40.0006 3.33333V8.33333C40.0006 9.25334 39.2539 10 38.3339 10C37.4139 10 36.6672 9.25334 36.6672 8.33333V3.33333H31.6672C30.7472 3.33333 30.0006 2.58667 30.0006 1.66667C30.0006 0.746663 30.7472 0 31.6672 0Z" fill="white"/>
</svg>
