<svg width="165" height="43" viewBox="0 0 165 43" fill="none" xmlns="http://www.w3.org/2000/svg">
<path d="M1.97461 16.5C1.97461 7.3873 9.36191 0 18.4746 0H113.24C116.662 0 119.999 1.06386 122.79 3.04427V3.04427C135.901 12.3493 129.318 33 113.24 33H18.4746C9.36192 33 1.97461 25.6127 1.97461 16.5V16.5Z" fill="#D17521"/>
<path d="M1.97461 16.5C1.97461 7.3873 9.36191 0 18.4746 0H113.24C116.662 0 119.999 1.06386 122.79 3.04427V3.04427C135.901 12.3493 129.318 33 113.24 33H18.4746C9.36192 33 1.97461 25.6127 1.97461 16.5V16.5Z" fill="black" fill-opacity="0.2"/>
<path d="M45.196 22L44.412 19.508H40.94L40.17 22H38.294L41.57 12.228H43.866L47.114 22H45.196ZM42.704 13.908H42.634L41.388 17.926H43.964L42.704 13.908ZM49.6274 22L47.1914 14.692H48.9554L49.9774 17.842L50.6914 20.446H50.7894L51.5034 17.842L52.4974 14.692H54.2054L51.7554 22H49.6274ZM60.6542 22C60.2622 22 59.9495 21.888 59.7162 21.664C59.4922 21.4307 59.3522 21.1227 59.2962 20.74H59.2122C59.0909 21.216 58.8435 21.5753 58.4702 21.818C58.0969 22.0513 57.6349 22.168 57.0842 22.168C56.3375 22.168 55.7635 21.972 55.3622 21.58C54.9609 21.188 54.7602 20.6653 54.7602 20.012C54.7602 19.256 55.0309 18.696 55.5722 18.332C56.1135 17.9587 56.8835 17.772 57.8822 17.772H59.1282V17.24C59.1282 16.8293 59.0209 16.512 58.8062 16.288C58.5915 16.064 58.2462 15.952 57.7702 15.952C57.3502 15.952 57.0095 16.0453 56.7482 16.232C56.4962 16.4093 56.2815 16.624 56.1042 16.876L55.0402 15.924C55.3109 15.504 55.6702 15.168 56.1182 14.916C56.5662 14.6547 57.1589 14.524 57.8962 14.524C58.8855 14.524 59.6369 14.748 60.1502 15.196C60.6635 15.644 60.9202 16.288 60.9202 17.128V20.572H61.6482V22H60.6542ZM57.6862 20.866C58.0875 20.866 58.4282 20.7773 58.7082 20.6C58.9882 20.4227 59.1282 20.1613 59.1282 19.816V18.85H57.9802C57.0469 18.85 56.5802 19.1487 56.5802 19.746V19.984C56.5802 20.2827 56.6735 20.5067 56.8602 20.656C57.0562 20.796 57.3315 20.866 57.6862 20.866ZM65.3258 22C64.7098 22 64.2385 21.8413 63.9118 21.524C63.5945 21.1973 63.4358 20.7353 63.4358 20.138V16.12H62.3578V14.692H62.9178C63.1885 14.692 63.3705 14.6313 63.4638 14.51C63.5665 14.3793 63.6178 14.188 63.6178 13.936V12.69H65.2278V14.692H66.7258V16.12H65.2278V20.572H66.6138V22H65.3258ZM73.6561 22C73.2641 22 72.9515 21.888 72.7181 21.664C72.4941 21.4307 72.3541 21.1227 72.2981 20.74H72.2141C72.0928 21.216 71.8455 21.5753 71.4721 21.818C71.0988 22.0513 70.6368 22.168 70.0861 22.168C69.3395 22.168 68.7655 21.972 68.3641 21.58C67.9628 21.188 67.7621 20.6653 67.7621 20.012C67.7621 19.256 68.0328 18.696 68.5741 18.332C69.1155 17.9587 69.8855 17.772 70.8841 17.772H72.1301V17.24C72.1301 16.8293 72.0228 16.512 71.8081 16.288C71.5935 16.064 71.2481 15.952 70.7721 15.952C70.3521 15.952 70.0115 16.0453 69.7501 16.232C69.4981 16.4093 69.2835 16.624 69.1061 16.876L68.0421 15.924C68.3128 15.504 68.6721 15.168 69.1201 14.916C69.5681 14.6547 70.1608 14.524 70.8981 14.524C71.8875 14.524 72.6388 14.748 73.1521 15.196C73.6655 15.644 73.9221 16.288 73.9221 17.128V20.572H74.6501V22H73.6561ZM70.6881 20.866C71.0895 20.866 71.4301 20.7773 71.7101 20.6C71.9901 20.4227 72.1301 20.1613 72.1301 19.816V18.85H70.9821C70.0488 18.85 69.5821 19.1487 69.5821 19.746V19.984C69.5821 20.2827 69.6755 20.5067 69.8621 20.656C70.0581 20.796 70.3335 20.866 70.6881 20.866ZM76.1005 22V14.692H77.8925V16.204H77.9625C78.0091 16.008 78.0791 15.8213 78.1725 15.644C78.2751 15.4573 78.4058 15.294 78.5645 15.154C78.7231 15.014 78.9098 14.902 79.1245 14.818C79.3485 14.734 79.6051 14.692 79.8945 14.692H80.2865V16.386H79.7265C79.1198 16.386 78.6625 16.4747 78.3545 16.652C78.0465 16.8293 77.8925 17.1187 77.8925 17.52V22H76.1005ZM91.0651 22L90.2811 19.508H86.8091L86.0391 22H84.1631L87.4391 12.228H89.7351L92.9831 22H91.0651ZM88.5731 13.908H88.5031L87.2571 17.926H89.8331L88.5731 13.908ZM100.905 22.616C100.905 22.9987 100.835 23.3347 100.695 23.624C100.565 23.9227 100.345 24.17 100.037 24.366C99.7294 24.562 99.3327 24.7113 98.8474 24.814C98.3621 24.9167 97.7694 24.968 97.0694 24.968C96.4534 24.968 95.9307 24.926 95.5014 24.842C95.0721 24.7673 94.7174 24.6553 94.4374 24.506C94.1667 24.366 93.9707 24.1887 93.8494 23.974C93.7281 23.7593 93.6674 23.5167 93.6674 23.246C93.6674 22.8353 93.7794 22.5133 94.0034 22.28C94.2367 22.056 94.5587 21.9113 94.9694 21.846V21.692C94.6707 21.6173 94.4374 21.4727 94.2694 21.258C94.1107 21.034 94.0314 20.7727 94.0314 20.474C94.0314 20.2873 94.0687 20.124 94.1434 19.984C94.2181 19.8347 94.3161 19.7087 94.4374 19.606C94.5681 19.5033 94.7127 19.4193 94.8714 19.354C95.0301 19.2793 95.1981 19.2233 95.3754 19.186V19.13C94.9274 18.9247 94.5914 18.64 94.3674 18.276C94.1527 17.912 94.0454 17.4873 94.0454 17.002C94.0454 16.2553 94.3021 15.658 94.8154 15.21C95.3287 14.7527 96.0801 14.524 97.0694 14.524C97.2934 14.524 97.5127 14.538 97.7274 14.566C97.9514 14.594 98.1567 14.6407 98.3434 14.706V14.468C98.3434 13.7587 98.6887 13.404 99.3794 13.404H100.513V14.776H98.9594V14.972C99.3421 15.1867 99.6267 15.4667 99.8134 15.812C100 16.1573 100.093 16.554 100.093 17.002C100.093 17.7393 99.8367 18.332 99.3234 18.78C98.8194 19.228 98.0681 19.452 97.0694 19.452C96.6401 19.452 96.2667 19.41 95.9494 19.326C95.8094 19.3913 95.6881 19.48 95.5854 19.592C95.4827 19.6947 95.4314 19.8253 95.4314 19.984C95.4314 20.348 95.7487 20.53 96.3834 20.53H98.3434C99.2394 20.53 99.8881 20.7167 100.289 21.09C100.7 21.454 100.905 21.9627 100.905 22.616ZM99.2254 22.826C99.2254 22.5927 99.1321 22.4107 98.9454 22.28C98.7587 22.1493 98.4367 22.084 97.9794 22.084H95.4874C95.2354 22.2707 95.1094 22.5227 95.1094 22.84C95.1094 23.12 95.2261 23.3393 95.4594 23.498C95.6927 23.6567 96.0894 23.736 96.6494 23.736H97.5454C98.1334 23.736 98.5581 23.6613 98.8194 23.512C99.0901 23.3627 99.2254 23.134 99.2254 22.826ZM97.0694 18.234C97.9467 18.234 98.3854 17.8607 98.3854 17.114V16.876C98.3854 16.1293 97.9467 15.756 97.0694 15.756C96.1921 15.756 95.7534 16.1293 95.7534 16.876V17.114C95.7534 17.8607 96.1921 18.234 97.0694 18.234ZM104.812 22.168C104.271 22.168 103.786 22.0793 103.356 21.902C102.936 21.7153 102.577 21.4587 102.278 21.132C101.989 20.796 101.765 20.3947 101.606 19.928C101.448 19.452 101.368 18.92 101.368 18.332C101.368 17.7533 101.443 17.2307 101.592 16.764C101.751 16.2973 101.975 15.9007 102.264 15.574C102.554 15.238 102.908 14.9813 103.328 14.804C103.748 14.6173 104.224 14.524 104.756 14.524C105.326 14.524 105.82 14.622 106.24 14.818C106.66 15.014 107.006 15.28 107.276 15.616C107.547 15.952 107.748 16.344 107.878 16.792C108.018 17.2307 108.088 17.702 108.088 18.206V18.794H103.23V18.976C103.23 19.508 103.38 19.9373 103.678 20.264C103.977 20.5813 104.42 20.74 105.008 20.74C105.456 20.74 105.82 20.6467 106.1 20.46C106.39 20.2733 106.646 20.0353 106.87 19.746L107.836 20.824C107.538 21.244 107.127 21.5753 106.604 21.818C106.091 22.0513 105.494 22.168 104.812 22.168ZM104.784 15.868C104.308 15.868 103.93 16.0267 103.65 16.344C103.37 16.6613 103.23 17.072 103.23 17.576V17.688H106.226V17.562C106.226 17.058 106.1 16.652 105.848 16.344C105.606 16.0267 105.251 15.868 104.784 15.868ZM109.665 22V14.692H111.457V15.91H111.527C111.676 15.518 111.91 15.1913 112.227 14.93C112.554 14.6593 113.002 14.524 113.571 14.524C114.327 14.524 114.906 14.7713 115.307 15.266C115.708 15.7607 115.909 16.4653 115.909 17.38V22H114.117V17.562C114.117 17.0393 114.024 16.6473 113.837 16.386C113.65 16.1247 113.342 15.994 112.913 15.994C112.726 15.994 112.544 16.022 112.367 16.078C112.199 16.1247 112.045 16.1993 111.905 16.302C111.774 16.3953 111.667 16.5167 111.583 16.666C111.499 16.806 111.457 16.974 111.457 17.17V22H109.665ZM120.177 22C119.561 22 119.09 21.8413 118.763 21.524C118.446 21.1973 118.287 20.7353 118.287 20.138V16.12H117.209V14.692H117.769C118.04 14.692 118.222 14.6313 118.315 14.51C118.418 14.3793 118.469 14.188 118.469 13.936V12.69H120.079V14.692H121.577V16.12H120.079V20.572H121.465V22H120.177Z" fill="white"/>
<path d="M13.8684 16.459H11.0721C10.686 16.459 10.373 16.7642 10.373 17.1407V22.4582C10.373 22.8347 10.686 23.1399 11.0721 23.1399H13.8684C14.2545 23.1399 14.5675 22.8347 14.5675 22.4582V17.1407C14.5675 16.7642 14.2545 16.459 13.8684 16.459ZM13.1693 21.7764H11.7712V17.8224H13.1693V21.7764Z" fill="white"/>
<path d="M24.4954 11.0039H21.6991C21.313 11.0039 21 11.3091 21 11.6856V22.4569C21 22.8334 21.313 23.1386 21.6991 23.1386H24.4954C24.8815 23.1386 25.1944 22.8334 25.1944 22.4569V11.6856C25.1944 11.3091 24.8815 11.0039 24.4954 11.0039ZM23.7963 21.7751H22.3981V12.3674H23.7963V21.7751Z" fill="white"/>
<path d="M19.1848 13.7305H16.3885C16.0024 13.7305 15.6895 14.0357 15.6895 14.4122V22.4565C15.6895 22.8331 16.0024 23.1383 16.3885 23.1383H19.1848C19.5709 23.1383 19.8839 22.8331 19.8839 22.4565V14.4122C19.8839 14.0357 19.5709 13.7305 19.1848 13.7305ZM18.4857 21.7748H17.0876V15.0939H18.4857V21.7748Z" fill="white"/>
<path d="M0 17.2964C0 7.74386 7.74386 0 17.2964 0V0C26.8489 0 34.5928 7.74386 34.5928 17.2964V18.2064C34.5928 23.0895 32.6312 27.768 29.1486 31.191L18.6983 41.4621C17.9202 42.2269 16.6726 42.2269 15.8945 41.4621L5.44425 31.191C1.96162 27.768 0 23.0895 0 18.2063V17.2964Z" fill="#D17521"/>
<path d="M0 17.2964C0 7.74386 7.74386 0 17.2964 0V0C26.8489 0 34.5928 7.74386 34.5928 17.2964V18.2064C34.5928 23.0895 32.6312 27.768 29.1486 31.191L18.6983 41.4621C17.9202 42.2269 16.6726 42.2269 15.8945 41.4621L5.44425 31.191C1.96162 27.768 0 23.0895 0 18.2063V17.2964Z" fill="black" fill-opacity="0.2"/>
<ellipse cx="17.2947" cy="18" rx="15.2615" ry="15" fill="#D17521"/>
<path fill-rule="evenodd" clip-rule="evenodd" d="M17 11.5039C15.6355 11.5039 14.5294 12.5113 14.5294 13.7539C14.5294 14.9965 15.6355 16.0039 17 16.0039C18.3645 16.0039 19.4706 14.9965 19.4706 13.7539C19.4706 12.5113 18.3645 11.5039 17 11.5039ZM12.8824 13.7539C12.8824 11.6828 14.7259 10.0039 17 10.0039C19.2741 10.0039 21.1176 11.6828 21.1176 13.7539C21.1176 15.825 19.2741 17.5039 17 17.5039C14.7259 17.5039 12.8824 15.825 12.8824 13.7539ZM11.206 20.1023C11.9782 19.399 13.0256 19.0039 14.1176 19.0039H19.8824C20.9744 19.0039 22.0218 19.399 22.794 20.1023C23.5662 20.8055 24 21.7593 24 22.7539V24.2539C24 24.6681 23.6313 25.0039 23.1765 25.0039C22.7216 25.0039 22.3529 24.6681 22.3529 24.2539V22.7539C22.3529 22.1572 22.0926 21.5849 21.6293 21.1629C21.166 20.741 20.5376 20.5039 19.8824 20.5039H14.1176C13.4624 20.5039 12.834 20.741 12.3707 21.1629C11.9074 21.5849 11.6471 22.1572 11.6471 22.7539V24.2539C11.6471 24.6681 11.2784 25.0039 10.8235 25.0039C10.3687 25.0039 10 24.6681 10 24.2539V22.7539C10 21.7593 10.4338 20.8055 11.206 20.1023Z" fill="white"/>
</svg>
