<svg width="165" height="43" viewBox="0 0 165 43" fill="none" xmlns="http://www.w3.org/2000/svg">
<path d="M1.97461 16.5C1.97461 7.3873 9.36191 0 18.4746 0H126.016C130.48 0 134.754 1.80892 137.862 5.01386V5.01386C148.01 15.4794 140.594 33 126.016 33H18.4746C9.36192 33 1.97461 25.6127 1.97461 16.5V16.5Z" fill="#D0BD12"/>
<path d="M1.97461 16.5C1.97461 7.3873 9.36191 0 18.4746 0H126.016C130.48 0 134.754 1.80892 137.862 5.01386V5.01386C148.01 15.4794 140.594 33 126.016 33H18.4746C9.36192 33 1.97461 25.6127 1.97461 16.5V16.5Z" fill="black" fill-opacity="0.2"/>
<path d="M39.148 12.228H43.67C44.0713 12.228 44.4307 12.2887 44.748 12.41C45.0747 12.5313 45.35 12.6993 45.574 12.914C45.798 13.1287 45.966 13.3947 46.078 13.712C46.1993 14.02 46.26 14.3607 46.26 14.734C46.26 15.1073 46.2087 15.4247 46.106 15.686C46.0127 15.938 45.882 16.148 45.714 16.316C45.5553 16.484 45.3687 16.61 45.154 16.694C44.9487 16.778 44.734 16.8247 44.51 16.834V16.918C44.7247 16.918 44.9533 16.96 45.196 17.044C45.448 17.128 45.6767 17.2633 45.882 17.45C46.0967 17.6273 46.274 17.8607 46.414 18.15C46.554 18.43 46.624 18.78 46.624 19.2C46.624 19.592 46.5587 19.9607 46.428 20.306C46.3067 20.642 46.134 20.936 45.91 21.188C45.686 21.44 45.42 21.6407 45.112 21.79C44.804 21.93 44.468 22 44.104 22H39.148V12.228ZM40.996 20.432H43.572C43.9267 20.432 44.202 20.3433 44.398 20.166C44.594 19.9793 44.692 19.7133 44.692 19.368V18.892C44.692 18.5467 44.594 18.2807 44.398 18.094C44.202 17.9073 43.9267 17.814 43.572 17.814H40.996V20.432ZM40.996 16.302H43.278C43.614 16.302 43.8753 16.2133 44.062 16.036C44.2487 15.8493 44.342 15.5927 44.342 15.266V14.832C44.342 14.5053 44.2487 14.2533 44.062 14.076C43.8753 13.8893 43.614 13.796 43.278 13.796H40.996V16.302ZM52.6872 20.782H52.6172C52.5519 20.9687 52.4632 21.146 52.3512 21.314C52.2485 21.4727 52.1132 21.6173 51.9452 21.748C51.7865 21.8787 51.5905 21.9813 51.3572 22.056C51.1332 22.1307 50.8719 22.168 50.5732 22.168C49.8172 22.168 49.2385 21.9207 48.8372 21.426C48.4359 20.9313 48.2352 20.2267 48.2352 19.312V14.692H50.0272V19.13C50.0272 19.634 50.1252 20.0213 50.3212 20.292C50.5172 20.5533 50.8299 20.684 51.2592 20.684C51.4365 20.684 51.6092 20.6607 51.7772 20.614C51.9545 20.5673 52.1085 20.4973 52.2392 20.404C52.3699 20.3013 52.4772 20.18 52.5612 20.04C52.6452 19.8907 52.6872 19.718 52.6872 19.522V14.692H54.4792V22H52.6872V20.782ZM57.4457 13.628C57.0723 13.628 56.8017 13.544 56.6337 13.376C56.475 13.208 56.3957 12.9933 56.3957 12.732V12.452C56.3957 12.1907 56.475 11.976 56.6337 11.808C56.8017 11.64 57.0723 11.556 57.4457 11.556C57.8097 11.556 58.0757 11.64 58.2437 11.808C58.4117 11.976 58.4957 12.1907 58.4957 12.452V12.732C58.4957 12.9933 58.4117 13.208 58.2437 13.376C58.0757 13.544 57.8097 13.628 57.4457 13.628ZM56.5497 14.692H58.3417V22H56.5497V14.692ZM62.2108 22C61.5948 22 61.1421 21.846 60.8528 21.538C60.5635 21.23 60.4188 20.796 60.4188 20.236V11.64H62.2108V20.572H63.1768V22H62.2108ZM69.07 20.782H69C68.8694 21.202 68.622 21.538 68.258 21.79C67.894 22.042 67.4694 22.168 66.984 22.168C66.06 22.168 65.3507 21.8367 64.856 21.174C64.3707 20.5113 64.128 19.564 64.128 18.332C64.128 17.1093 64.3707 16.1713 64.856 15.518C65.3507 14.8553 66.06 14.524 66.984 14.524C67.4694 14.524 67.894 14.65 68.258 14.902C68.622 15.1447 68.8694 15.476 69 15.896H69.07V11.64H70.862V22H69.07V20.782ZM67.558 20.684C67.9874 20.684 68.3467 20.5813 68.636 20.376C68.9254 20.1707 69.07 19.8767 69.07 19.494V17.17C69.07 16.8153 68.9254 16.5307 68.636 16.316C68.3467 16.1013 67.9874 15.994 67.558 15.994C67.0914 15.994 66.7134 16.1527 66.424 16.47C66.144 16.778 66.004 17.1933 66.004 17.716V18.976C66.004 19.4987 66.144 19.914 66.424 20.222C66.7134 20.53 67.0914 20.684 67.558 20.684ZM73.8246 13.628C73.4512 13.628 73.1806 13.544 73.0126 13.376C72.8539 13.208 72.7746 12.9933 72.7746 12.732V12.452C72.7746 12.1907 72.8539 11.976 73.0126 11.808C73.1806 11.64 73.4512 11.556 73.8246 11.556C74.1886 11.556 74.4546 11.64 74.6226 11.808C74.7906 11.976 74.8746 12.1907 74.8746 12.452V12.732C74.8746 12.9933 74.7906 13.208 74.6226 13.376C74.4546 13.544 74.1886 13.628 73.8246 13.628ZM72.9286 14.692H74.7206V22H72.9286V14.692ZM76.7977 22V14.692H78.5897V15.91H78.6597C78.8091 15.518 79.0424 15.1913 79.3597 14.93C79.6864 14.6593 80.1344 14.524 80.7037 14.524C81.4597 14.524 82.0384 14.7713 82.4397 15.266C82.8411 15.7607 83.0417 16.4653 83.0417 17.38V22H81.2497V17.562C81.2497 17.0393 81.1564 16.6473 80.9697 16.386C80.7831 16.1247 80.4751 15.994 80.0457 15.994C79.8591 15.994 79.6771 16.022 79.4997 16.078C79.3317 16.1247 79.1777 16.1993 79.0377 16.302C78.9071 16.3953 78.7997 16.5167 78.7157 16.666C78.6317 16.806 78.5897 16.974 78.5897 17.17V22H76.7977ZM91.6222 22.616C91.6222 22.9987 91.5522 23.3347 91.4122 23.624C91.2815 23.9227 91.0622 24.17 90.7542 24.366C90.4462 24.562 90.0495 24.7113 89.5642 24.814C89.0789 24.9167 88.4862 24.968 87.7862 24.968C87.1702 24.968 86.6475 24.926 86.2182 24.842C85.7889 24.7673 85.4342 24.6553 85.1542 24.506C84.8835 24.366 84.6875 24.1887 84.5662 23.974C84.4449 23.7593 84.3842 23.5167 84.3842 23.246C84.3842 22.8353 84.4962 22.5133 84.7202 22.28C84.9535 22.056 85.2755 21.9113 85.6862 21.846V21.692C85.3875 21.6173 85.1542 21.4727 84.9862 21.258C84.8275 21.034 84.7482 20.7727 84.7482 20.474C84.7482 20.2873 84.7855 20.124 84.8602 19.984C84.9349 19.8347 85.0329 19.7087 85.1542 19.606C85.2849 19.5033 85.4295 19.4193 85.5882 19.354C85.7469 19.2793 85.9149 19.2233 86.0922 19.186V19.13C85.6442 18.9247 85.3082 18.64 85.0842 18.276C84.8695 17.912 84.7622 17.4873 84.7622 17.002C84.7622 16.2553 85.0189 15.658 85.5322 15.21C86.0455 14.7527 86.7969 14.524 87.7862 14.524C88.0102 14.524 88.2295 14.538 88.4442 14.566C88.6682 14.594 88.8735 14.6407 89.0602 14.706V14.468C89.0602 13.7587 89.4055 13.404 90.0962 13.404H91.2302V14.776H89.6762V14.972C90.0589 15.1867 90.3435 15.4667 90.5302 15.812C90.7169 16.1573 90.8102 16.554 90.8102 17.002C90.8102 17.7393 90.5535 18.332 90.0402 18.78C89.5362 19.228 88.7849 19.452 87.7862 19.452C87.3569 19.452 86.9835 19.41 86.6662 19.326C86.5262 19.3913 86.4049 19.48 86.3022 19.592C86.1995 19.6947 86.1482 19.8253 86.1482 19.984C86.1482 20.348 86.4655 20.53 87.1002 20.53H89.0602C89.9562 20.53 90.6049 20.7167 91.0062 21.09C91.4169 21.454 91.6222 21.9627 91.6222 22.616ZM89.9422 22.826C89.9422 22.5927 89.8489 22.4107 89.6622 22.28C89.4755 22.1493 89.1535 22.084 88.6962 22.084H86.2042C85.9522 22.2707 85.8262 22.5227 85.8262 22.84C85.8262 23.12 85.9429 23.3393 86.1762 23.498C86.4095 23.6567 86.8062 23.736 87.3662 23.736H88.2622C88.8502 23.736 89.2749 23.6613 89.5362 23.512C89.8069 23.3627 89.9422 23.134 89.9422 22.826ZM87.7862 18.234C88.6635 18.234 89.1022 17.8607 89.1022 17.114V16.876C89.1022 16.1293 88.6635 15.756 87.7862 15.756C86.9089 15.756 86.4702 16.1293 86.4702 16.876V17.114C86.4702 17.8607 86.9089 18.234 87.7862 18.234ZM102.126 22L101.342 19.508H97.8697L97.0997 22H95.2237L98.4997 12.228H100.796L104.044 22H102.126ZM99.6337 13.908H99.5637L98.3177 17.926H100.894L99.6337 13.908ZM111.966 22.616C111.966 22.9987 111.896 23.3347 111.756 23.624C111.625 23.9227 111.406 24.17 111.098 24.366C110.79 24.562 110.393 24.7113 109.908 24.814C109.423 24.9167 108.83 24.968 108.13 24.968C107.514 24.968 106.991 24.926 106.562 24.842C106.133 24.7673 105.778 24.6553 105.498 24.506C105.227 24.366 105.031 24.1887 104.91 23.974C104.789 23.7593 104.728 23.5167 104.728 23.246C104.728 22.8353 104.84 22.5133 105.064 22.28C105.297 22.056 105.619 21.9113 106.03 21.846V21.692C105.731 21.6173 105.498 21.4727 105.33 21.258C105.171 21.034 105.092 20.7727 105.092 20.474C105.092 20.2873 105.129 20.124 105.204 19.984C105.279 19.8347 105.377 19.7087 105.498 19.606C105.629 19.5033 105.773 19.4193 105.932 19.354C106.091 19.2793 106.259 19.2233 106.436 19.186V19.13C105.988 18.9247 105.652 18.64 105.428 18.276C105.213 17.912 105.106 17.4873 105.106 17.002C105.106 16.2553 105.363 15.658 105.876 15.21C106.389 14.7527 107.141 14.524 108.13 14.524C108.354 14.524 108.573 14.538 108.788 14.566C109.012 14.594 109.217 14.6407 109.404 14.706V14.468C109.404 13.7587 109.749 13.404 110.44 13.404H111.574V14.776H110.02V14.972C110.403 15.1867 110.687 15.4667 110.874 15.812C111.061 16.1573 111.154 16.554 111.154 17.002C111.154 17.7393 110.897 18.332 110.384 18.78C109.88 19.228 109.129 19.452 108.13 19.452C107.701 19.452 107.327 19.41 107.01 19.326C106.87 19.3913 106.749 19.48 106.646 19.592C106.543 19.6947 106.492 19.8253 106.492 19.984C106.492 20.348 106.809 20.53 107.444 20.53H109.404C110.3 20.53 110.949 20.7167 111.35 21.09C111.761 21.454 111.966 21.9627 111.966 22.616ZM110.286 22.826C110.286 22.5927 110.193 22.4107 110.006 22.28C109.819 22.1493 109.497 22.084 109.04 22.084H106.548C106.296 22.2707 106.17 22.5227 106.17 22.84C106.17 23.12 106.287 23.3393 106.52 23.498C106.753 23.6567 107.15 23.736 107.71 23.736H108.606C109.194 23.736 109.619 23.6613 109.88 23.512C110.151 23.3627 110.286 23.134 110.286 22.826ZM108.13 18.234C109.007 18.234 109.446 17.8607 109.446 17.114V16.876C109.446 16.1293 109.007 15.756 108.13 15.756C107.253 15.756 106.814 16.1293 106.814 16.876V17.114C106.814 17.8607 107.253 18.234 108.13 18.234ZM115.873 22.168C115.331 22.168 114.846 22.0793 114.417 21.902C113.997 21.7153 113.637 21.4587 113.339 21.132C113.049 20.796 112.825 20.3947 112.667 19.928C112.508 19.452 112.429 18.92 112.429 18.332C112.429 17.7533 112.503 17.2307 112.653 16.764C112.811 16.2973 113.035 15.9007 113.325 15.574C113.614 15.238 113.969 14.9813 114.389 14.804C114.809 14.6173 115.285 14.524 115.817 14.524C116.386 14.524 116.881 14.622 117.301 14.818C117.721 15.014 118.066 15.28 118.337 15.616C118.607 15.952 118.808 16.344 118.939 16.792C119.079 17.2307 119.149 17.702 119.149 18.206V18.794H114.291V18.976C114.291 19.508 114.44 19.9373 114.739 20.264C115.037 20.5813 115.481 20.74 116.069 20.74C116.517 20.74 116.881 20.6467 117.161 20.46C117.45 20.2733 117.707 20.0353 117.931 19.746L118.897 20.824C118.598 21.244 118.187 21.5753 117.665 21.818C117.151 22.0513 116.554 22.168 115.873 22.168ZM115.845 15.868C115.369 15.868 114.991 16.0267 114.711 16.344C114.431 16.6613 114.291 17.072 114.291 17.576V17.688H117.287V17.562C117.287 17.058 117.161 16.652 116.909 16.344C116.666 16.0267 116.311 15.868 115.845 15.868ZM120.725 22V14.692H122.517V15.91H122.587C122.737 15.518 122.97 15.1913 123.287 14.93C123.614 14.6593 124.062 14.524 124.631 14.524C125.387 14.524 125.966 14.7713 126.367 15.266C126.769 15.7607 126.969 16.4653 126.969 17.38V22H125.177V17.562C125.177 17.0393 125.084 16.6473 124.897 16.386C124.711 16.1247 124.403 15.994 123.973 15.994C123.787 15.994 123.605 16.022 123.427 16.078C123.259 16.1247 123.105 16.1993 122.965 16.302C122.835 16.3953 122.727 16.5167 122.643 16.666C122.559 16.806 122.517 16.974 122.517 17.17V22H120.725ZM131.238 22C130.622 22 130.151 21.8413 129.824 21.524C129.507 21.1973 129.348 20.7353 129.348 20.138V16.12H128.27V14.692H128.83C129.101 14.692 129.283 14.6313 129.376 14.51C129.479 14.3793 129.53 14.188 129.53 13.936V12.69H131.14V14.692H132.638V16.12H131.14V20.572H132.526V22H131.238Z" fill="white"/>
<path d="M13.8684 16.459H11.0721C10.686 16.459 10.373 16.7642 10.373 17.1407V22.4582C10.373 22.8347 10.686 23.1399 11.0721 23.1399H13.8684C14.2545 23.1399 14.5675 22.8347 14.5675 22.4582V17.1407C14.5675 16.7642 14.2545 16.459 13.8684 16.459ZM13.1693 21.7764H11.7712V17.8224H13.1693V21.7764Z" fill="white"/>
<path d="M24.4954 11.0039H21.6991C21.313 11.0039 21 11.3091 21 11.6856V22.4569C21 22.8334 21.313 23.1386 21.6991 23.1386H24.4954C24.8815 23.1386 25.1944 22.8334 25.1944 22.4569V11.6856C25.1944 11.3091 24.8815 11.0039 24.4954 11.0039ZM23.7963 21.7751H22.3981V12.3674H23.7963V21.7751Z" fill="white"/>
<path d="M19.1848 13.7305H16.3885C16.0024 13.7305 15.6895 14.0357 15.6895 14.4122V22.4565C15.6895 22.8331 16.0024 23.1383 16.3885 23.1383H19.1848C19.5709 23.1383 19.8839 22.8331 19.8839 22.4565V14.4122C19.8839 14.0357 19.5709 13.7305 19.1848 13.7305ZM18.4857 21.7748H17.0876V15.0939H18.4857V21.7748Z" fill="white"/>
<path d="M0 17.2964C0 7.74386 7.74386 0 17.2964 0V0C26.8489 0 34.5928 7.74386 34.5928 17.2964V18.2064C34.5928 23.0895 32.6312 27.768 29.1486 31.191L18.6983 41.4621C17.9202 42.2269 16.6726 42.2269 15.8945 41.4621L5.44425 31.191C1.96162 27.768 0 23.0895 0 18.2063V17.2964Z" fill="#D0BD12"/>
<path d="M0 17.2964C0 7.74386 7.74386 0 17.2964 0V0C26.8489 0 34.5928 7.74386 34.5928 17.2964V18.2064C34.5928 23.0895 32.6312 27.768 29.1486 31.191L18.6983 41.4621C17.9202 42.2269 16.6726 42.2269 15.8945 41.4621L5.44425 31.191C1.96162 27.768 0 23.0895 0 18.2063V17.2964Z" fill="black" fill-opacity="0.2"/>
<ellipse cx="17.2947" cy="18" rx="15.2615" ry="15" fill="#D0BD12"/>
<path fill-rule="evenodd" clip-rule="evenodd" d="M22.2544 15.1331L23.817 16.5915C24.061 16.8192 24.061 17.1885 23.817 17.4163C23.6948 17.5303 23.5351 17.5872 23.3751 17.5872C23.2151 17.5872 23.0554 17.5303 22.9332 17.4163L22.4376 16.9537V23.4206C22.4376 23.7426 22.1576 24.0039 21.8126 24.0039H17.125C16.78 24.0039 16.5 23.7426 16.5 23.4206C16.5 23.0986 16.78 22.8372 17.125 22.8372H17.75V18.7539H15.25V23.4206C15.25 23.7426 14.97 24.0039 14.625 24.0039H11.1874C10.8424 24.0039 10.5624 23.7426 10.5624 23.4206V16.9537L10.0668 17.4163C9.94462 17.5303 9.78493 17.5872 9.62493 17.5872C9.46493 17.5872 9.30524 17.5303 9.18305 17.4163C8.93898 17.1885 8.93898 16.8192 9.18305 16.5915L10.7456 15.1331L16.0581 10.1748C16.3022 9.94696 16.6978 9.94696 16.9419 10.1748L22.2544 15.1331ZM19 22.8372H21.1875V15.7873L16.5 11.4123L11.8125 15.7873V22.8372H14V18.1705C14 17.8485 14.28 17.5872 14.625 17.5872H15.8445C15.6706 17.4283 15.5625 17.2068 15.5625 16.9622C15.5625 16.4798 15.9831 16.0872 16.5 16.0872C17.0169 16.0872 17.4375 16.4798 17.4375 16.9622C17.4375 17.2068 17.3294 17.4283 17.1555 17.5872H18.375C18.72 17.5872 19 17.8485 19 18.1705V22.8372Z" fill="white"/>
</svg>
