<svg width="165" height="43" viewBox="0 0 165 43" fill="none" xmlns="http://www.w3.org/2000/svg">
<path d="M1.97461 16.5C1.97461 7.3873 9.36191 0 18.4746 0H108.667C111.823 0 114.912 0.904946 117.569 2.60754V2.60754C131.445 11.4991 125.147 33 108.667 33H18.4746C9.36192 33 1.97461 25.6127 1.97461 16.5V16.5Z" fill="#D332B0"/>
<path d="M1.97461 16.5C1.97461 7.3873 9.36191 0 18.4746 0H108.667C111.823 0 114.912 0.904946 117.569 2.60754V2.60754C131.445 11.4991 125.147 33 108.667 33H18.4746C9.36192 33 1.97461 25.6127 1.97461 16.5V16.5Z" fill="black" fill-opacity="0.2"/>
<path d="M39.148 12.228H43.67C44.0713 12.228 44.4307 12.2887 44.748 12.41C45.0747 12.5313 45.35 12.6993 45.574 12.914C45.798 13.1287 45.966 13.3947 46.078 13.712C46.1993 14.02 46.26 14.3607 46.26 14.734C46.26 15.1073 46.2087 15.4247 46.106 15.686C46.0127 15.938 45.882 16.148 45.714 16.316C45.5553 16.484 45.3687 16.61 45.154 16.694C44.9487 16.778 44.734 16.8247 44.51 16.834V16.918C44.7247 16.918 44.9533 16.96 45.196 17.044C45.448 17.128 45.6767 17.2633 45.882 17.45C46.0967 17.6273 46.274 17.8607 46.414 18.15C46.554 18.43 46.624 18.78 46.624 19.2C46.624 19.592 46.5587 19.9607 46.428 20.306C46.3067 20.642 46.134 20.936 45.91 21.188C45.686 21.44 45.42 21.6407 45.112 21.79C44.804 21.93 44.468 22 44.104 22H39.148V12.228ZM40.996 20.432H43.572C43.9267 20.432 44.202 20.3433 44.398 20.166C44.594 19.9793 44.692 19.7133 44.692 19.368V18.892C44.692 18.5467 44.594 18.2807 44.398 18.094C44.202 17.9073 43.9267 17.814 43.572 17.814H40.996V20.432ZM40.996 16.302H43.278C43.614 16.302 43.8753 16.2133 44.062 16.036C44.2487 15.8493 44.342 15.5927 44.342 15.266V14.832C44.342 14.5053 44.2487 14.2533 44.062 14.076C43.8753 13.8893 43.614 13.796 43.278 13.796H40.996V16.302ZM52.6872 20.782H52.6172C52.5519 20.9687 52.4632 21.146 52.3512 21.314C52.2485 21.4727 52.1132 21.6173 51.9452 21.748C51.7865 21.8787 51.5905 21.9813 51.3572 22.056C51.1332 22.1307 50.8719 22.168 50.5732 22.168C49.8172 22.168 49.2385 21.9207 48.8372 21.426C48.4359 20.9313 48.2352 20.2267 48.2352 19.312V14.692H50.0272V19.13C50.0272 19.634 50.1252 20.0213 50.3212 20.292C50.5172 20.5533 50.8299 20.684 51.2592 20.684C51.4365 20.684 51.6092 20.6607 51.7772 20.614C51.9545 20.5673 52.1085 20.4973 52.2392 20.404C52.3699 20.3013 52.4772 20.18 52.5612 20.04C52.6452 19.8907 52.6872 19.718 52.6872 19.522V14.692H54.4792V22H52.6872V20.782ZM61.0297 14.692H62.7097L59.7697 23.302C59.6763 23.5633 59.569 23.7873 59.4477 23.974C59.3357 24.17 59.2003 24.3287 59.0417 24.45C58.883 24.5713 58.6917 24.66 58.4677 24.716C58.2437 24.772 57.9823 24.8 57.6837 24.8H56.6057V23.372H57.9217L58.2577 22.35L55.6397 14.692H57.4177L58.6917 18.556L59.1677 20.404H59.2517L59.7557 18.556L61.0297 14.692ZM66.7498 22.168C66.2084 22.168 65.7231 22.0793 65.2938 21.902C64.8738 21.7153 64.5144 21.4587 64.2158 21.132C63.9264 20.796 63.7024 20.3947 63.5438 19.928C63.3851 19.452 63.3058 18.92 63.3058 18.332C63.3058 17.7533 63.3804 17.2307 63.5298 16.764C63.6884 16.2973 63.9124 15.9007 64.2018 15.574C64.4911 15.238 64.8458 14.9813 65.2658 14.804C65.6858 14.6173 66.1618 14.524 66.6938 14.524C67.2631 14.524 67.7578 14.622 68.1778 14.818C68.5978 15.014 68.9431 15.28 69.2138 15.616C69.4844 15.952 69.6851 16.344 69.8158 16.792C69.9558 17.2307 70.0258 17.702 70.0258 18.206V18.794H65.1678V18.976C65.1678 19.508 65.3171 19.9373 65.6158 20.264C65.9144 20.5813 66.3578 20.74 66.9458 20.74C67.3938 20.74 67.7578 20.6467 68.0378 20.46C68.3271 20.2733 68.5838 20.0353 68.8078 19.746L69.7738 20.824C69.4751 21.244 69.0644 21.5753 68.5418 21.818C68.0284 22.0513 67.4311 22.168 66.7498 22.168ZM66.7218 15.868C66.2458 15.868 65.8678 16.0267 65.5878 16.344C65.3078 16.6613 65.1678 17.072 65.1678 17.576V17.688H68.1638V17.562C68.1638 17.058 68.0378 16.652 67.7858 16.344C67.5431 16.0267 67.1884 15.868 66.7218 15.868ZM71.6024 22V14.692H73.3944V16.204H73.4644C73.5111 16.008 73.5811 15.8213 73.6744 15.644C73.7771 15.4573 73.9077 15.294 74.0664 15.154C74.2251 15.014 74.4117 14.902 74.6264 14.818C74.8504 14.734 75.1071 14.692 75.3964 14.692H75.7884V16.386H75.2284C74.6217 16.386 74.1644 16.4747 73.8564 16.652C73.5484 16.8293 73.3944 17.1187 73.3944 17.52V22H71.6024ZM86.5671 22L85.7831 19.508H82.3111L81.5411 22H79.6651L82.9411 12.228H85.2371L88.4851 22H86.5671ZM84.0751 13.908H84.0051L82.7591 17.926H85.3351L84.0751 13.908ZM96.4073 22.616C96.4073 22.9987 96.3373 23.3347 96.1973 23.624C96.0667 23.9227 95.8473 24.17 95.5393 24.366C95.2313 24.562 94.8347 24.7113 94.3493 24.814C93.864 24.9167 93.2713 24.968 92.5713 24.968C91.9553 24.968 91.4327 24.926 91.0033 24.842C90.574 24.7673 90.2193 24.6553 89.9393 24.506C89.6687 24.366 89.4727 24.1887 89.3513 23.974C89.23 23.7593 89.1693 23.5167 89.1693 23.246C89.1693 22.8353 89.2813 22.5133 89.5053 22.28C89.7387 22.056 90.0607 21.9113 90.4713 21.846V21.692C90.1727 21.6173 89.9393 21.4727 89.7713 21.258C89.6127 21.034 89.5333 20.7727 89.5333 20.474C89.5333 20.2873 89.5707 20.124 89.6453 19.984C89.72 19.8347 89.818 19.7087 89.9393 19.606C90.07 19.5033 90.2147 19.4193 90.3733 19.354C90.532 19.2793 90.7 19.2233 90.8773 19.186V19.13C90.4293 18.9247 90.0933 18.64 89.8693 18.276C89.6547 17.912 89.5473 17.4873 89.5473 17.002C89.5473 16.2553 89.804 15.658 90.3173 15.21C90.8307 14.7527 91.582 14.524 92.5713 14.524C92.7953 14.524 93.0147 14.538 93.2293 14.566C93.4533 14.594 93.6587 14.6407 93.8453 14.706V14.468C93.8453 13.7587 94.1907 13.404 94.8813 13.404H96.0153V14.776H94.4613V14.972C94.844 15.1867 95.1287 15.4667 95.3153 15.812C95.502 16.1573 95.5953 16.554 95.5953 17.002C95.5953 17.7393 95.3387 18.332 94.8253 18.78C94.3213 19.228 93.57 19.452 92.5713 19.452C92.142 19.452 91.7687 19.41 91.4513 19.326C91.3113 19.3913 91.19 19.48 91.0873 19.592C90.9847 19.6947 90.9333 19.8253 90.9333 19.984C90.9333 20.348 91.2507 20.53 91.8853 20.53H93.8453C94.7413 20.53 95.39 20.7167 95.7913 21.09C96.202 21.454 96.4073 21.9627 96.4073 22.616ZM94.7273 22.826C94.7273 22.5927 94.634 22.4107 94.4473 22.28C94.2607 22.1493 93.9387 22.084 93.4813 22.084H90.9893C90.7373 22.2707 90.6113 22.5227 90.6113 22.84C90.6113 23.12 90.728 23.3393 90.9613 23.498C91.1947 23.6567 91.5913 23.736 92.1513 23.736H93.0473C93.6353 23.736 94.06 23.6613 94.3213 23.512C94.592 23.3627 94.7273 23.134 94.7273 22.826ZM92.5713 18.234C93.4487 18.234 93.8873 17.8607 93.8873 17.114V16.876C93.8873 16.1293 93.4487 15.756 92.5713 15.756C91.694 15.756 91.2553 16.1293 91.2553 16.876V17.114C91.2553 17.8607 91.694 18.234 92.5713 18.234ZM100.314 22.168C99.7729 22.168 99.2876 22.0793 98.8582 21.902C98.4382 21.7153 98.0789 21.4587 97.7802 21.132C97.4909 20.796 97.2669 20.3947 97.1082 19.928C96.9496 19.452 96.8702 18.92 96.8702 18.332C96.8702 17.7533 96.9449 17.2307 97.0942 16.764C97.2529 16.2973 97.4769 15.9007 97.7662 15.574C98.0556 15.238 98.4102 14.9813 98.8302 14.804C99.2502 14.6173 99.7262 14.524 100.258 14.524C100.828 14.524 101.322 14.622 101.742 14.818C102.162 15.014 102.508 15.28 102.778 15.616C103.049 15.952 103.25 16.344 103.38 16.792C103.52 17.2307 103.59 17.702 103.59 18.206V18.794H98.7322V18.976C98.7322 19.508 98.8816 19.9373 99.1802 20.264C99.4789 20.5813 99.9222 20.74 100.51 20.74C100.958 20.74 101.322 20.6467 101.602 20.46C101.892 20.2733 102.148 20.0353 102.372 19.746L103.338 20.824C103.04 21.244 102.629 21.5753 102.106 21.818C101.593 22.0513 100.996 22.168 100.314 22.168ZM100.286 15.868C99.8102 15.868 99.4322 16.0267 99.1522 16.344C98.8722 16.6613 98.7322 17.072 98.7322 17.576V17.688H101.728V17.562C101.728 17.058 101.602 16.652 101.35 16.344C101.108 16.0267 100.753 15.868 100.286 15.868ZM105.167 22V14.692H106.959V15.91H107.029C107.178 15.518 107.412 15.1913 107.729 14.93C108.056 14.6593 108.504 14.524 109.073 14.524C109.829 14.524 110.408 14.7713 110.809 15.266C111.21 15.7607 111.411 16.4653 111.411 17.38V22H109.619V17.562C109.619 17.0393 109.526 16.6473 109.339 16.386C109.152 16.1247 108.844 15.994 108.415 15.994C108.228 15.994 108.046 16.022 107.869 16.078C107.701 16.1247 107.547 16.1993 107.407 16.302C107.276 16.3953 107.169 16.5167 107.085 16.666C107.001 16.806 106.959 16.974 106.959 17.17V22H105.167ZM115.679 22C115.063 22 114.592 21.8413 114.265 21.524C113.948 21.1973 113.789 20.7353 113.789 20.138V16.12H112.711V14.692H113.271C113.542 14.692 113.724 14.6313 113.817 14.51C113.92 14.3793 113.971 14.188 113.971 13.936V12.69H115.581V14.692H117.079V16.12H115.581V20.572H116.967V22H115.679Z" fill="white"/>
<path d="M13.8684 16.459H11.0721C10.686 16.459 10.373 16.7642 10.373 17.1407V22.4582C10.373 22.8347 10.686 23.1399 11.0721 23.1399H13.8684C14.2545 23.1399 14.5675 22.8347 14.5675 22.4582V17.1407C14.5675 16.7642 14.2545 16.459 13.8684 16.459ZM13.1693 21.7764H11.7712V17.8224H13.1693V21.7764Z" fill="white"/>
<path d="M24.4954 11.0039H21.6991C21.313 11.0039 21 11.3091 21 11.6856V22.4569C21 22.8334 21.313 23.1386 21.6991 23.1386H24.4954C24.8815 23.1386 25.1944 22.8334 25.1944 22.4569V11.6856C25.1944 11.3091 24.8815 11.0039 24.4954 11.0039ZM23.7963 21.7751H22.3981V12.3674H23.7963V21.7751Z" fill="white"/>
<path d="M19.1848 13.7305H16.3885C16.0024 13.7305 15.6895 14.0357 15.6895 14.4122V22.4565C15.6895 22.8331 16.0024 23.1383 16.3885 23.1383H19.1848C19.5709 23.1383 19.8839 22.8331 19.8839 22.4565V14.4122C19.8839 14.0357 19.5709 13.7305 19.1848 13.7305ZM18.4857 21.7748H17.0876V15.0939H18.4857V21.7748Z" fill="white"/>
<path d="M0 17.2964C0 7.74386 7.74386 0 17.2964 0V0C26.8489 0 34.5928 7.74386 34.5928 17.2964V18.2064C34.5928 23.0895 32.6312 27.768 29.1486 31.191L18.6983 41.4621C17.9202 42.2269 16.6726 42.2269 15.8945 41.4621L5.44425 31.191C1.96162 27.768 0 23.0895 0 18.2063V17.2964Z" fill="#D332B0"/>
<path d="M0 17.2964C0 7.74386 7.74386 0 17.2964 0V0C26.8489 0 34.5928 7.74386 34.5928 17.2964V18.2064C34.5928 23.0895 32.6312 27.768 29.1486 31.191L18.6983 41.4621C17.9202 42.2269 16.6726 42.2269 15.8945 41.4621L5.44425 31.191C1.96162 27.768 0 23.0895 0 18.2063V17.2964Z" fill="black" fill-opacity="0.2"/>
<ellipse cx="17.2947" cy="18" rx="15.2615" ry="15" fill="#D332B0"/>
<path fill-rule="evenodd" clip-rule="evenodd" d="M10.4909 12.4909C13.8124 9.16946 19.188 9.16992 22.509 12.4909C25.8306 15.8124 25.8301 21.1881 22.509 24.509C19.1875 27.8305 13.8119 27.83 10.4909 24.509C7.16944 21.1875 7.16994 15.8119 10.4909 12.4909ZM9.39794 18.5C9.39794 22.4161 12.5839 25.602 16.5 25.602C20.4161 25.602 23.6021 22.4161 23.6021 18.5C23.6021 14.5839 20.4161 11.398 16.5 11.398C12.5839 11.398 9.39794 14.584 9.39794 18.5ZM17.5755 16.7269C17.5755 15.7758 16.4163 15.2916 15.7408 15.9669C15.243 16.4656 15.4363 17.3032 16.0799 17.5698L17.4558 18.1397C19.0177 18.7866 19.4521 20.8283 18.2387 22.0285C17.945 22.3193 17.5882 22.5271 17.1988 22.6406V23.1087C17.1988 23.4943 16.8863 23.8068 16.5007 23.8068C16.1152 23.8068 15.8027 23.4943 15.8027 23.1087V22.6415C14.7508 22.3351 14.03 21.3629 14.03 20.2723C14.03 19.8868 14.3425 19.5743 14.728 19.5743C15.1135 19.5743 15.426 19.8868 15.426 20.2723C15.426 21.2482 16.6275 21.7118 17.2881 21.004C17.7485 20.5099 17.558 19.6931 16.9216 19.4295L15.5457 18.8596C14.8186 18.5584 14.2848 17.9184 14.1179 17.1476C13.8468 15.8953 14.6139 14.7043 15.8028 14.356V13.8905C15.8028 13.505 16.1153 13.1925 16.5008 13.1925C16.8863 13.1925 17.1988 13.505 17.1988 13.8905V14.3572C18.2222 14.6592 18.9715 15.6069 18.9715 16.7269C18.9715 17.1124 18.659 17.4249 18.2735 17.4249C17.888 17.4249 17.5755 17.1124 17.5755 16.7269Z" fill="white"/>
</svg>
