<svg width="165" height="43" viewBox="0 0 165 43" fill="none" xmlns="http://www.w3.org/2000/svg">
<path d="M1.97461 16.5C1.97461 7.3873 9.36191 0 18.4746 0H102.425C105.277 0 108.08 0.73916 110.561 2.14538V2.14538C125.308 10.5037 119.376 33 102.425 33H18.4746C9.36191 33 1.97461 25.6127 1.97461 16.5V16.5Z" fill="#217DD1"/>
<path d="M1.97461 16.5C1.97461 7.3873 9.36191 0 18.4746 0H102.425C105.277 0 108.08 0.73916 110.561 2.14538V2.14538C125.308 10.5037 119.376 33 102.425 33H18.4746C9.36191 33 1.97461 25.6127 1.97461 16.5V16.5Z" fill="black" fill-opacity="0.2"/>
<path d="M38.6949 12.228H42.2509C42.8855 12.228 43.4595 12.3307 43.9729 12.536C44.4955 12.7413 44.9389 13.0493 45.3029 13.46C45.6762 13.8613 45.9609 14.37 46.1569 14.986C46.3622 15.5927 46.4649 16.302 46.4649 17.114C46.4649 17.926 46.3622 18.64 46.1569 19.256C45.9609 19.8627 45.6762 20.3713 45.3029 20.782C44.9389 21.1833 44.4955 21.4867 43.9729 21.692C43.4595 21.8973 42.8855 22 42.2509 22H38.6949V12.228ZM42.2509 20.362C42.9415 20.362 43.4875 20.1613 43.8889 19.76C44.2995 19.3493 44.5049 18.724 44.5049 17.884V16.344C44.5049 15.504 44.2995 14.8833 43.8889 14.482C43.4875 14.0713 42.9415 13.866 42.2509 13.866H40.5429V20.362H42.2509ZM53.6112 22C53.2192 22 52.9066 21.888 52.6732 21.664C52.4492 21.4307 52.3092 21.1227 52.2532 20.74H52.1692C52.0479 21.216 51.8006 21.5753 51.4272 21.818C51.0539 22.0513 50.5919 22.168 50.0412 22.168C49.2946 22.168 48.7206 21.972 48.3192 21.58C47.9179 21.188 47.7172 20.6653 47.7172 20.012C47.7172 19.256 47.9879 18.696 48.5292 18.332C49.0706 17.9587 49.8406 17.772 50.8392 17.772H52.0852V17.24C52.0852 16.8293 51.9779 16.512 51.7632 16.288C51.5486 16.064 51.2032 15.952 50.7272 15.952C50.3072 15.952 49.9666 16.0453 49.7052 16.232C49.4532 16.4093 49.2386 16.624 49.0612 16.876L47.9972 15.924C48.2679 15.504 48.6272 15.168 49.0752 14.916C49.5232 14.6547 50.1159 14.524 50.8532 14.524C51.8426 14.524 52.5939 14.748 53.1072 15.196C53.6206 15.644 53.8772 16.288 53.8772 17.128V20.572H54.6052V22H53.6112ZM50.6432 20.866C51.0446 20.866 51.3852 20.7773 51.6652 20.6C51.9452 20.4227 52.0852 20.1613 52.0852 19.816V18.85H50.9372C50.0039 18.85 49.5372 19.1487 49.5372 19.746V19.984C49.5372 20.2827 49.6306 20.5067 49.8172 20.656C50.0132 20.796 50.2886 20.866 50.6432 20.866ZM58.2828 22C57.6668 22 57.1955 21.8413 56.8688 21.524C56.5515 21.1973 56.3928 20.7353 56.3928 20.138V16.12H55.3148V14.692H55.8748C56.1455 14.692 56.3275 14.6313 56.4208 14.51C56.5235 14.3793 56.5748 14.188 56.5748 13.936V12.69H58.1848V14.692H59.6828V16.12H58.1848V20.572H59.5708V22H58.2828ZM66.6132 22C66.2212 22 65.9085 21.888 65.6752 21.664C65.4512 21.4307 65.3112 21.1227 65.2552 20.74H65.1712C65.0498 21.216 64.8025 21.5753 64.4292 21.818C64.0558 22.0513 63.5938 22.168 63.0432 22.168C62.2965 22.168 61.7225 21.972 61.3212 21.58C60.9198 21.188 60.7192 20.6653 60.7192 20.012C60.7192 19.256 60.9898 18.696 61.5312 18.332C62.0725 17.9587 62.8425 17.772 63.8412 17.772H65.0872V17.24C65.0872 16.8293 64.9798 16.512 64.7652 16.288C64.5505 16.064 64.2052 15.952 63.7292 15.952C63.3092 15.952 62.9685 16.0453 62.7072 16.232C62.4552 16.4093 62.2405 16.624 62.0632 16.876L60.9992 15.924C61.2698 15.504 61.6292 15.168 62.0772 14.916C62.5252 14.6547 63.1178 14.524 63.8552 14.524C64.8445 14.524 65.5958 14.748 66.1092 15.196C66.6225 15.644 66.8792 16.288 66.8792 17.128V20.572H67.6072V22H66.6132ZM63.6452 20.866C64.0465 20.866 64.3872 20.7773 64.6672 20.6C64.9472 20.4227 65.0872 20.1613 65.0872 19.816V18.85H63.9392C63.0058 18.85 62.5392 19.1487 62.5392 19.746V19.984C62.5392 20.2827 62.6325 20.5067 62.8192 20.656C63.0152 20.796 63.2905 20.866 63.6452 20.866ZM78.5261 22L77.7421 19.508H74.2701L73.5001 22H71.6241L74.9001 12.228H77.1961L80.4441 22H78.5261ZM76.0341 13.908H75.9641L74.7181 17.926H77.2941L76.0341 13.908ZM88.3663 22.616C88.3663 22.9987 88.2963 23.3347 88.1563 23.624C88.0257 23.9227 87.8063 24.17 87.4983 24.366C87.1903 24.562 86.7937 24.7113 86.3083 24.814C85.823 24.9167 85.2303 24.968 84.5303 24.968C83.9143 24.968 83.3917 24.926 82.9623 24.842C82.533 24.7673 82.1783 24.6553 81.8983 24.506C81.6277 24.366 81.4317 24.1887 81.3103 23.974C81.189 23.7593 81.1283 23.5167 81.1283 23.246C81.1283 22.8353 81.2403 22.5133 81.4643 22.28C81.6977 22.056 82.0197 21.9113 82.4303 21.846V21.692C82.1317 21.6173 81.8983 21.4727 81.7303 21.258C81.5717 21.034 81.4923 20.7727 81.4923 20.474C81.4923 20.2873 81.5297 20.124 81.6043 19.984C81.679 19.8347 81.777 19.7087 81.8983 19.606C82.029 19.5033 82.1737 19.4193 82.3323 19.354C82.491 19.2793 82.659 19.2233 82.8363 19.186V19.13C82.3883 18.9247 82.0523 18.64 81.8283 18.276C81.6137 17.912 81.5063 17.4873 81.5063 17.002C81.5063 16.2553 81.763 15.658 82.2763 15.21C82.7897 14.7527 83.541 14.524 84.5303 14.524C84.7543 14.524 84.9737 14.538 85.1883 14.566C85.4123 14.594 85.6177 14.6407 85.8043 14.706V14.468C85.8043 13.7587 86.1497 13.404 86.8403 13.404H87.9743V14.776H86.4203V14.972C86.803 15.1867 87.0877 15.4667 87.2743 15.812C87.461 16.1573 87.5543 16.554 87.5543 17.002C87.5543 17.7393 87.2977 18.332 86.7843 18.78C86.2803 19.228 85.529 19.452 84.5303 19.452C84.101 19.452 83.7277 19.41 83.4103 19.326C83.2703 19.3913 83.149 19.48 83.0463 19.592C82.9437 19.6947 82.8923 19.8253 82.8923 19.984C82.8923 20.348 83.2097 20.53 83.8443 20.53H85.8043C86.7003 20.53 87.349 20.7167 87.7503 21.09C88.161 21.454 88.3663 21.9627 88.3663 22.616ZM86.6863 22.826C86.6863 22.5927 86.593 22.4107 86.4063 22.28C86.2197 22.1493 85.8977 22.084 85.4403 22.084H82.9483C82.6963 22.2707 82.5703 22.5227 82.5703 22.84C82.5703 23.12 82.687 23.3393 82.9203 23.498C83.1537 23.6567 83.5503 23.736 84.1103 23.736H85.0063C85.5943 23.736 86.019 23.6613 86.2803 23.512C86.551 23.3627 86.6863 23.134 86.6863 22.826ZM84.5303 18.234C85.4077 18.234 85.8463 17.8607 85.8463 17.114V16.876C85.8463 16.1293 85.4077 15.756 84.5303 15.756C83.653 15.756 83.2143 16.1293 83.2143 16.876V17.114C83.2143 17.8607 83.653 18.234 84.5303 18.234ZM92.2732 22.168C91.7319 22.168 91.2465 22.0793 90.8172 21.902C90.3972 21.7153 90.0379 21.4587 89.7392 21.132C89.4499 20.796 89.2259 20.3947 89.0672 19.928C88.9085 19.452 88.8292 18.92 88.8292 18.332C88.8292 17.7533 88.9039 17.2307 89.0532 16.764C89.2119 16.2973 89.4359 15.9007 89.7252 15.574C90.0145 15.238 90.3692 14.9813 90.7892 14.804C91.2092 14.6173 91.6852 14.524 92.2172 14.524C92.7865 14.524 93.2812 14.622 93.7012 14.818C94.1212 15.014 94.4665 15.28 94.7372 15.616C95.0079 15.952 95.2085 16.344 95.3392 16.792C95.4792 17.2307 95.5492 17.702 95.5492 18.206V18.794H90.6912V18.976C90.6912 19.508 90.8405 19.9373 91.1392 20.264C91.4379 20.5813 91.8812 20.74 92.4692 20.74C92.9172 20.74 93.2812 20.6467 93.5612 20.46C93.8505 20.2733 94.1072 20.0353 94.3312 19.746L95.2972 20.824C94.9985 21.244 94.5879 21.5753 94.0652 21.818C93.5519 22.0513 92.9545 22.168 92.2732 22.168ZM92.2452 15.868C91.7692 15.868 91.3912 16.0267 91.1112 16.344C90.8312 16.6613 90.6912 17.072 90.6912 17.576V17.688H93.6872V17.562C93.6872 17.058 93.5612 16.652 93.3092 16.344C93.0665 16.0267 92.7119 15.868 92.2452 15.868ZM97.1258 22V14.692H98.9178V15.91H98.9878C99.1372 15.518 99.3705 15.1913 99.6878 14.93C100.015 14.6593 100.463 14.524 101.032 14.524C101.788 14.524 102.367 14.7713 102.768 15.266C103.169 15.7607 103.37 16.4653 103.37 17.38V22H101.578V17.562C101.578 17.0393 101.485 16.6473 101.298 16.386C101.111 16.1247 100.803 15.994 100.374 15.994C100.187 15.994 100.005 16.022 99.8278 16.078C99.6598 16.1247 99.5058 16.1993 99.3658 16.302C99.2352 16.3953 99.1278 16.5167 99.0438 16.666C98.9598 16.806 98.9178 16.974 98.9178 17.17V22H97.1258ZM107.638 22C107.022 22 106.551 21.8413 106.224 21.524C105.907 21.1973 105.748 20.7353 105.748 20.138V16.12H104.67V14.692H105.23C105.501 14.692 105.683 14.6313 105.776 14.51C105.879 14.3793 105.93 14.188 105.93 13.936V12.69H107.54V14.692H109.038V16.12H107.54V20.572H108.926V22H107.638Z" fill="white"/>
<path d="M13.8684 16.459H11.0721C10.686 16.459 10.373 16.7642 10.373 17.1407V22.4582C10.373 22.8347 10.686 23.1399 11.0721 23.1399H13.8684C14.2545 23.1399 14.5675 22.8347 14.5675 22.4582V17.1407C14.5675 16.7642 14.2545 16.459 13.8684 16.459ZM13.1693 21.7764H11.7712V17.8224H13.1693V21.7764Z" fill="white"/>
<path d="M24.4954 11.0039H21.6991C21.313 11.0039 21 11.3091 21 11.6856V22.4569C21 22.8334 21.313 23.1386 21.6991 23.1386H24.4954C24.8815 23.1386 25.1944 22.8334 25.1944 22.4569V11.6856C25.1944 11.3091 24.8815 11.0039 24.4954 11.0039ZM23.7963 21.7751H22.3981V12.3674H23.7963V21.7751Z" fill="white"/>
<path d="M19.1848 13.7305H16.3885C16.0024 13.7305 15.6895 14.0357 15.6895 14.4122V22.4565C15.6895 22.8331 16.0024 23.1383 16.3885 23.1383H19.1848C19.5709 23.1383 19.8839 22.8331 19.8839 22.4565V14.4122C19.8839 14.0357 19.5709 13.7305 19.1848 13.7305ZM18.4857 21.7748H17.0876V15.0939H18.4857V21.7748Z" fill="white"/>
<path d="M0 17.2964C0 7.74386 7.74386 0 17.2964 0V0C26.8489 0 34.5928 7.74386 34.5928 17.2964V18.2064C34.5928 23.0895 32.6312 27.768 29.1486 31.191L18.6983 41.4621C17.9202 42.2269 16.6726 42.2269 15.8945 41.4621L5.44425 31.191C1.96162 27.768 0 23.0895 0 18.2063V17.2964Z" fill="#217DD1"/>
<path d="M0 17.2964C0 7.74386 7.74386 0 17.2964 0V0C26.8489 0 34.5928 7.74386 34.5928 17.2964V18.2064C34.5928 23.0895 32.6312 27.768 29.1486 31.191L18.6983 41.4621C17.9202 42.2269 16.6726 42.2269 15.8945 41.4621L5.44425 31.191C1.96162 27.768 0 23.0895 0 18.2063V17.2964Z" fill="black" fill-opacity="0.2"/>
<ellipse cx="17.2947" cy="18" rx="15.2615" ry="15" fill="#217DD1"/>
<path d="M12.2479 17.459H9.36832C8.97073 17.459 8.64844 17.7642 8.64844 18.1407V23.4582C8.64844 23.8347 8.97073 24.1399 9.36832 24.1399H12.2479C12.6454 24.1399 12.9677 23.8347 12.9677 23.4582V18.1407C12.9677 17.7642 12.6454 17.459 12.2479 17.459ZM11.528 22.7764H10.0882V18.8224H11.528V22.7764Z" fill="white"/>
<path d="M23.1912 12.0039H20.3117C19.9141 12.0039 19.5918 12.3091 19.5918 12.6856V23.4569C19.5918 23.8334 19.9141 24.1386 20.3117 24.1386H23.1912C23.5888 24.1386 23.9111 23.8334 23.9111 23.4569V12.6856C23.9111 12.3091 23.5888 12.0039 23.1912 12.0039ZM22.4713 22.7751H21.0316V13.3674H22.4713V22.7751Z" fill="white"/>
<path d="M17.7225 14.7305H14.8429C14.4453 14.7305 14.123 15.0357 14.123 15.4122V23.4565C14.123 23.8331 14.4453 24.1383 14.8429 24.1383H17.7225C18.1201 24.1383 18.4423 23.8331 18.4423 23.4565V15.4122C18.4423 15.0357 18.1201 14.7305 17.7225 14.7305ZM17.0026 22.7748H15.5628V16.0939H17.0026V22.7748Z" fill="white"/>
</svg>
