<svg width="165" height="43" viewBox="0 0 165 43" fill="none" xmlns="http://www.w3.org/2000/svg">
<path d="M1.97461 16.5C1.97461 7.3873 9.36191 0 18.4746 0H130.994C136.049 0 140.826 2.31773 143.955 6.28896V6.28896C152.481 17.1118 144.772 33 130.994 33H18.4746C9.36192 33 1.97461 25.6127 1.97461 16.5V16.5Z" fill="#7921D1"/>
<path d="M1.97461 16.5C1.97461 7.3873 9.36191 0 18.4746 0H130.994C136.049 0 140.826 2.31773 143.955 6.28896V6.28896C152.481 17.1118 144.772 33 130.994 33H18.4746C9.36192 33 1.97461 25.6127 1.97461 16.5V16.5Z" fill="black" fill-opacity="0.2"/>
<path d="M39.148 22V12.228H45.434V13.866H40.996V16.232H44.86V17.87H40.996V22H39.148ZM48.0121 13.628C47.6387 13.628 47.3681 13.544 47.2001 13.376C47.0414 13.208 46.9621 12.9933 46.9621 12.732V12.452C46.9621 12.1907 47.0414 11.976 47.2001 11.808C47.3681 11.64 47.6387 11.556 48.0121 11.556C48.3761 11.556 48.6421 11.64 48.8101 11.808C48.9781 11.976 49.0621 12.1907 49.0621 12.452V12.732C49.0621 12.9933 48.9781 13.208 48.8101 13.376C48.6421 13.544 48.3761 13.628 48.0121 13.628ZM47.1161 14.692H48.9081V22H47.1161V14.692ZM50.9852 22V14.692H52.7772V15.91H52.8472C52.9966 15.518 53.2299 15.1913 53.5472 14.93C53.8739 14.6593 54.3219 14.524 54.8912 14.524C55.6472 14.524 56.2259 14.7713 56.6272 15.266C57.0286 15.7607 57.2292 16.4653 57.2292 17.38V22H55.4372V17.562C55.4372 17.0393 55.3439 16.6473 55.1572 16.386C54.9706 16.1247 54.6626 15.994 54.2332 15.994C54.0466 15.994 53.8646 16.022 53.6872 16.078C53.5192 16.1247 53.3652 16.1993 53.2252 16.302C53.0946 16.3953 52.9872 16.5167 52.9032 16.666C52.8192 16.806 52.7772 16.974 52.7772 17.17V22H50.9852ZM64.5917 22C64.1997 22 63.887 21.888 63.6537 21.664C63.4297 21.4307 63.2897 21.1227 63.2337 20.74H63.1497C63.0284 21.216 62.781 21.5753 62.4077 21.818C62.0344 22.0513 61.5724 22.168 61.0217 22.168C60.275 22.168 59.701 21.972 59.2997 21.58C58.8984 21.188 58.6977 20.6653 58.6977 20.012C58.6977 19.256 58.9684 18.696 59.5097 18.332C60.051 17.9587 60.821 17.772 61.8197 17.772H63.0657V17.24C63.0657 16.8293 62.9584 16.512 62.7437 16.288C62.529 16.064 62.1837 15.952 61.7077 15.952C61.2877 15.952 60.947 16.0453 60.6857 16.232C60.4337 16.4093 60.219 16.624 60.0417 16.876L58.9777 15.924C59.2484 15.504 59.6077 15.168 60.0557 14.916C60.5037 14.6547 61.0964 14.524 61.8337 14.524C62.823 14.524 63.5744 14.748 64.0877 15.196C64.601 15.644 64.8577 16.288 64.8577 17.128V20.572H65.5857V22H64.5917ZM61.6237 20.866C62.025 20.866 62.3657 20.7773 62.6457 20.6C62.9257 20.4227 63.0657 20.1613 63.0657 19.816V18.85H61.9177C60.9844 18.85 60.5177 19.1487 60.5177 19.746V19.984C60.5177 20.2827 60.611 20.5067 60.7977 20.656C60.9937 20.796 61.269 20.866 61.6237 20.866ZM67.036 22V14.692H68.828V15.91H68.898C69.0473 15.518 69.2807 15.1913 69.598 14.93C69.9247 14.6593 70.3727 14.524 70.942 14.524C71.698 14.524 72.2767 14.7713 72.678 15.266C73.0793 15.7607 73.28 16.4653 73.28 17.38V22H71.488V17.562C71.488 17.0393 71.3947 16.6473 71.208 16.386C71.0213 16.1247 70.7133 15.994 70.284 15.994C70.0973 15.994 69.9153 16.022 69.738 16.078C69.57 16.1247 69.416 16.1993 69.276 16.302C69.1453 16.3953 69.038 16.5167 68.954 16.666C68.87 16.806 68.828 16.974 68.828 17.17V22H67.036ZM78.1505 22.168C77.6091 22.168 77.1285 22.0793 76.7085 21.902C76.2885 21.7247 75.9338 21.468 75.6445 21.132C75.3645 20.796 75.1498 20.3947 75.0005 19.928C74.8511 19.452 74.7765 18.92 74.7765 18.332C74.7765 17.744 74.8511 17.2167 75.0005 16.75C75.1498 16.2833 75.3645 15.8867 75.6445 15.56C75.9338 15.224 76.2885 14.9673 76.7085 14.79C77.1285 14.6127 77.6091 14.524 78.1505 14.524C78.8878 14.524 79.4945 14.6873 79.9705 15.014C80.4558 15.3407 80.8058 15.7933 81.0205 16.372L79.5505 17.03C79.4665 16.722 79.3078 16.47 79.0745 16.274C78.8505 16.0687 78.5425 15.966 78.1505 15.966C77.6465 15.966 77.2685 16.1247 77.0165 16.442C76.7738 16.7593 76.6525 17.1747 76.6525 17.688V19.018C76.6525 19.5313 76.7738 19.9467 77.0165 20.264C77.2685 20.572 77.6465 20.726 78.1505 20.726C78.5798 20.726 78.9111 20.6187 79.1445 20.404C79.3778 20.18 79.5598 19.9047 79.6905 19.578L81.0625 20.236C80.8198 20.88 80.4511 21.3653 79.9565 21.692C79.4618 22.0093 78.8598 22.168 78.1505 22.168ZM83.3402 13.628C82.9669 13.628 82.6962 13.544 82.5282 13.376C82.3695 13.208 82.2902 12.9933 82.2902 12.732V12.452C82.2902 12.1907 82.3695 11.976 82.5282 11.808C82.6962 11.64 82.9669 11.556 83.3402 11.556C83.7042 11.556 83.9702 11.64 84.1382 11.808C84.3062 11.976 84.3902 12.1907 84.3902 12.452V12.732C84.3902 12.9933 84.3062 13.208 84.1382 13.376C83.9702 13.544 83.7042 13.628 83.3402 13.628ZM82.4442 14.692H84.2362V22H82.4442V14.692ZM91.6893 22C91.2973 22 90.9847 21.888 90.7513 21.664C90.5273 21.4307 90.3873 21.1227 90.3313 20.74H90.2473C90.126 21.216 89.8787 21.5753 89.5053 21.818C89.132 22.0513 88.67 22.168 88.1193 22.168C87.3727 22.168 86.7987 21.972 86.3973 21.58C85.996 21.188 85.7953 20.6653 85.7953 20.012C85.7953 19.256 86.066 18.696 86.6073 18.332C87.1487 17.9587 87.9187 17.772 88.9173 17.772H90.1633V17.24C90.1633 16.8293 90.056 16.512 89.8413 16.288C89.6267 16.064 89.2813 15.952 88.8053 15.952C88.3853 15.952 88.0447 16.0453 87.7833 16.232C87.5313 16.4093 87.3167 16.624 87.1393 16.876L86.0753 15.924C86.346 15.504 86.7053 15.168 87.1533 14.916C87.6013 14.6547 88.194 14.524 88.9313 14.524C89.9207 14.524 90.672 14.748 91.1853 15.196C91.6987 15.644 91.9553 16.288 91.9553 17.128V20.572H92.6833V22H91.6893ZM88.7213 20.866C89.1227 20.866 89.4633 20.7773 89.7433 20.6C90.0233 20.4227 90.1633 20.1613 90.1633 19.816V18.85H89.0153C88.082 18.85 87.6153 19.1487 87.6153 19.746V19.984C87.6153 20.2827 87.7087 20.5067 87.8953 20.656C88.0913 20.796 88.3667 20.866 88.7213 20.866ZM95.9257 22C95.3097 22 94.857 21.846 94.5677 21.538C94.2783 21.23 94.1337 20.796 94.1337 20.236V11.64H95.9257V20.572H96.8917V22H95.9257ZM107.717 22L106.933 19.508H103.461L102.691 22H100.815L104.091 12.228H106.387L109.635 22H107.717ZM105.225 13.908H105.155L103.909 17.926H106.485L105.225 13.908ZM117.558 22.616C117.558 22.9987 117.488 23.3347 117.348 23.624C117.217 23.9227 116.998 24.17 116.69 24.366C116.382 24.562 115.985 24.7113 115.5 24.814C115.014 24.9167 114.422 24.968 113.722 24.968C113.106 24.968 112.583 24.926 112.154 24.842C111.724 24.7673 111.37 24.6553 111.09 24.506C110.819 24.366 110.623 24.1887 110.502 23.974C110.38 23.7593 110.32 23.5167 110.32 23.246C110.32 22.8353 110.432 22.5133 110.656 22.28C110.889 22.056 111.211 21.9113 111.622 21.846V21.692C111.323 21.6173 111.09 21.4727 110.922 21.258C110.763 21.034 110.684 20.7727 110.684 20.474C110.684 20.2873 110.721 20.124 110.796 19.984C110.87 19.8347 110.968 19.7087 111.09 19.606C111.22 19.5033 111.365 19.4193 111.524 19.354C111.682 19.2793 111.85 19.2233 112.028 19.186V19.13C111.58 18.9247 111.244 18.64 111.02 18.276C110.805 17.912 110.698 17.4873 110.698 17.002C110.698 16.2553 110.954 15.658 111.468 15.21C111.981 14.7527 112.732 14.524 113.722 14.524C113.946 14.524 114.165 14.538 114.38 14.566C114.604 14.594 114.809 14.6407 114.996 14.706V14.468C114.996 13.7587 115.341 13.404 116.032 13.404H117.166V14.776H115.612V14.972C115.994 15.1867 116.279 15.4667 116.466 15.812C116.652 16.1573 116.746 16.554 116.746 17.002C116.746 17.7393 116.489 18.332 115.976 18.78C115.472 19.228 114.72 19.452 113.722 19.452C113.292 19.452 112.919 19.41 112.602 19.326C112.462 19.3913 112.34 19.48 112.238 19.592C112.135 19.6947 112.084 19.8253 112.084 19.984C112.084 20.348 112.401 20.53 113.036 20.53H114.996C115.892 20.53 116.54 20.7167 116.942 21.09C117.352 21.454 117.558 21.9627 117.558 22.616ZM115.878 22.826C115.878 22.5927 115.784 22.4107 115.598 22.28C115.411 22.1493 115.089 22.084 114.632 22.084H112.14C111.888 22.2707 111.762 22.5227 111.762 22.84C111.762 23.12 111.878 23.3393 112.112 23.498C112.345 23.6567 112.742 23.736 113.302 23.736H114.198C114.786 23.736 115.21 23.6613 115.472 23.512C115.742 23.3627 115.878 23.134 115.878 22.826ZM113.722 18.234C114.599 18.234 115.038 17.8607 115.038 17.114V16.876C115.038 16.1293 114.599 15.756 113.722 15.756C112.844 15.756 112.406 16.1293 112.406 16.876V17.114C112.406 17.8607 112.844 18.234 113.722 18.234ZM121.465 22.168C120.923 22.168 120.438 22.0793 120.009 21.902C119.589 21.7153 119.229 21.4587 118.931 21.132C118.641 20.796 118.417 20.3947 118.259 19.928C118.1 19.452 118.021 18.92 118.021 18.332C118.021 17.7533 118.095 17.2307 118.245 16.764C118.403 16.2973 118.627 15.9007 118.917 15.574C119.206 15.238 119.561 14.9813 119.981 14.804C120.401 14.6173 120.877 14.524 121.409 14.524C121.978 14.524 122.473 14.622 122.893 14.818C123.313 15.014 123.658 15.28 123.929 15.616C124.199 15.952 124.4 16.344 124.531 16.792C124.671 17.2307 124.741 17.702 124.741 18.206V18.794H119.883V18.976C119.883 19.508 120.032 19.9373 120.331 20.264C120.629 20.5813 121.073 20.74 121.661 20.74C122.109 20.74 122.473 20.6467 122.753 20.46C123.042 20.2733 123.299 20.0353 123.523 19.746L124.489 20.824C124.19 21.244 123.779 21.5753 123.257 21.818C122.743 22.0513 122.146 22.168 121.465 22.168ZM121.437 15.868C120.961 15.868 120.583 16.0267 120.303 16.344C120.023 16.6613 119.883 17.072 119.883 17.576V17.688H122.879V17.562C122.879 17.058 122.753 16.652 122.501 16.344C122.258 16.0267 121.903 15.868 121.437 15.868ZM126.317 22V14.692H128.109V15.91H128.179C128.329 15.518 128.562 15.1913 128.879 14.93C129.206 14.6593 129.654 14.524 130.223 14.524C130.979 14.524 131.558 14.7713 131.959 15.266C132.361 15.7607 132.561 16.4653 132.561 17.38V22H130.769V17.562C130.769 17.0393 130.676 16.6473 130.489 16.386C130.303 16.1247 129.995 15.994 129.565 15.994C129.379 15.994 129.197 16.022 129.019 16.078C128.851 16.1247 128.697 16.1993 128.557 16.302C128.427 16.3953 128.319 16.5167 128.235 16.666C128.151 16.806 128.109 16.974 128.109 17.17V22H126.317ZM136.83 22C136.214 22 135.742 21.8413 135.416 21.524C135.098 21.1973 134.94 20.7353 134.94 20.138V16.12H133.862V14.692H134.422C134.692 14.692 134.874 14.6313 134.968 14.51C135.07 14.3793 135.122 14.188 135.122 13.936V12.69H136.732V14.692H138.23V16.12H136.732V20.572H138.118V22H136.83Z" fill="white"/>
<path d="M13.8684 16.459H11.0721C10.686 16.459 10.373 16.7642 10.373 17.1407V22.4582C10.373 22.8347 10.686 23.1399 11.0721 23.1399H13.8684C14.2545 23.1399 14.5675 22.8347 14.5675 22.4582V17.1407C14.5675 16.7642 14.2545 16.459 13.8684 16.459ZM13.1693 21.7764H11.7712V17.8224H13.1693V21.7764Z" fill="white"/>
<path d="M24.4954 11.0039H21.6991C21.313 11.0039 21 11.3091 21 11.6856V22.4569C21 22.8334 21.313 23.1386 21.6991 23.1386H24.4954C24.8815 23.1386 25.1944 22.8334 25.1944 22.4569V11.6856C25.1944 11.3091 24.8815 11.0039 24.4954 11.0039ZM23.7963 21.7751H22.3981V12.3674H23.7963V21.7751Z" fill="white"/>
<path d="M19.1848 13.7305H16.3885C16.0024 13.7305 15.6895 14.0357 15.6895 14.4122V22.4565C15.6895 22.8331 16.0024 23.1383 16.3885 23.1383H19.1848C19.5709 23.1383 19.8839 22.8331 19.8839 22.4565V14.4122C19.8839 14.0357 19.5709 13.7305 19.1848 13.7305ZM18.4857 21.7748H17.0876V15.0939H18.4857V21.7748Z" fill="white"/>
<path d="M0 17.2964C0 7.74386 7.74386 0 17.2964 0V0C26.8489 0 34.5928 7.74386 34.5928 17.2964V18.2064C34.5928 23.0895 32.6312 27.768 29.1486 31.191L18.6983 41.4621C17.9202 42.2269 16.6726 42.2269 15.8945 41.4621L5.44425 31.191C1.96162 27.768 0 23.0895 0 18.2063V17.2964Z" fill="#7921D1"/>
<path d="M0 17.2964C0 7.74386 7.74386 0 17.2964 0V0C26.8489 0 34.5928 7.74386 34.5928 17.2964V18.2064C34.5928 23.0895 32.6312 27.768 29.1486 31.191L18.6983 41.4621C17.9202 42.2269 16.6726 42.2269 15.8945 41.4621L5.44425 31.191C1.96162 27.768 0 23.0895 0 18.2063V17.2964Z" fill="black" fill-opacity="0.2"/>
<ellipse cx="17.2947" cy="18" rx="15.2615" ry="15" fill="#7921D1"/>
<path fill-rule="evenodd" clip-rule="evenodd" d="M13.2198 13.9651C14.4367 13.9471 18.6522 13.7614 22.1046 12.1339C22.9777 11.7222 24 12.3381 24 13.2827V21.7322C24 22.2019 23.7336 22.6329 23.3048 22.8569C21.3559 23.8751 18.9403 24.2396 16.6991 24.2396C12.0516 24.2396 9.40804 22.7013 9.29446 22.6338C9.15458 22.5507 9.05306 22.4148 9.01633 22.257C9.01518 22.2521 9.01411 22.2485 9.01311 22.2452L9.01311 22.2452L9.01245 22.243C8.99946 22.1992 8.99947 22.1516 9.0003 19.2559C9.00059 18.2786 9.00096 16.977 9.00096 15.2418C9.00096 14.5378 9.5931 13.9651 10.3209 13.9651H13.2198ZM10.3209 15.1566C10.2724 15.1566 10.2329 15.1948 10.2329 15.2418V21.5311C10.5526 21.5318 10.8521 21.5331 11.1352 21.5343C13.2671 21.5432 14.4735 21.5482 16.4137 21.2811C18.8976 20.9389 21.0853 20.2777 22.768 19.3629V13.2827C22.768 13.2197 22.7014 13.1782 22.6444 13.2049C19.8443 14.525 15.9157 15.2054 12.7786 15.1574C12.419 15.1571 11.7179 15.1566 10.3209 15.1566ZM13.2462 22.7212C16.1846 23.2973 20.0859 23.1843 22.7193 21.8086C22.7493 21.7929 22.768 21.7636 22.768 21.7321V20.7118C21.047 21.5448 18.9736 22.1319 16.5873 22.4607C15.1512 22.6585 14.4164 22.6826 13.4348 22.7149L13.2462 22.7212ZM18.6814 18.1937C18.6814 19.3565 17.7033 20.3025 16.501 20.3025C15.2987 20.3025 14.3205 19.3565 14.3206 18.1937C14.3206 17.0309 15.2987 16.0848 16.501 16.0848C17.7032 16.0848 18.6814 17.0309 18.6814 18.1937ZM17.4494 18.1937C17.4494 17.6879 17.0239 17.2764 16.501 17.2764C15.978 17.2764 15.5526 17.6879 15.5526 18.1937C15.5526 18.6995 15.978 19.111 16.501 19.111C17.0239 19.111 17.4494 18.6995 17.4494 18.1937ZM20.5674 16.0662C20.6742 16.0662 20.6769 16.0653 21.1892 15.8986L21.1895 15.8986C21.3222 15.8554 21.4892 15.8011 21.701 15.7328C22.0237 15.6288 22.1981 15.2914 22.0906 14.9792C21.983 14.6671 21.6341 14.4984 21.3114 14.6024L20.3727 14.905C20.05 15.0091 19.8756 15.3465 19.9831 15.6586C20.0692 15.9083 20.3095 16.0662 20.5674 16.0662ZM12.4314 20.9081H11.4928C11.1526 20.9081 10.8768 20.6414 10.8768 20.3124C10.8768 19.9833 11.1526 19.7166 11.4928 19.7166H12.4314C12.7716 19.7166 13.0474 19.9833 13.0474 20.3124C13.0474 20.6414 12.7716 20.9081 12.4314 20.9081Z" fill="white"/>
</svg>
