<svg width="165" height="43" viewBox="0 0 165 43" fill="none" xmlns="http://www.w3.org/2000/svg">
<path d="M1.97461 16.5C1.97461 7.3873 9.36191 0 18.4746 0H132.598C137.877 0 142.837 2.52604 145.942 6.79555V6.79555C153.873 17.7016 146.083 33 132.597 33H18.4746C9.36192 33 1.97461 25.6127 1.97461 16.5V16.5Z" fill="#99D121"/>
<path d="M1.97461 16.5C1.97461 7.3873 9.36191 0 18.4746 0H132.598C137.877 0 142.837 2.52604 145.942 6.79555V6.79555C153.873 17.7016 146.083 33 132.597 33H18.4746C9.36192 33 1.97461 25.6127 1.97461 16.5V16.5Z" fill="black" fill-opacity="0.2"/>
<path d="M39.148 22V12.228H45.434V13.866H40.996V16.232H44.86V17.87H40.996V22H39.148ZM51.1286 20.782H51.0586C50.9933 20.9687 50.9046 21.146 50.7926 21.314C50.6899 21.4727 50.5546 21.6173 50.3866 21.748C50.2279 21.8787 50.0319 21.9813 49.7986 22.056C49.5746 22.1307 49.3133 22.168 49.0146 22.168C48.2586 22.168 47.6799 21.9207 47.2786 21.426C46.8773 20.9313 46.6766 20.2267 46.6766 19.312V14.692H48.4686V19.13C48.4686 19.634 48.5666 20.0213 48.7626 20.292C48.9586 20.5533 49.2713 20.684 49.7006 20.684C49.8779 20.684 50.0506 20.6607 50.2186 20.614C50.3959 20.5673 50.5499 20.4973 50.6806 20.404C50.8113 20.3013 50.9186 20.18 51.0026 20.04C51.0866 19.8907 51.1286 19.718 51.1286 19.522V14.692H52.9206V22H51.1286V20.782ZM54.9911 22V14.692H56.7831V16.204H56.8531C56.8997 16.008 56.9697 15.8213 57.0631 15.644C57.1657 15.4573 57.2964 15.294 57.4551 15.154C57.6137 15.014 57.8004 14.902 58.0151 14.818C58.2391 14.734 58.4957 14.692 58.7851 14.692H59.1771V16.386H58.6171C58.0104 16.386 57.5531 16.4747 57.2451 16.652C56.9371 16.8293 56.7831 17.1187 56.7831 17.52V22H54.9911ZM60.4872 22V14.692H62.2792V15.91H62.3492C62.4985 15.518 62.7318 15.1913 63.0492 14.93C63.3758 14.6593 63.8238 14.524 64.3932 14.524C65.1492 14.524 65.7278 14.7713 66.1292 15.266C66.5305 15.7607 66.7312 16.4653 66.7312 17.38V22H64.9392V17.562C64.9392 17.0393 64.8458 16.6473 64.6592 16.386C64.4725 16.1247 64.1645 15.994 63.7352 15.994C63.5485 15.994 63.3665 16.022 63.1892 16.078C63.0212 16.1247 62.8672 16.1993 62.7272 16.302C62.5965 16.3953 62.4892 16.5167 62.4052 16.666C62.3212 16.806 62.2792 16.974 62.2792 17.17V22H60.4872ZM69.6136 13.628C69.2403 13.628 68.9696 13.544 68.8016 13.376C68.643 13.208 68.5636 12.9933 68.5636 12.732V12.452C68.5636 12.1907 68.643 11.976 68.8016 11.808C68.9696 11.64 69.2403 11.556 69.6136 11.556C69.9776 11.556 70.2436 11.64 70.4116 11.808C70.5796 11.976 70.6636 12.1907 70.6636 12.452V12.732C70.6636 12.9933 70.5796 13.208 70.4116 13.376C70.2436 13.544 69.9776 13.628 69.6136 13.628ZM68.7176 14.692H70.5096V22H68.7176V14.692ZM74.8688 22C74.2528 22 73.7814 21.8413 73.4548 21.524C73.1374 21.1973 72.9788 20.7353 72.9788 20.138V16.12H71.9008V14.692H72.4608C72.7314 14.692 72.9134 14.6313 73.0068 14.51C73.1094 14.3793 73.1608 14.188 73.1608 13.936V12.69H74.7708V14.692H76.2688V16.12H74.7708V20.572H76.1568V22H74.8688ZM82.1911 20.782H82.1211C82.0558 20.9687 81.9671 21.146 81.8551 21.314C81.7524 21.4727 81.6171 21.6173 81.4491 21.748C81.2904 21.8787 81.0944 21.9813 80.8611 22.056C80.6371 22.1307 80.3758 22.168 80.0771 22.168C79.3211 22.168 78.7424 21.9207 78.3411 21.426C77.9398 20.9313 77.7391 20.2267 77.7391 19.312V14.692H79.5311V19.13C79.5311 19.634 79.6291 20.0213 79.8251 20.292C80.0211 20.5533 80.3338 20.684 80.7631 20.684C80.9404 20.684 81.1131 20.6607 81.2811 20.614C81.4584 20.5673 81.6124 20.4973 81.7431 20.404C81.8738 20.3013 81.9811 20.18 82.0651 20.04C82.1491 19.8907 82.1911 19.718 82.1911 19.522V14.692H83.9831V22H82.1911V20.782ZM86.0536 22V14.692H87.8456V16.204H87.9156C87.9622 16.008 88.0322 15.8213 88.1256 15.644C88.2282 15.4573 88.3589 15.294 88.5176 15.154C88.6762 15.014 88.8629 14.902 89.0776 14.818C89.3016 14.734 89.5582 14.692 89.8476 14.692H90.2396V16.386H89.6796C89.0729 16.386 88.6156 16.4747 88.3076 16.652C87.9996 16.8293 87.8456 17.1187 87.8456 17.52V22H86.0536ZM94.4353 22.168C93.894 22.168 93.4086 22.0793 92.9793 21.902C92.5593 21.7153 92.2 21.4587 91.9013 21.132C91.612 20.796 91.388 20.3947 91.2293 19.928C91.0706 19.452 90.9913 18.92 90.9913 18.332C90.9913 17.7533 91.066 17.2307 91.2153 16.764C91.374 16.2973 91.598 15.9007 91.8873 15.574C92.1766 15.238 92.5313 14.9813 92.9513 14.804C93.3713 14.6173 93.8473 14.524 94.3793 14.524C94.9486 14.524 95.4433 14.622 95.8633 14.818C96.2833 15.014 96.6286 15.28 96.8993 15.616C97.17 15.952 97.3706 16.344 97.5013 16.792C97.6413 17.2307 97.7113 17.702 97.7113 18.206V18.794H92.8533V18.976C92.8533 19.508 93.0026 19.9373 93.3013 20.264C93.6 20.5813 94.0433 20.74 94.6313 20.74C95.0793 20.74 95.4433 20.6467 95.7233 20.46C96.0126 20.2733 96.2693 20.0353 96.4933 19.746L97.4593 20.824C97.1606 21.244 96.75 21.5753 96.2273 21.818C95.714 22.0513 95.1166 22.168 94.4353 22.168ZM94.4073 15.868C93.9313 15.868 93.5533 16.0267 93.2733 16.344C92.9933 16.6613 92.8533 17.072 92.8533 17.576V17.688H95.8493V17.562C95.8493 17.058 95.7233 16.652 95.4713 16.344C95.2286 16.0267 94.874 15.868 94.4073 15.868ZM108.757 22L107.973 19.508H104.501L103.731 22H101.855L105.131 12.228H107.427L110.675 22H108.757ZM106.265 13.908H106.195L104.949 17.926H107.525L106.265 13.908ZM118.597 22.616C118.597 22.9987 118.527 23.3347 118.387 23.624C118.256 23.9227 118.037 24.17 117.729 24.366C117.421 24.562 117.024 24.7113 116.539 24.814C116.053 24.9167 115.461 24.968 114.761 24.968C114.145 24.968 113.622 24.926 113.193 24.842C112.763 24.7673 112.409 24.6553 112.129 24.506C111.858 24.366 111.662 24.1887 111.541 23.974C111.419 23.7593 111.359 23.5167 111.359 23.246C111.359 22.8353 111.471 22.5133 111.695 22.28C111.928 22.056 112.25 21.9113 112.661 21.846V21.692C112.362 21.6173 112.129 21.4727 111.961 21.258C111.802 21.034 111.723 20.7727 111.723 20.474C111.723 20.2873 111.76 20.124 111.835 19.984C111.909 19.8347 112.007 19.7087 112.129 19.606C112.259 19.5033 112.404 19.4193 112.563 19.354C112.721 19.2793 112.889 19.2233 113.067 19.186V19.13C112.619 18.9247 112.283 18.64 112.059 18.276C111.844 17.912 111.737 17.4873 111.737 17.002C111.737 16.2553 111.993 15.658 112.507 15.21C113.02 14.7527 113.771 14.524 114.761 14.524C114.985 14.524 115.204 14.538 115.419 14.566C115.643 14.594 115.848 14.6407 116.035 14.706V14.468C116.035 13.7587 116.38 13.404 117.071 13.404H118.205V14.776H116.651V14.972C117.033 15.1867 117.318 15.4667 117.505 15.812C117.691 16.1573 117.785 16.554 117.785 17.002C117.785 17.7393 117.528 18.332 117.015 18.78C116.511 19.228 115.759 19.452 114.761 19.452C114.331 19.452 113.958 19.41 113.641 19.326C113.501 19.3913 113.379 19.48 113.277 19.592C113.174 19.6947 113.123 19.8253 113.123 19.984C113.123 20.348 113.44 20.53 114.075 20.53H116.035C116.931 20.53 117.579 20.7167 117.981 21.09C118.391 21.454 118.597 21.9627 118.597 22.616ZM116.917 22.826C116.917 22.5927 116.823 22.4107 116.637 22.28C116.45 22.1493 116.128 22.084 115.671 22.084H113.179C112.927 22.2707 112.801 22.5227 112.801 22.84C112.801 23.12 112.917 23.3393 113.151 23.498C113.384 23.6567 113.781 23.736 114.341 23.736H115.237C115.825 23.736 116.249 23.6613 116.511 23.512C116.781 23.3627 116.917 23.134 116.917 22.826ZM114.761 18.234C115.638 18.234 116.077 17.8607 116.077 17.114V16.876C116.077 16.1293 115.638 15.756 114.761 15.756C113.883 15.756 113.445 16.1293 113.445 16.876V17.114C113.445 17.8607 113.883 18.234 114.761 18.234ZM122.504 22.168C121.962 22.168 121.477 22.0793 121.048 21.902C120.628 21.7153 120.268 21.4587 119.97 21.132C119.68 20.796 119.456 20.3947 119.298 19.928C119.139 19.452 119.06 18.92 119.06 18.332C119.06 17.7533 119.134 17.2307 119.284 16.764C119.442 16.2973 119.666 15.9007 119.956 15.574C120.245 15.238 120.6 14.9813 121.02 14.804C121.44 14.6173 121.916 14.524 122.448 14.524C123.017 14.524 123.512 14.622 123.932 14.818C124.352 15.014 124.697 15.28 124.968 15.616C125.238 15.952 125.439 16.344 125.57 16.792C125.71 17.2307 125.78 17.702 125.78 18.206V18.794H120.922V18.976C120.922 19.508 121.071 19.9373 121.37 20.264C121.668 20.5813 122.112 20.74 122.7 20.74C123.148 20.74 123.512 20.6467 123.792 20.46C124.081 20.2733 124.338 20.0353 124.562 19.746L125.528 20.824C125.229 21.244 124.818 21.5753 124.296 21.818C123.782 22.0513 123.185 22.168 122.504 22.168ZM122.476 15.868C122 15.868 121.622 16.0267 121.342 16.344C121.062 16.6613 120.922 17.072 120.922 17.576V17.688H123.918V17.562C123.918 17.058 123.792 16.652 123.54 16.344C123.297 16.0267 122.942 15.868 122.476 15.868ZM127.356 22V14.692H129.148V15.91H129.218C129.368 15.518 129.601 15.1913 129.918 14.93C130.245 14.6593 130.693 14.524 131.262 14.524C132.018 14.524 132.597 14.7713 132.998 15.266C133.4 15.7607 133.6 16.4653 133.6 17.38V22H131.808V17.562C131.808 17.0393 131.715 16.6473 131.528 16.386C131.342 16.1247 131.034 15.994 130.604 15.994C130.418 15.994 130.236 16.022 130.058 16.078C129.89 16.1247 129.736 16.1993 129.596 16.302C129.466 16.3953 129.358 16.5167 129.274 16.666C129.19 16.806 129.148 16.974 129.148 17.17V22H127.356ZM137.869 22C137.253 22 136.781 21.8413 136.455 21.524C136.137 21.1973 135.979 20.7353 135.979 20.138V16.12H134.901V14.692H135.461C135.731 14.692 135.913 14.6313 136.007 14.51C136.109 14.3793 136.161 14.188 136.161 13.936V12.69H137.771V14.692H139.269V16.12H137.771V20.572H139.157V22H137.869Z" fill="white"/>
<path d="M13.8684 16.459H11.0721C10.686 16.459 10.373 16.7642 10.373 17.1407V22.4582C10.373 22.8347 10.686 23.1399 11.0721 23.1399H13.8684C14.2545 23.1399 14.5675 22.8347 14.5675 22.4582V17.1407C14.5675 16.7642 14.2545 16.459 13.8684 16.459ZM13.1693 21.7764H11.7712V17.8224H13.1693V21.7764Z" fill="white"/>
<path d="M24.4954 11.0039H21.6991C21.313 11.0039 21 11.3091 21 11.6856V22.4569C21 22.8334 21.313 23.1386 21.6991 23.1386H24.4954C24.8815 23.1386 25.1944 22.8334 25.1944 22.4569V11.6856C25.1944 11.3091 24.8815 11.0039 24.4954 11.0039ZM23.7963 21.7751H22.3981V12.3674H23.7963V21.7751Z" fill="white"/>
<path d="M19.1848 13.7305H16.3885C16.0024 13.7305 15.6895 14.0357 15.6895 14.4122V22.4565C15.6895 22.8331 16.0024 23.1383 16.3885 23.1383H19.1848C19.5709 23.1383 19.8839 22.8331 19.8839 22.4565V14.4122C19.8839 14.0357 19.5709 13.7305 19.1848 13.7305ZM18.4857 21.7748H17.0876V15.0939H18.4857V21.7748Z" fill="white"/>
<path d="M0 17.2964C0 7.74386 7.74386 0 17.2964 0V0C26.8489 0 34.5928 7.74386 34.5928 17.2964V18.2064C34.5928 23.0895 32.6312 27.768 29.1486 31.191L18.6983 41.4621C17.9202 42.2269 16.6726 42.2269 15.8945 41.4621L5.44425 31.191C1.96162 27.768 0 23.0895 0 18.2063V17.2964Z" fill="#99D121"/>
<path d="M0 17.2964C0 7.74386 7.74386 0 17.2964 0V0C26.8489 0 34.5928 7.74386 34.5928 17.2964V18.2064C34.5928 23.0895 32.6312 27.768 29.1486 31.191L18.6983 41.4621C17.9202 42.2269 16.6726 42.2269 15.8945 41.4621L5.44425 31.191C1.96162 27.768 0 23.0895 0 18.2063V17.2964Z" fill="black" fill-opacity="0.2"/>
<ellipse cx="17.2947" cy="18" rx="15.2615" ry="15" fill="#99D121"/>
<path fill-rule="evenodd" clip-rule="evenodd" d="M22.3819 15.3697C23.4162 15.5044 24.2088 16.4015 24.2088 17.4639C24.2088 18.1636 23.8651 18.7915 23.3349 19.1772V22.1969C23.3349 23.04 22.8636 23.773 22.1701 24.1468V24.7457C22.1701 25.5098 21.5507 26.1292 20.7866 26.1292C20.0225 26.1292 19.4031 25.5098 19.4031 24.7457V24.4105H14.3061V24.7457C14.3061 25.5098 13.6866 26.1292 12.9226 26.1292C12.1585 26.1292 11.5391 25.5098 11.5391 24.7457V24.147C10.8453 23.7733 10.3738 23.0401 10.3738 22.1969V19.1772C9.84371 18.7914 9.5 18.1635 9.5 17.4639C9.5 16.4015 10.2928 15.5043 11.3272 15.3697C11.5529 12.9903 13.5568 11.1289 15.9953 11.1289H17.7138C20.1523 11.1289 22.1561 12.9903 22.3819 15.3697ZM21.5109 15.4407C20.643 15.7031 20.0146 16.518 20.0146 17.4639C20.0146 17.6392 20.0362 17.81 20.0769 17.9736H20.0725V19.8669H13.636V17.9736H13.6319C13.6726 17.81 13.6942 17.6392 13.6942 17.4639C13.6942 16.5181 13.0659 15.7033 12.1982 15.4408C12.3877 13.5107 14.0154 12.0027 15.9953 12.0027L17.7138 12.0027C19.6936 12.0027 21.3213 13.5107 21.5109 15.4407ZM20.9463 19.9636C21.4584 20.1664 21.8206 20.6661 21.8206 21.2504C21.8206 22.0145 21.2012 22.6339 20.4371 22.6339H13.3012C12.5371 22.6339 11.9177 22.0145 11.9177 21.2504C11.9177 20.6776 12.2659 20.186 12.7622 19.9759V19.218C12.4295 19.4434 12.0291 19.5756 11.5971 19.5756C11.4779 19.5756 11.3612 19.5655 11.2476 19.5462V22.1969C11.2476 22.9368 11.8474 23.5367 12.5874 23.5367H21.1214C21.8613 23.5367 22.4612 22.9368 22.4612 22.1969V19.5462C22.3476 19.5655 22.2309 19.5756 22.1117 19.5756C21.6796 19.5756 21.279 19.4433 20.9463 19.2178V19.9636ZM12.5874 24.4105H13.4323V24.7457C13.4323 25.0272 13.2041 25.2554 12.9226 25.2554C12.6411 25.2554 12.4128 25.0272 12.4128 24.7457V24.4037C12.4704 24.4082 12.5286 24.4105 12.5874 24.4105ZM20.2769 24.4105V24.7457C20.2769 25.0272 20.5051 25.2554 20.7866 25.2554C21.0681 25.2554 21.2963 25.0272 21.2963 24.7457V24.4037C21.2386 24.4082 21.1802 24.4105 21.1214 24.4105H20.2769ZM11.5971 16.2261C10.9264 16.2261 10.3738 16.7833 10.3738 17.4639C10.3738 18.1445 10.9264 18.7018 11.5971 18.7018C12.2678 18.7018 12.8204 18.1445 12.8204 17.4639C12.8204 16.7833 12.2678 16.2261 11.5971 16.2261ZM13.3012 20.7407C13.0197 20.7407 12.7915 20.9689 12.7915 21.2504C12.7915 21.5319 13.0197 21.7601 13.3012 21.7601H20.4371C20.7186 21.7601 20.9469 21.5319 20.9469 21.2504C20.9469 20.9689 20.7186 20.7407 20.4371 20.7407H13.3012ZM20.8884 17.4639C20.8884 16.7833 21.4411 16.2261 22.1117 16.2261C22.7824 16.2261 23.335 16.7833 23.335 17.4639C23.335 18.1445 22.7824 18.7018 22.1117 18.7018C21.4411 18.7018 20.8884 18.1445 20.8884 17.4639Z" fill="white"/>
</svg>
