<svg width="165" height="43" viewBox="0 0 165 43" fill="none" xmlns="http://www.w3.org/2000/svg">
<path d="M1.97461 16.5C1.97461 7.3873 9.36191 0 18.4746 0H96.0513C98.6471 0 101.206 0.612446 103.521 1.78757V1.78757C118.997 9.64477 113.408 33 96.0513 33H18.4746C9.36192 33 1.97461 25.6127 1.97461 16.5V16.5Z" fill="#4564D3"/>
<path d="M1.97461 16.5C1.97461 7.3873 9.36191 0 18.4746 0H96.0513C98.6471 0 101.206 0.612446 103.521 1.78757V1.78757C118.997 9.64477 113.408 33 96.0513 33H18.4746C9.36192 33 1.97461 25.6127 1.97461 16.5V16.5Z" fill="black" fill-opacity="0.2"/>
<path d="M38.2889 22V20.516H39.5769V13.712H38.2889V12.228H42.7269V13.712H41.4249V20.516H42.7269V22H38.2889ZM48.4508 22.168C47.8068 22.168 47.2235 22.0607 46.7008 21.846C46.1781 21.6313 45.7301 21.3093 45.3568 20.88C44.9928 20.4507 44.7081 19.9233 44.5028 19.298C44.2975 18.6727 44.1948 17.9447 44.1948 17.114C44.1948 16.2927 44.2975 15.5693 44.5028 14.944C44.7081 14.3093 44.9928 13.7773 45.3568 13.348C45.7301 12.9187 46.1781 12.5967 46.7008 12.382C47.2235 12.1673 47.8068 12.06 48.4508 12.06C49.0948 12.06 49.6781 12.1673 50.2008 12.382C50.7235 12.5967 51.1715 12.9187 51.5448 13.348C51.9181 13.7773 52.2028 14.3093 52.3988 14.944C52.6041 15.5693 52.7068 16.2927 52.7068 17.114C52.7068 17.9447 52.6041 18.6727 52.3988 19.298C52.2028 19.9233 51.9181 20.4507 51.5448 20.88C51.1715 21.3093 50.7235 21.6313 50.2008 21.846C49.6781 22.0607 49.0948 22.168 48.4508 22.168ZM48.4508 20.53C49.1508 20.53 49.7061 20.2967 50.1168 19.83C50.5368 19.3633 50.7468 18.71 50.7468 17.87V16.358C50.7468 15.518 50.5368 14.8647 50.1168 14.398C49.7061 13.9313 49.1508 13.698 48.4508 13.698C47.7508 13.698 47.1908 13.9313 46.7708 14.398C46.3601 14.8647 46.1548 15.518 46.1548 16.358V17.87C46.1548 18.71 46.3601 19.3633 46.7708 19.83C47.1908 20.2967 47.7508 20.53 48.4508 20.53ZM58.0758 13.866V22H56.2278V13.866H53.4558V12.228H60.8478V13.866H58.0758ZM71.7175 22L70.9335 19.508H67.4615L66.6915 22H64.8155L68.0915 12.228H70.3875L73.6355 22H71.7175ZM69.2255 13.908H69.1555L67.9095 17.926H70.4855L69.2255 13.908ZM81.5577 22.616C81.5577 22.9987 81.4877 23.3347 81.3477 23.624C81.2171 23.9227 80.9977 24.17 80.6897 24.366C80.3817 24.562 79.9851 24.7113 79.4997 24.814C79.0144 24.9167 78.4217 24.968 77.7217 24.968C77.1057 24.968 76.5831 24.926 76.1537 24.842C75.7244 24.7673 75.3697 24.6553 75.0897 24.506C74.8191 24.366 74.6231 24.1887 74.5017 23.974C74.3804 23.7593 74.3197 23.5167 74.3197 23.246C74.3197 22.8353 74.4317 22.5133 74.6557 22.28C74.8891 22.056 75.2111 21.9113 75.6217 21.846V21.692C75.3231 21.6173 75.0897 21.4727 74.9217 21.258C74.7631 21.034 74.6837 20.7727 74.6837 20.474C74.6837 20.2873 74.7211 20.124 74.7957 19.984C74.8704 19.8347 74.9684 19.7087 75.0897 19.606C75.2204 19.5033 75.3651 19.4193 75.5237 19.354C75.6824 19.2793 75.8504 19.2233 76.0277 19.186V19.13C75.5797 18.9247 75.2437 18.64 75.0197 18.276C74.8051 17.912 74.6977 17.4873 74.6977 17.002C74.6977 16.2553 74.9544 15.658 75.4677 15.21C75.9811 14.7527 76.7324 14.524 77.7217 14.524C77.9457 14.524 78.1651 14.538 78.3797 14.566C78.6037 14.594 78.8091 14.6407 78.9957 14.706V14.468C78.9957 13.7587 79.3411 13.404 80.0317 13.404H81.1657V14.776H79.6117V14.972C79.9944 15.1867 80.2791 15.4667 80.4657 15.812C80.6524 16.1573 80.7457 16.554 80.7457 17.002C80.7457 17.7393 80.4891 18.332 79.9757 18.78C79.4717 19.228 78.7204 19.452 77.7217 19.452C77.2924 19.452 76.9191 19.41 76.6017 19.326C76.4617 19.3913 76.3404 19.48 76.2377 19.592C76.1351 19.6947 76.0837 19.8253 76.0837 19.984C76.0837 20.348 76.4011 20.53 77.0357 20.53H78.9957C79.8917 20.53 80.5404 20.7167 80.9417 21.09C81.3524 21.454 81.5577 21.9627 81.5577 22.616ZM79.8777 22.826C79.8777 22.5927 79.7844 22.4107 79.5977 22.28C79.4111 22.1493 79.0891 22.084 78.6317 22.084H76.1397C75.8877 22.2707 75.7617 22.5227 75.7617 22.84C75.7617 23.12 75.8784 23.3393 76.1117 23.498C76.3451 23.6567 76.7417 23.736 77.3017 23.736H78.1977C78.7857 23.736 79.2104 23.6613 79.4717 23.512C79.7424 23.3627 79.8777 23.134 79.8777 22.826ZM77.7217 18.234C78.5991 18.234 79.0377 17.8607 79.0377 17.114V16.876C79.0377 16.1293 78.5991 15.756 77.7217 15.756C76.8444 15.756 76.4057 16.1293 76.4057 16.876V17.114C76.4057 17.8607 76.8444 18.234 77.7217 18.234ZM85.4646 22.168C84.9233 22.168 84.4379 22.0793 84.0086 21.902C83.5886 21.7153 83.2293 21.4587 82.9306 21.132C82.6413 20.796 82.4173 20.3947 82.2586 19.928C82.0999 19.452 82.0206 18.92 82.0206 18.332C82.0206 17.7533 82.0953 17.2307 82.2446 16.764C82.4033 16.2973 82.6273 15.9007 82.9166 15.574C83.2059 15.238 83.5606 14.9813 83.9806 14.804C84.4006 14.6173 84.8766 14.524 85.4086 14.524C85.9779 14.524 86.4726 14.622 86.8926 14.818C87.3126 15.014 87.6579 15.28 87.9286 15.616C88.1993 15.952 88.3999 16.344 88.5306 16.792C88.6706 17.2307 88.7406 17.702 88.7406 18.206V18.794H83.8826V18.976C83.8826 19.508 84.0319 19.9373 84.3306 20.264C84.6293 20.5813 85.0726 20.74 85.6606 20.74C86.1086 20.74 86.4726 20.6467 86.7526 20.46C87.0419 20.2733 87.2986 20.0353 87.5226 19.746L88.4886 20.824C88.1899 21.244 87.7793 21.5753 87.2566 21.818C86.7433 22.0513 86.1459 22.168 85.4646 22.168ZM85.4366 15.868C84.9606 15.868 84.5826 16.0267 84.3026 16.344C84.0226 16.6613 83.8826 17.072 83.8826 17.576V17.688H86.8786V17.562C86.8786 17.058 86.7526 16.652 86.5006 16.344C86.2579 16.0267 85.9033 15.868 85.4366 15.868ZM90.3173 22V14.692H92.1093V15.91H92.1793C92.3286 15.518 92.5619 15.1913 92.8792 14.93C93.2059 14.6593 93.6539 14.524 94.2233 14.524C94.9793 14.524 95.5579 14.7713 95.9593 15.266C96.3606 15.7607 96.5613 16.4653 96.5613 17.38V22H94.7693V17.562C94.7693 17.0393 94.6759 16.6473 94.4893 16.386C94.3026 16.1247 93.9946 15.994 93.5653 15.994C93.3786 15.994 93.1966 16.022 93.0193 16.078C92.8513 16.1247 92.6973 16.1993 92.5573 16.302C92.4266 16.3953 92.3193 16.5167 92.2353 16.666C92.1513 16.806 92.1093 16.974 92.1093 17.17V22H90.3173ZM100.83 22C100.214 22 99.7424 21.8413 99.4157 21.524C99.0984 21.1973 98.9397 20.7353 98.9397 20.138V16.12H97.8617V14.692H98.4217C98.6924 14.692 98.8744 14.6313 98.9677 14.51C99.0704 14.3793 99.1217 14.188 99.1217 13.936V12.69H100.732V14.692H102.23V16.12H100.732V20.572H102.118V22H100.83Z" fill="white"/>
<path d="M13.8684 16.459H11.0721C10.686 16.459 10.373 16.7642 10.373 17.1407V22.4582C10.373 22.8347 10.686 23.1399 11.0721 23.1399H13.8684C14.2545 23.1399 14.5675 22.8347 14.5675 22.4582V17.1407C14.5675 16.7642 14.2545 16.459 13.8684 16.459ZM13.1693 21.7764H11.7712V17.8224H13.1693V21.7764Z" fill="white"/>
<path d="M24.4954 11.0039H21.6991C21.313 11.0039 21 11.3091 21 11.6856V22.4569C21 22.8334 21.313 23.1386 21.6991 23.1386H24.4954C24.8815 23.1386 25.1944 22.8334 25.1944 22.4569V11.6856C25.1944 11.3091 24.8815 11.0039 24.4954 11.0039ZM23.7963 21.7751H22.3981V12.3674H23.7963V21.7751Z" fill="white"/>
<path d="M19.1848 13.7305H16.3885C16.0024 13.7305 15.6895 14.0357 15.6895 14.4122V22.4565C15.6895 22.8331 16.0024 23.1383 16.3885 23.1383H19.1848C19.5709 23.1383 19.8839 22.8331 19.8839 22.4565V14.4122C19.8839 14.0357 19.5709 13.7305 19.1848 13.7305ZM18.4857 21.7748H17.0876V15.0939H18.4857V21.7748Z" fill="white"/>
<path d="M0 17.2964C0 7.74386 7.74386 0 17.2964 0V0C26.8489 0 34.5928 7.74386 34.5928 17.2964V18.2064C34.5928 23.0895 32.6312 27.768 29.1486 31.191L18.6983 41.4621C17.9202 42.2269 16.6726 42.2269 15.8945 41.4621L5.44425 31.191C1.96162 27.768 0 23.0895 0 18.2063V17.2964Z" fill="#4564D3"/>
<path d="M0 17.2964C0 7.74386 7.74386 0 17.2964 0V0C26.8489 0 34.5928 7.74386 34.5928 17.2964V18.2064C34.5928 23.0895 32.6312 27.768 29.1486 31.191L18.6983 41.4621C17.9202 42.2269 16.6726 42.2269 15.8945 41.4621L5.44425 31.191C1.96162 27.768 0 23.0895 0 18.2063V17.2964Z" fill="black" fill-opacity="0.2"/>
<ellipse cx="17.2947" cy="18" rx="15.2615" ry="15" fill="#4564D3"/>
<path d="M21.8033 13.2006C20.3867 11.784 18.5033 11.0039 16.5 11.0039C14.4967 11.0039 12.6133 11.784 11.1967 13.2006C9.78009 14.6171 9 16.5006 9 18.5039C9 20.5072 9.78012 22.3906 11.1967 23.8072C12.6132 25.2238 14.4967 26.0039 16.5 26.0039C18.5033 26.0039 20.3867 25.2238 21.8033 23.8072C23.2199 22.3907 24 20.5072 24 18.5039C24 16.5006 23.2199 14.6172 21.8033 13.2006ZM21.7409 22.449C21.2923 22.1454 20.8228 21.8832 20.336 21.6642C20.551 20.8258 20.6787 19.9155 20.7105 18.9727H23.0456C22.9535 20.2716 22.4818 21.4672 21.7409 22.449ZM9.95443 18.9727H12.2895C12.3213 19.9155 12.449 20.8258 12.664 21.6642C12.1772 21.8832 11.7077 22.1454 11.2591 22.449C10.5182 21.4672 10.0465 20.2716 9.95443 18.9727ZM11.259 14.559C11.7076 14.8625 12.1771 15.1248 12.6639 15.3438C12.4489 16.1822 12.3213 17.0924 12.2894 18.0352H9.95443C10.0465 16.7363 10.5182 15.5408 11.259 14.559ZM19.5652 13.3115C19.3935 12.9894 19.2079 12.6988 19.0105 12.441C19.8035 12.7706 20.5185 13.2513 21.1192 13.8471C20.7786 14.0709 20.4248 14.2681 20.06 14.4385C19.9168 14.0382 19.7515 13.6608 19.5652 13.3115ZM19.1854 14.7882C18.3296 15.075 17.4265 15.2227 16.5 15.2227C15.5735 15.2227 14.6704 15.075 13.8146 14.7882C14.4141 13.0815 15.4046 11.9414 16.5 11.9414C17.5954 11.9414 18.5859 13.0815 19.1854 14.7882ZM13.2276 18.0352C13.2586 17.2048 13.3707 16.4115 13.548 15.688C14.4895 15.9998 15.4822 16.1602 16.5 16.1602C17.5178 16.1602 18.5105 15.9998 19.452 15.688C19.6293 16.4115 19.7414 17.2048 19.7724 18.0352H13.2276ZM19.7724 18.9727C19.7414 19.803 19.6293 20.5964 19.4519 21.3199C18.5104 21.008 17.5177 20.8477 16.5 20.8477C15.4823 20.8477 14.4896 21.008 13.5481 21.3199C13.3707 20.5964 13.2586 19.803 13.2276 18.9727H19.7724ZM13.4348 13.3115C13.2485 13.6608 13.0832 14.0382 12.94 14.4385C12.5752 14.2681 12.2214 14.0709 11.8808 13.8471C12.4815 13.2512 13.1964 12.7705 13.9895 12.4409C13.7921 12.6988 13.6065 12.9894 13.4348 13.3115ZM12.94 22.5695C13.0832 22.9697 13.2485 23.3471 13.4347 23.6963C13.6065 24.0184 13.7921 24.309 13.9895 24.5668C13.1965 24.2372 12.4816 23.7566 11.8809 23.1608C12.2215 22.9371 12.5753 22.7399 12.94 22.5695ZM13.8146 22.2198C14.6705 21.9328 15.5736 21.7852 16.5 21.7852C17.4264 21.7852 18.3295 21.9328 19.1854 22.2198C18.5858 23.9263 17.5954 25.0664 16.5 25.0664C15.4046 25.0664 14.4142 23.9263 13.8146 22.2198ZM19.5652 23.6963C19.7515 23.3471 19.9168 22.9697 20.0599 22.5695C20.4247 22.7399 20.7785 22.9371 21.119 23.1608C20.5184 23.7566 19.8035 24.2373 19.0105 24.5668C19.2079 24.309 19.3935 24.0184 19.5652 23.6963ZM20.7105 18.0352C20.6787 17.0924 20.551 16.1822 20.336 15.3438C20.8229 15.1248 21.2924 14.8625 21.7409 14.559C22.4818 15.5407 22.9534 16.7363 23.0455 18.0352H20.7105Z" fill="white"/>
</svg>
