<svg width="165" height="43" viewBox="0 0 165 43" fill="none" xmlns="http://www.w3.org/2000/svg">
<path d="M1.97461 16.5C1.97461 7.3873 9.36191 0 18.4746 0H107.283C110.366 0 113.387 0.863744 116.004 2.49331V2.49331C130.089 11.2633 123.875 33 107.283 33H18.4746C9.36192 33 1.97461 25.6127 1.97461 16.5V16.5Z" fill="#E24A4A"/>
<path d="M1.97461 16.5C1.97461 7.3873 9.36191 0 18.4746 0H107.283C110.366 0 113.387 0.863744 116.004 2.49331V2.49331C130.089 11.2633 123.875 33 107.283 33H18.4746C9.36192 33 1.97461 25.6127 1.97461 16.5V16.5Z" fill="black" fill-opacity="0.2"/>
<path d="M42.186 22.168C41.346 22.168 40.632 22.0187 40.044 21.72C39.4653 21.4213 38.966 21.0293 38.546 20.544L39.792 19.34C40.128 19.732 40.5013 20.0307 40.912 20.236C41.332 20.4413 41.794 20.544 42.298 20.544C42.8673 20.544 43.2967 20.4227 43.586 20.18C43.8753 19.928 44.02 19.592 44.02 19.172C44.02 18.8453 43.9267 18.5793 43.74 18.374C43.5533 18.1687 43.2033 18.0193 42.69 17.926L41.766 17.786C39.8153 17.478 38.84 16.5307 38.84 14.944C38.84 14.5053 38.9193 14.1087 39.078 13.754C39.246 13.3993 39.484 13.096 39.792 12.844C40.1 12.592 40.4687 12.4007 40.898 12.27C41.3367 12.13 41.8313 12.06 42.382 12.06C43.1193 12.06 43.7633 12.1813 44.314 12.424C44.8647 12.6667 45.336 13.026 45.728 13.502L44.468 14.692C44.2253 14.3933 43.9313 14.1507 43.586 13.964C43.2407 13.7773 42.8067 13.684 42.284 13.684C41.752 13.684 41.3507 13.7867 41.08 13.992C40.8187 14.188 40.688 14.468 40.688 14.832C40.688 15.2053 40.7953 15.4807 41.01 15.658C41.2247 15.8353 41.57 15.966 42.046 16.05L42.956 16.218C43.9453 16.3953 44.6733 16.7127 45.14 17.17C45.616 17.618 45.854 18.248 45.854 19.06C45.854 19.5267 45.77 19.9513 45.602 20.334C45.4433 20.7073 45.2053 21.034 44.888 21.314C44.58 21.5847 44.1973 21.7947 43.74 21.944C43.292 22.0933 42.774 22.168 42.186 22.168ZM50.5486 22.168C50.0073 22.168 49.5219 22.0793 49.0926 21.902C48.6726 21.7153 48.3133 21.4587 48.0146 21.132C47.7253 20.796 47.5013 20.3947 47.3426 19.928C47.1839 19.452 47.1046 18.92 47.1046 18.332C47.1046 17.7533 47.1793 17.2307 47.3286 16.764C47.4873 16.2973 47.7113 15.9007 48.0006 15.574C48.2899 15.238 48.6446 14.9813 49.0646 14.804C49.4846 14.6173 49.9606 14.524 50.4926 14.524C51.0619 14.524 51.5566 14.622 51.9766 14.818C52.3966 15.014 52.7419 15.28 53.0126 15.616C53.2833 15.952 53.4839 16.344 53.6146 16.792C53.7546 17.2307 53.8246 17.702 53.8246 18.206V18.794H48.9666V18.976C48.9666 19.508 49.1159 19.9373 49.4146 20.264C49.7133 20.5813 50.1566 20.74 50.7446 20.74C51.1926 20.74 51.5566 20.6467 51.8366 20.46C52.1259 20.2733 52.3826 20.0353 52.6066 19.746L53.5726 20.824C53.2739 21.244 52.8633 21.5753 52.3406 21.818C51.8273 22.0513 51.2299 22.168 50.5486 22.168ZM50.5206 15.868C50.0446 15.868 49.6666 16.0267 49.3866 16.344C49.1066 16.6613 48.9666 17.072 48.9666 17.576V17.688H51.9626V17.562C51.9626 17.058 51.8366 16.652 51.5846 16.344C51.3419 16.0267 50.9873 15.868 50.5206 15.868ZM57.1932 22C56.5772 22 56.1246 21.846 55.8352 21.538C55.5459 21.23 55.4012 20.796 55.4012 20.236V11.64H57.1932V20.572H58.1592V22H57.1932ZM61.2128 22C60.5968 22 60.1441 21.846 59.8548 21.538C59.5654 21.23 59.4208 20.796 59.4208 20.236V11.64H61.2128V20.572H62.1788V22H61.2128ZM66.49 22.168C65.9487 22.168 65.4633 22.0793 65.034 21.902C64.614 21.7153 64.2547 21.4587 63.956 21.132C63.6667 20.796 63.4427 20.3947 63.284 19.928C63.1253 19.452 63.046 18.92 63.046 18.332C63.046 17.7533 63.1207 17.2307 63.27 16.764C63.4287 16.2973 63.6527 15.9007 63.942 15.574C64.2313 15.238 64.586 14.9813 65.006 14.804C65.426 14.6173 65.902 14.524 66.434 14.524C67.0033 14.524 67.498 14.622 67.918 14.818C68.338 15.014 68.6833 15.28 68.954 15.616C69.2247 15.952 69.4253 16.344 69.556 16.792C69.696 17.2307 69.766 17.702 69.766 18.206V18.794H64.908V18.976C64.908 19.508 65.0573 19.9373 65.356 20.264C65.6547 20.5813 66.098 20.74 66.686 20.74C67.134 20.74 67.498 20.6467 67.778 20.46C68.0673 20.2733 68.324 20.0353 68.548 19.746L69.514 20.824C69.2153 21.244 68.8047 21.5753 68.282 21.818C67.7687 22.0513 67.1713 22.168 66.49 22.168ZM66.462 15.868C65.986 15.868 65.608 16.0267 65.328 16.344C65.048 16.6613 64.908 17.072 64.908 17.576V17.688H67.904V17.562C67.904 17.058 67.778 16.652 67.526 16.344C67.2833 16.0267 66.9287 15.868 66.462 15.868ZM71.3426 22V14.692H73.1346V16.204H73.2046C73.2513 16.008 73.3213 15.8213 73.4146 15.644C73.5173 15.4573 73.648 15.294 73.8066 15.154C73.9653 15.014 74.152 14.902 74.3666 14.818C74.5906 14.734 74.8473 14.692 75.1366 14.692H75.5286V16.386H74.9686C74.362 16.386 73.9046 16.4747 73.5966 16.652C73.2886 16.8293 73.1346 17.1187 73.1346 17.52V22H71.3426ZM86.3073 22L85.5233 19.508H82.0513L81.2813 22H79.4053L82.6813 12.228H84.9773L88.2253 22H86.3073ZM83.8153 13.908H83.7453L82.4993 17.926H85.0753L83.8153 13.908ZM96.1476 22.616C96.1476 22.9987 96.0776 23.3347 95.9376 23.624C95.8069 23.9227 95.5876 24.17 95.2796 24.366C94.9716 24.562 94.5749 24.7113 94.0896 24.814C93.6042 24.9167 93.0116 24.968 92.3116 24.968C91.6956 24.968 91.1729 24.926 90.7436 24.842C90.3142 24.7673 89.9596 24.6553 89.6796 24.506C89.4089 24.366 89.2129 24.1887 89.0916 23.974C88.9702 23.7593 88.9096 23.5167 88.9096 23.246C88.9096 22.8353 89.0216 22.5133 89.2456 22.28C89.4789 22.056 89.8009 21.9113 90.2116 21.846V21.692C89.9129 21.6173 89.6796 21.4727 89.5116 21.258C89.3529 21.034 89.2736 20.7727 89.2736 20.474C89.2736 20.2873 89.3109 20.124 89.3856 19.984C89.4602 19.8347 89.5582 19.7087 89.6796 19.606C89.8102 19.5033 89.9549 19.4193 90.1136 19.354C90.2722 19.2793 90.4402 19.2233 90.6176 19.186V19.13C90.1696 18.9247 89.8336 18.64 89.6096 18.276C89.3949 17.912 89.2876 17.4873 89.2876 17.002C89.2876 16.2553 89.5442 15.658 90.0576 15.21C90.5709 14.7527 91.3222 14.524 92.3116 14.524C92.5356 14.524 92.7549 14.538 92.9696 14.566C93.1936 14.594 93.3989 14.6407 93.5856 14.706V14.468C93.5856 13.7587 93.9309 13.404 94.6216 13.404H95.7556V14.776H94.2016V14.972C94.5842 15.1867 94.8689 15.4667 95.0556 15.812C95.2422 16.1573 95.3356 16.554 95.3356 17.002C95.3356 17.7393 95.0789 18.332 94.5656 18.78C94.0616 19.228 93.3102 19.452 92.3116 19.452C91.8822 19.452 91.5089 19.41 91.1916 19.326C91.0516 19.3913 90.9302 19.48 90.8276 19.592C90.7249 19.6947 90.6736 19.8253 90.6736 19.984C90.6736 20.348 90.9909 20.53 91.6256 20.53H93.5856C94.4816 20.53 95.1302 20.7167 95.5316 21.09C95.9422 21.454 96.1476 21.9627 96.1476 22.616ZM94.4676 22.826C94.4676 22.5927 94.3742 22.4107 94.1876 22.28C94.0009 22.1493 93.6789 22.084 93.2216 22.084H90.7296C90.4776 22.2707 90.3516 22.5227 90.3516 22.84C90.3516 23.12 90.4682 23.3393 90.7016 23.498C90.9349 23.6567 91.3316 23.736 91.8916 23.736H92.7876C93.3756 23.736 93.8002 23.6613 94.0616 23.512C94.3322 23.3627 94.4676 23.134 94.4676 22.826ZM92.3116 18.234C93.1889 18.234 93.6276 17.8607 93.6276 17.114V16.876C93.6276 16.1293 93.1889 15.756 92.3116 15.756C91.4342 15.756 90.9956 16.1293 90.9956 16.876V17.114C90.9956 17.8607 91.4342 18.234 92.3116 18.234ZM100.054 22.168C99.5131 22.168 99.0278 22.0793 98.5985 21.902C98.1785 21.7153 97.8191 21.4587 97.5205 21.132C97.2311 20.796 97.0071 20.3947 96.8485 19.928C96.6898 19.452 96.6105 18.92 96.6105 18.332C96.6105 17.7533 96.6851 17.2307 96.8345 16.764C96.9931 16.2973 97.2171 15.9007 97.5065 15.574C97.7958 15.238 98.1505 14.9813 98.5705 14.804C98.9905 14.6173 99.4665 14.524 99.9985 14.524C100.568 14.524 101.062 14.622 101.482 14.818C101.902 15.014 102.248 15.28 102.518 15.616C102.789 15.952 102.99 16.344 103.12 16.792C103.26 17.2307 103.33 17.702 103.33 18.206V18.794H98.4725V18.976C98.4725 19.508 98.6218 19.9373 98.9205 20.264C99.2191 20.5813 99.6625 20.74 100.25 20.74C100.698 20.74 101.062 20.6467 101.342 20.46C101.632 20.2733 101.888 20.0353 102.112 19.746L103.078 20.824C102.78 21.244 102.369 21.5753 101.846 21.818C101.333 22.0513 100.736 22.168 100.054 22.168ZM100.026 15.868C99.5505 15.868 99.1725 16.0267 98.8925 16.344C98.6125 16.6613 98.4725 17.072 98.4725 17.576V17.688H101.468V17.562C101.468 17.058 101.342 16.652 101.09 16.344C100.848 16.0267 100.493 15.868 100.026 15.868ZM104.907 22V14.692H106.699V15.91H106.769C106.918 15.518 107.152 15.1913 107.469 14.93C107.796 14.6593 108.244 14.524 108.813 14.524C109.569 14.524 110.148 14.7713 110.549 15.266C110.95 15.7607 111.151 16.4653 111.151 17.38V22H109.359V17.562C109.359 17.0393 109.266 16.6473 109.079 16.386C108.892 16.1247 108.584 15.994 108.155 15.994C107.968 15.994 107.786 16.022 107.609 16.078C107.441 16.1247 107.287 16.1993 107.147 16.302C107.016 16.3953 106.909 16.5167 106.825 16.666C106.741 16.806 106.699 16.974 106.699 17.17V22H104.907ZM115.42 22C114.804 22 114.332 21.8413 114.006 21.524C113.688 21.1973 113.53 20.7353 113.53 20.138V16.12H112.452V14.692H113.012C113.282 14.692 113.464 14.6313 113.558 14.51C113.66 14.3793 113.712 14.188 113.712 13.936V12.69H115.322V14.692H116.82V16.12H115.322V20.572H116.708V22H115.42Z" fill="white"/>
<path d="M13.8684 16.459H11.0721C10.686 16.459 10.373 16.7642 10.373 17.1407V22.4582C10.373 22.8347 10.686 23.1399 11.0721 23.1399H13.8684C14.2545 23.1399 14.5675 22.8347 14.5675 22.4582V17.1407C14.5675 16.7642 14.2545 16.459 13.8684 16.459ZM13.1693 21.7764H11.7712V17.8224H13.1693V21.7764Z" fill="white"/>
<path d="M24.4954 11.0039H21.6991C21.313 11.0039 21 11.3091 21 11.6856V22.4569C21 22.8334 21.313 23.1386 21.6991 23.1386H24.4954C24.8815 23.1386 25.1944 22.8334 25.1944 22.4569V11.6856C25.1944 11.3091 24.8815 11.0039 24.4954 11.0039ZM23.7963 21.7751H22.3981V12.3674H23.7963V21.7751Z" fill="white"/>
<path d="M19.1848 13.7305H16.3885C16.0024 13.7305 15.6895 14.0357 15.6895 14.4122V22.4565C15.6895 22.8331 16.0024 23.1383 16.3885 23.1383H19.1848C19.5709 23.1383 19.8839 22.8331 19.8839 22.4565V14.4122C19.8839 14.0357 19.5709 13.7305 19.1848 13.7305ZM18.4857 21.7748H17.0876V15.0939H18.4857V21.7748Z" fill="white"/>
<path d="M0 17.2964C0 7.74386 7.74386 0 17.2964 0V0C26.8489 0 34.5928 7.74386 34.5928 17.2964V18.2064C34.5928 23.0895 32.6312 27.768 29.1486 31.191L18.6983 41.4621C17.9202 42.2269 16.6726 42.2269 15.8945 41.4621L5.44425 31.191C1.96162 27.768 0 23.0895 0 18.2063V17.2964Z" fill="#E24A4A"/>
<path d="M0 17.2964C0 7.74386 7.74386 0 17.2964 0V0C26.8489 0 34.5928 7.74386 34.5928 17.2964V18.2064C34.5928 23.0895 32.6312 27.768 29.1486 31.191L18.6983 41.4621C17.9202 42.2269 16.6726 42.2269 15.8945 41.4621L5.44425 31.191C1.96162 27.768 0 23.0895 0 18.2063V17.2964Z" fill="black" fill-opacity="0.2"/>
<ellipse cx="17.2947" cy="18" rx="15.2615" ry="15" fill="#E24A4A"/>
<path fill-rule="evenodd" clip-rule="evenodd" d="M23.1899 17.0561L23.8149 17.6811C24.0589 17.9252 24.0589 18.3208 23.8149 18.5649C23.693 18.687 23.533 18.748 23.373 18.748C23.213 18.748 23.053 18.687 22.9311 18.5649L22.6577 18.2914L18.1727 21.0945C18.4955 21.4789 18.6855 21.9686 18.6855 22.498C18.6855 23.7042 17.7042 24.6855 16.498 24.6855C15.6092 24.6855 14.8439 24.1517 14.502 23.3889L13.7455 23.8617L13.8149 23.9311C14.0589 24.1752 14.0589 24.5708 13.8149 24.8149C13.693 24.9371 13.533 24.998 13.373 24.998C13.213 24.998 13.053 24.9371 12.9311 24.8149L12.3061 24.1899L9.8061 21.6899L9.18109 21.0649C8.93703 20.8208 8.93703 20.4252 9.18109 20.1811C9.42484 19.937 9.8211 19.937 10.0648 20.1811L10.1342 20.2505L15.7045 11.3383L15.4311 11.0648C15.187 10.8208 15.187 10.4252 15.4311 10.1811C15.6749 9.93703 16.0711 9.93703 16.3149 10.1811L16.9399 10.8061L18.5036 12.3698L18.5058 12.372L23.1899 17.0561ZM15.5852 22.7117C15.6824 23.1261 16.0545 23.4355 16.498 23.4355C17.0149 23.4355 17.4355 23.0149 17.4355 22.498C17.4355 22.2136 17.3036 21.9467 17.0899 21.7714L15.5852 22.7117ZM14.6105 21.8461L16.5055 20.6624L21.7505 17.3842L18.1577 13.7914L15.4555 17.8445C15.3352 18.0252 15.1367 18.123 14.9349 18.123C14.8158 18.123 14.6952 18.0892 14.5889 18.0177C14.3017 17.8264 14.2239 17.4383 14.4155 17.1511L17.2564 12.8898L16.6117 12.2452L11.0414 21.1574L12.8383 22.9542L14.6064 21.8492C14.6072 21.8488 14.6078 21.8482 14.6084 21.8477L14.6085 21.8476L14.6105 21.8461ZM19.7292 10.277C19.9207 9.98977 20.3088 9.91195 20.5957 10.1035C20.8829 10.2948 20.9607 10.6829 20.7692 10.9701L20.1442 11.9076C20.0238 12.0882 19.8254 12.186 19.6235 12.186C19.5045 12.186 19.3838 12.1523 19.2776 12.081C18.9904 11.8895 18.9126 11.5016 19.1042 11.2145L19.7292 10.277ZM23.8929 13.4015C23.7013 13.114 23.3132 13.0362 23.0263 13.2281L22.0888 13.8531C21.8016 14.0446 21.7241 14.4324 21.9154 14.7196C22.0357 14.9006 22.2338 14.9981 22.436 14.9981C22.5551 14.9981 22.6757 14.9643 22.7819 14.8931L23.7194 14.2681C24.0066 14.0765 24.0841 13.6887 23.8929 13.4015ZM22.6193 10.4944C22.863 10.2504 23.2593 10.2504 23.503 10.4944C23.7471 10.7385 23.7471 11.1341 23.503 11.3782L21.9405 12.9407C21.8186 13.0629 21.6586 13.1238 21.4986 13.1238C21.3386 13.1238 21.1786 13.0629 21.0568 12.9407C20.8127 12.6966 20.8127 12.301 21.0568 12.0569L22.6193 10.4944Z" fill="white"/>
</svg>
