<svg width="165" height="43" viewBox="0 0 165 43" fill="none" xmlns="http://www.w3.org/2000/svg">
<path d="M1.97461 16.5C1.97461 7.3873 9.36191 0 18.4746 0H117.739C121.469 0 125.089 1.26389 128.009 3.58553V3.58553C140.236 13.3083 133.361 33 117.739 33H18.4746C9.36192 33 1.97461 25.6127 1.97461 16.5V16.5Z" fill="#21D1CC"/>
<path d="M1.97461 16.5C1.97461 7.3873 9.36191 0 18.4746 0H117.739C121.469 0 125.089 1.26389 128.009 3.58553V3.58553C140.236 13.3083 133.361 33 117.739 33H18.4746C9.36192 33 1.97461 25.6127 1.97461 16.5V16.5Z" fill="black" fill-opacity="0.2"/>
<path d="M41.416 21L38.224 11.228H40.114L41.612 15.988L42.48 19.236H42.522L43.376 15.988L44.874 11.228H46.708L43.516 21H41.416ZM50.4392 21.168C49.8979 21.168 49.4126 21.0793 48.9832 20.902C48.5632 20.7153 48.2039 20.4587 47.9052 20.132C47.6159 19.796 47.3919 19.3947 47.2332 18.928C47.0746 18.452 46.9952 17.92 46.9952 17.332C46.9952 16.7533 47.0699 16.2307 47.2192 15.764C47.3779 15.2973 47.6019 14.9007 47.8912 14.574C48.1806 14.238 48.5352 13.9813 48.9552 13.804C49.3752 13.6173 49.8512 13.524 50.3832 13.524C50.9526 13.524 51.4472 13.622 51.8672 13.818C52.2872 14.014 52.6326 14.28 52.9032 14.616C53.1739 14.952 53.3746 15.344 53.5052 15.792C53.6452 16.2307 53.7152 16.702 53.7152 17.206V17.794H48.8572V17.976C48.8572 18.508 49.0066 18.9373 49.3052 19.264C49.6039 19.5813 50.0472 19.74 50.6352 19.74C51.0832 19.74 51.4472 19.6467 51.7272 19.46C52.0166 19.2733 52.2732 19.0353 52.4972 18.746L53.4632 19.824C53.1646 20.244 52.7539 20.5753 52.2312 20.818C51.7179 21.0513 51.1206 21.168 50.4392 21.168ZM50.4112 14.868C49.9352 14.868 49.5572 15.0267 49.2772 15.344C48.9972 15.6613 48.8572 16.072 48.8572 16.576V16.688H51.8532V16.562C51.8532 16.058 51.7272 15.652 51.4752 15.344C51.2326 15.0267 50.8779 14.868 50.4112 14.868ZM55.2919 10.64H57.0839V14.91H57.1539C57.3032 14.518 57.5365 14.1913 57.8539 13.93C58.1805 13.6593 58.6285 13.524 59.1979 13.524C59.9539 13.524 60.5325 13.7713 60.9339 14.266C61.3352 14.7607 61.5359 15.4653 61.5359 16.38V21H59.7439V16.562C59.7439 16.0393 59.6505 15.6473 59.4639 15.386C59.2772 15.1247 58.9692 14.994 58.5399 14.994C58.3532 14.994 58.1712 15.022 57.9939 15.078C57.8259 15.1247 57.6719 15.1993 57.5319 15.302C57.4012 15.3953 57.2939 15.5167 57.2099 15.666C57.1259 15.806 57.0839 15.974 57.0839 16.17V21H55.2919V10.64ZM64.4183 12.628C64.045 12.628 63.7743 12.544 63.6063 12.376C63.4477 12.208 63.3683 11.9933 63.3683 11.732V11.452C63.3683 11.1907 63.4477 10.976 63.6063 10.808C63.7743 10.64 64.045 10.556 64.4183 10.556C64.7823 10.556 65.0483 10.64 65.2163 10.808C65.3843 10.976 65.4683 11.1907 65.4683 11.452V11.732C65.4683 11.9933 65.3843 12.208 65.2163 12.376C65.0483 12.544 64.7823 12.628 64.4183 12.628ZM63.5223 13.692H65.3143V21H63.5223V13.692ZM70.2755 21.168C69.7341 21.168 69.2535 21.0793 68.8335 20.902C68.4135 20.7247 68.0588 20.468 67.7695 20.132C67.4895 19.796 67.2748 19.3947 67.1255 18.928C66.9761 18.452 66.9015 17.92 66.9015 17.332C66.9015 16.744 66.9761 16.2167 67.1255 15.75C67.2748 15.2833 67.4895 14.8867 67.7695 14.56C68.0588 14.224 68.4135 13.9673 68.8335 13.79C69.2535 13.6127 69.7341 13.524 70.2755 13.524C71.0128 13.524 71.6195 13.6873 72.0955 14.014C72.5808 14.3407 72.9308 14.7933 73.1455 15.372L71.6755 16.03C71.5915 15.722 71.4328 15.47 71.1995 15.274C70.9755 15.0687 70.6675 14.966 70.2755 14.966C69.7715 14.966 69.3935 15.1247 69.1415 15.442C68.8988 15.7593 68.7775 16.1747 68.7775 16.688V18.018C68.7775 18.5313 68.8988 18.9467 69.1415 19.264C69.3935 19.572 69.7715 19.726 70.2755 19.726C70.7048 19.726 71.0361 19.6187 71.2695 19.404C71.5028 19.18 71.6848 18.9047 71.8155 18.578L73.1875 19.236C72.9448 19.88 72.5761 20.3653 72.0815 20.692C71.5868 21.0093 70.9848 21.168 70.2755 21.168ZM76.3612 21C75.7452 21 75.2925 20.846 75.0032 20.538C74.7139 20.23 74.5692 19.796 74.5692 19.236V10.64H76.3612V19.572H77.3272V21H76.3612ZM81.6384 21.168C81.0971 21.168 80.6118 21.0793 80.1824 20.902C79.7624 20.7153 79.4031 20.4587 79.1044 20.132C78.8151 19.796 78.5911 19.3947 78.4324 18.928C78.2738 18.452 78.1944 17.92 78.1944 17.332C78.1944 16.7533 78.2691 16.2307 78.4184 15.764C78.5771 15.2973 78.8011 14.9007 79.0904 14.574C79.3798 14.238 79.7344 13.9813 80.1544 13.804C80.5744 13.6173 81.0504 13.524 81.5824 13.524C82.1518 13.524 82.6464 13.622 83.0664 13.818C83.4864 14.014 83.8318 14.28 84.1024 14.616C84.3731 14.952 84.5738 15.344 84.7044 15.792C84.8444 16.2307 84.9144 16.702 84.9144 17.206V17.794H80.0564V17.976C80.0564 18.508 80.2058 18.9373 80.5044 19.264C80.8031 19.5813 81.2464 19.74 81.8344 19.74C82.2824 19.74 82.6464 19.6467 82.9264 19.46C83.2158 19.2733 83.4724 19.0353 83.6964 18.746L84.6624 19.824C84.3638 20.244 83.9531 20.5753 83.4304 20.818C82.9171 21.0513 82.3198 21.168 81.6384 21.168ZM81.6104 14.868C81.1344 14.868 80.7564 15.0267 80.4764 15.344C80.1964 15.6613 80.0564 16.072 80.0564 16.576V16.688H83.0524V16.562C83.0524 16.058 82.9264 15.652 82.6744 15.344C82.4318 15.0267 82.0771 14.868 81.6104 14.868ZM95.9597 21L95.1757 18.508H91.7037L90.9337 21H89.0577L92.3337 11.228H94.6297L97.8777 21H95.9597ZM93.4677 12.908H93.3977L92.1517 16.926H94.7277L93.4677 12.908ZM105.8 21.616C105.8 21.9987 105.73 22.3347 105.59 22.624C105.459 22.9227 105.24 23.17 104.932 23.366C104.624 23.562 104.227 23.7113 103.742 23.814C103.257 23.9167 102.664 23.968 101.964 23.968C101.348 23.968 100.825 23.926 100.396 23.842C99.9666 23.7673 99.6119 23.6553 99.3319 23.506C99.0613 23.366 98.8653 23.1887 98.7439 22.974C98.6226 22.7593 98.5619 22.5167 98.5619 22.246C98.5619 21.8353 98.6739 21.5133 98.8979 21.28C99.1313 21.056 99.4533 20.9113 99.8639 20.846V20.692C99.5653 20.6173 99.3319 20.4727 99.1639 20.258C99.0053 20.034 98.9259 19.7727 98.9259 19.474C98.9259 19.2873 98.9633 19.124 99.0379 18.984C99.1126 18.8347 99.2106 18.7087 99.3319 18.606C99.4626 18.5033 99.6073 18.4193 99.7659 18.354C99.9246 18.2793 100.093 18.2233 100.27 18.186V18.13C99.8219 17.9247 99.4859 17.64 99.2619 17.276C99.0473 16.912 98.9399 16.4873 98.9399 16.002C98.9399 15.2553 99.1966 14.658 99.7099 14.21C100.223 13.7527 100.975 13.524 101.964 13.524C102.188 13.524 102.407 13.538 102.622 13.566C102.846 13.594 103.051 13.6407 103.238 13.706V13.468C103.238 12.7587 103.583 12.404 104.274 12.404H105.408V13.776H103.854V13.972C104.237 14.1867 104.521 14.4667 104.708 14.812C104.895 15.1573 104.988 15.554 104.988 16.002C104.988 16.7393 104.731 17.332 104.218 17.78C103.714 18.228 102.963 18.452 101.964 18.452C101.535 18.452 101.161 18.41 100.844 18.326C100.704 18.3913 100.583 18.48 100.48 18.592C100.377 18.6947 100.326 18.8253 100.326 18.984C100.326 19.348 100.643 19.53 101.278 19.53H103.238C104.134 19.53 104.783 19.7167 105.184 20.09C105.595 20.454 105.8 20.9627 105.8 21.616ZM104.12 21.826C104.12 21.5927 104.027 21.4107 103.84 21.28C103.653 21.1493 103.331 21.084 102.874 21.084H100.382C100.13 21.2707 100.004 21.5227 100.004 21.84C100.004 22.12 100.121 22.3393 100.354 22.498C100.587 22.6567 100.984 22.736 101.544 22.736H102.44C103.028 22.736 103.453 22.6613 103.714 22.512C103.985 22.3627 104.12 22.134 104.12 21.826ZM101.964 17.234C102.841 17.234 103.28 16.8607 103.28 16.114V15.876C103.28 15.1293 102.841 14.756 101.964 14.756C101.087 14.756 100.648 15.1293 100.648 15.876V16.114C100.648 16.8607 101.087 17.234 101.964 17.234ZM109.707 21.168C109.165 21.168 108.68 21.0793 108.251 20.902C107.831 20.7153 107.471 20.4587 107.173 20.132C106.883 19.796 106.659 19.3947 106.501 18.928C106.342 18.452 106.263 17.92 106.263 17.332C106.263 16.7533 106.337 16.2307 106.487 15.764C106.645 15.2973 106.869 14.9007 107.159 14.574C107.448 14.238 107.803 13.9813 108.223 13.804C108.643 13.6173 109.119 13.524 109.651 13.524C110.22 13.524 110.715 13.622 111.135 13.818C111.555 14.014 111.9 14.28 112.171 14.616C112.441 14.952 112.642 15.344 112.773 15.792C112.913 16.2307 112.983 16.702 112.983 17.206V17.794H108.125V17.976C108.125 18.508 108.274 18.9373 108.573 19.264C108.871 19.5813 109.315 19.74 109.903 19.74C110.351 19.74 110.715 19.6467 110.995 19.46C111.284 19.2733 111.541 19.0353 111.765 18.746L112.731 19.824C112.432 20.244 112.021 20.5753 111.499 20.818C110.985 21.0513 110.388 21.168 109.707 21.168ZM109.679 14.868C109.203 14.868 108.825 15.0267 108.545 15.344C108.265 15.6613 108.125 16.072 108.125 16.576V16.688H111.121V16.562C111.121 16.058 110.995 15.652 110.743 15.344C110.5 15.0267 110.145 14.868 109.679 14.868ZM114.559 21V13.692H116.351V14.91H116.421C116.571 14.518 116.804 14.1913 117.121 13.93C117.448 13.6593 117.896 13.524 118.465 13.524C119.221 13.524 119.8 13.7713 120.201 14.266C120.603 14.7607 120.803 15.4653 120.803 16.38V21H119.011V16.562C119.011 16.0393 118.918 15.6473 118.731 15.386C118.545 15.1247 118.237 14.994 117.807 14.994C117.621 14.994 117.439 15.022 117.261 15.078C117.093 15.1247 116.939 15.1993 116.799 15.302C116.669 15.3953 116.561 15.5167 116.477 15.666C116.393 15.806 116.351 15.974 116.351 16.17V21H114.559ZM125.072 21C124.456 21 123.985 20.8413 123.658 20.524C123.341 20.1973 123.182 19.7353 123.182 19.138V15.12H122.104V13.692H122.664C122.935 13.692 123.117 13.6313 123.21 13.51C123.313 13.3793 123.364 13.188 123.364 12.936V11.69H124.974V13.692H126.472V15.12H124.974V19.572H126.36V21H125.072Z" fill="white"/>
<path d="M13.8684 16.459H11.0721C10.686 16.459 10.373 16.7642 10.373 17.1407V22.4582C10.373 22.8347 10.686 23.1399 11.0721 23.1399H13.8684C14.2545 23.1399 14.5675 22.8347 14.5675 22.4582V17.1407C14.5675 16.7642 14.2545 16.459 13.8684 16.459ZM13.1693 21.7764H11.7712V17.8224H13.1693V21.7764Z" fill="white"/>
<path d="M24.4954 11.0039H21.6991C21.313 11.0039 21 11.3091 21 11.6856V22.4569C21 22.8334 21.313 23.1386 21.6991 23.1386H24.4954C24.8815 23.1386 25.1944 22.8334 25.1944 22.4569V11.6856C25.1944 11.3091 24.8815 11.0039 24.4954 11.0039ZM23.7963 21.7751H22.3981V12.3674H23.7963V21.7751Z" fill="white"/>
<path d="M19.1848 13.7305H16.3885C16.0024 13.7305 15.6895 14.0357 15.6895 14.4122V22.4565C15.6895 22.8331 16.0024 23.1383 16.3885 23.1383H19.1848C19.5709 23.1383 19.8839 22.8331 19.8839 22.4565V14.4122C19.8839 14.0357 19.5709 13.7305 19.1848 13.7305ZM18.4857 21.7748H17.0876V15.0939H18.4857V21.7748Z" fill="white"/>
<path d="M0 17.2964C0 7.74386 7.74386 0 17.2964 0V0C26.8489 0 34.5928 7.74386 34.5928 17.2964V18.2064C34.5928 23.0895 32.6312 27.768 29.1486 31.191L18.6983 41.4621C17.9202 42.2269 16.6726 42.2269 15.8945 41.4621L5.44425 31.191C1.96162 27.768 0 23.0895 0 18.2063V17.2964Z" fill="#21D1CC"/>
<path d="M0 17.2964C0 7.74386 7.74386 0 17.2964 0V0C26.8489 0 34.5928 7.74386 34.5928 17.2964V18.2064C34.5928 23.0895 32.6312 27.768 29.1486 31.191L18.6983 41.4621C17.9202 42.2269 16.6726 42.2269 15.8945 41.4621L5.44425 31.191C1.96162 27.768 0 23.0895 0 18.2063V17.2964Z" fill="black" fill-opacity="0.2"/>
<ellipse cx="17.2947" cy="18" rx="15.2615" ry="15" fill="#21D1CC"/>
<path d="M10.75 21.1259H10.7781C10.9275 22.0112 11.6976 22.6884 12.625 22.6884C13.5524 22.6884 14.3222 22.0112 14.4719 21.1259H19.2156C19.365 22.0112 20.1351 22.6884 21.0625 22.6884C21.9899 22.6884 22.7597 22.0112 22.9094 21.1259H23.25C23.9394 21.1259 24.5 20.5653 24.5 19.8759C24.5 19.8437 24.4976 19.8115 24.4925 19.7796L24.2972 18.5263C24.1944 17.7046 23.5778 17.0559 22.7669 16.9131L20.4354 16.4846L17.9225 13.885C17.5713 13.5215 17.0797 13.3131 16.5744 13.3131L13.8771 13.3134L13.8753 13.3131L13.8735 13.3134H12.1428C11.2244 13.2846 10.4241 13.9471 10.2774 14.8309L9.82654 16.9322L9.82593 16.9365L9.82471 16.9406L9.51221 18.5031C9.50412 18.5437 9.5 18.585 9.5 18.6259V19.8759C9.5 20.5653 10.0606 21.1259 10.75 21.1259ZM12.625 21.4384C12.2803 21.4384 12 21.1581 12 20.8134C12 20.4687 12.2803 20.1884 12.625 20.1884C12.9697 20.1884 13.25 20.4687 13.25 20.8134C13.25 21.1581 12.9697 21.4384 12.625 21.4384ZM21.0625 21.4384C20.7178 21.4384 20.4375 21.1581 20.4375 20.8134C20.4375 20.4687 20.7178 20.1884 21.0625 20.1884C21.4072 20.1884 21.6875 20.4687 21.6875 20.8134C21.6875 21.1581 21.4072 21.4384 21.0625 21.4384ZM23.0594 18.7002L23.2425 19.8762H22.6837C22.359 19.3168 21.7546 18.9387 21.0625 18.9387C20.3704 18.9387 19.766 19.3168 19.4413 19.8762H14.2462C13.9215 19.3168 13.3171 18.9387 12.625 18.9387C11.9329 18.9387 11.3285 19.3168 11.0038 19.8762H10.75V18.688L10.95 17.6887H20.0681L22.5453 18.144C22.8168 18.1915 23.0225 18.4077 23.0594 18.7002ZM17.0235 14.754L18.6516 16.4384H14.5V14.5634H16.5741C16.7424 14.5634 16.9063 14.6331 17.0235 14.754ZM12.1216 14.5634H13.25V16.4384H11.2107L11.505 15.065C11.5551 14.7644 11.8035 14.5503 12.1216 14.5634Z" fill="white"/>
</svg>
