<svg width="165" height="43" viewBox="0 0 165 43" fill="none" xmlns="http://www.w3.org/2000/svg">
<path d="M1.97461 16.5C1.97461 7.3873 9.36191 0 18.4746 0H116.846C120.511 0 124.071 1.22001 126.966 3.4676V3.4676C139.38 13.1071 132.563 33 116.846 33H18.4746C9.36192 33 1.97461 25.6127 1.97461 16.5V16.5Z" fill="#854EFC"/>
<path d="M1.97461 16.5C1.97461 7.3873 9.36191 0 18.4746 0H116.846C120.511 0 124.071 1.22001 126.966 3.4676V3.4676C139.38 13.1071 132.563 33 116.846 33H18.4746C9.36192 33 1.97461 25.6127 1.97461 16.5V16.5Z" fill="black" fill-opacity="0.2"/>
<path d="M41.416 22L38.224 12.228H40.114L41.612 16.988L42.48 20.236H42.522L43.376 16.988L44.874 12.228H46.708L43.516 22H41.416ZM48.8597 13.628C48.4864 13.628 48.2157 13.544 48.0477 13.376C47.8891 13.208 47.8097 12.9933 47.8097 12.732V12.452C47.8097 12.1907 47.8891 11.976 48.0477 11.808C48.2157 11.64 48.4864 11.556 48.8597 11.556C49.2237 11.556 49.4897 11.64 49.6577 11.808C49.8257 11.976 49.9097 12.1907 49.9097 12.452V12.732C49.9097 12.9933 49.8257 13.208 49.6577 13.376C49.4897 13.544 49.2237 13.628 48.8597 13.628ZM47.9637 14.692H49.7557V22H47.9637V14.692ZM54.7869 22.168C54.2455 22.168 53.7602 22.0793 53.3309 21.902C52.9109 21.7153 52.5515 21.4587 52.2529 21.132C51.9635 20.796 51.7395 20.3947 51.5809 19.928C51.4222 19.452 51.3429 18.92 51.3429 18.332C51.3429 17.7533 51.4175 17.2307 51.5669 16.764C51.7255 16.2973 51.9495 15.9007 52.2389 15.574C52.5282 15.238 52.8829 14.9813 53.3029 14.804C53.7229 14.6173 54.1989 14.524 54.7309 14.524C55.3002 14.524 55.7949 14.622 56.2149 14.818C56.6349 15.014 56.9802 15.28 57.2509 15.616C57.5215 15.952 57.7222 16.344 57.8529 16.792C57.9929 17.2307 58.0629 17.702 58.0629 18.206V18.794H53.2049V18.976C53.2049 19.508 53.3542 19.9373 53.6529 20.264C53.9515 20.5813 54.3949 20.74 54.9829 20.74C55.4309 20.74 55.7949 20.6467 56.0749 20.46C56.3642 20.2733 56.6209 20.0353 56.8449 19.746L57.8109 20.824C57.5122 21.244 57.1015 21.5753 56.5789 21.818C56.0655 22.0513 55.4682 22.168 54.7869 22.168ZM54.7589 15.868C54.2829 15.868 53.9049 16.0267 53.6249 16.344C53.3449 16.6613 53.2049 17.072 53.2049 17.576V17.688H56.2009V17.562C56.2009 17.058 56.0749 16.652 55.8229 16.344C55.5802 16.0267 55.2255 15.868 54.7589 15.868ZM58.8572 14.692H60.5792L61.3212 17.702L61.8952 20.208H61.9512L62.6232 17.702L63.4772 14.692H65.1012L65.9832 17.702L66.6692 20.208H66.7252L67.2992 17.702L68.0272 14.692H69.6932L67.6912 22H65.7592L64.8212 18.78L64.2752 16.792H64.2332L63.7012 18.78L62.7772 22H60.8732L58.8572 14.692ZM73.8728 22.168C73.3315 22.168 72.8461 22.0793 72.4168 21.902C71.9968 21.7153 71.6375 21.4587 71.3388 21.132C71.0495 20.796 70.8255 20.3947 70.6668 19.928C70.5081 19.452 70.4288 18.92 70.4288 18.332C70.4288 17.7533 70.5035 17.2307 70.6528 16.764C70.8115 16.2973 71.0355 15.9007 71.3248 15.574C71.6141 15.238 71.9688 14.9813 72.3888 14.804C72.8088 14.6173 73.2848 14.524 73.8168 14.524C74.3861 14.524 74.8808 14.622 75.3008 14.818C75.7208 15.014 76.0661 15.28 76.3368 15.616C76.6075 15.952 76.8081 16.344 76.9388 16.792C77.0788 17.2307 77.1488 17.702 77.1488 18.206V18.794H72.2908V18.976C72.2908 19.508 72.4401 19.9373 72.7388 20.264C73.0375 20.5813 73.4808 20.74 74.0688 20.74C74.5168 20.74 74.8808 20.6467 75.1608 20.46C75.4501 20.2733 75.7068 20.0353 75.9308 19.746L76.8968 20.824C76.5981 21.244 76.1875 21.5753 75.6648 21.818C75.1515 22.0513 74.5541 22.168 73.8728 22.168ZM73.8448 15.868C73.3688 15.868 72.9908 16.0267 72.7108 16.344C72.4308 16.6613 72.2908 17.072 72.2908 17.576V17.688H75.2868V17.562C75.2868 17.058 75.1608 16.652 74.9088 16.344C74.6661 16.0267 74.3115 15.868 73.8448 15.868ZM78.7255 22V14.692H80.5175V16.204H80.5875C80.6341 16.008 80.7041 15.8213 80.7975 15.644C80.9001 15.4573 81.0308 15.294 81.1895 15.154C81.3481 15.014 81.5348 14.902 81.7495 14.818C81.9735 14.734 82.2301 14.692 82.5195 14.692H82.9115V16.386H82.3515C81.7448 16.386 81.2875 16.4747 80.9795 16.652C80.6715 16.8293 80.5175 17.1187 80.5175 17.52V22H78.7255ZM93.6901 22L92.9061 19.508H89.4341L88.6641 22H86.7881L90.0641 12.228H92.3601L95.6081 22H93.6901ZM91.1981 13.908H91.1281L89.8821 17.926H92.4581L91.1981 13.908ZM103.53 22.616C103.53 22.9987 103.46 23.3347 103.32 23.624C103.19 23.9227 102.97 24.17 102.662 24.366C102.354 24.562 101.958 24.7113 101.472 24.814C100.987 24.9167 100.394 24.968 99.6944 24.968C99.0784 24.968 98.5557 24.926 98.1264 24.842C97.6971 24.7673 97.3424 24.6553 97.0624 24.506C96.7917 24.366 96.5957 24.1887 96.4744 23.974C96.3531 23.7593 96.2924 23.5167 96.2924 23.246C96.2924 22.8353 96.4044 22.5133 96.6284 22.28C96.8617 22.056 97.1837 21.9113 97.5944 21.846V21.692C97.2957 21.6173 97.0624 21.4727 96.8944 21.258C96.7357 21.034 96.6564 20.7727 96.6564 20.474C96.6564 20.2873 96.6937 20.124 96.7684 19.984C96.8431 19.8347 96.9411 19.7087 97.0624 19.606C97.1931 19.5033 97.3377 19.4193 97.4964 19.354C97.6551 19.2793 97.8231 19.2233 98.0004 19.186V19.13C97.5524 18.9247 97.2164 18.64 96.9924 18.276C96.7777 17.912 96.6704 17.4873 96.6704 17.002C96.6704 16.2553 96.9271 15.658 97.4404 15.21C97.9537 14.7527 98.7051 14.524 99.6944 14.524C99.9184 14.524 100.138 14.538 100.352 14.566C100.576 14.594 100.782 14.6407 100.968 14.706V14.468C100.968 13.7587 101.314 13.404 102.004 13.404H103.138V14.776H101.584V14.972C101.967 15.1867 102.252 15.4667 102.438 15.812C102.625 16.1573 102.718 16.554 102.718 17.002C102.718 17.7393 102.462 18.332 101.948 18.78C101.444 19.228 100.693 19.452 99.6944 19.452C99.2651 19.452 98.8917 19.41 98.5744 19.326C98.4344 19.3913 98.3131 19.48 98.2104 19.592C98.1077 19.6947 98.0564 19.8253 98.0564 19.984C98.0564 20.348 98.3737 20.53 99.0084 20.53H100.968C101.864 20.53 102.513 20.7167 102.914 21.09C103.325 21.454 103.53 21.9627 103.53 22.616ZM101.85 22.826C101.85 22.5927 101.757 22.4107 101.57 22.28C101.384 22.1493 101.062 22.084 100.604 22.084H98.1124C97.8604 22.2707 97.7344 22.5227 97.7344 22.84C97.7344 23.12 97.8511 23.3393 98.0844 23.498C98.3177 23.6567 98.7144 23.736 99.2744 23.736H100.17C100.758 23.736 101.183 23.6613 101.444 23.512C101.715 23.3627 101.85 23.134 101.85 22.826ZM99.6944 18.234C100.572 18.234 101.01 17.8607 101.01 17.114V16.876C101.01 16.1293 100.572 15.756 99.6944 15.756C98.8171 15.756 98.3784 16.1293 98.3784 16.876V17.114C98.3784 17.8607 98.8171 18.234 99.6944 18.234ZM107.437 22.168C106.896 22.168 106.411 22.0793 105.981 21.902C105.561 21.7153 105.202 21.4587 104.903 21.132C104.614 20.796 104.39 20.3947 104.231 19.928C104.073 19.452 103.993 18.92 103.993 18.332C103.993 17.7533 104.068 17.2307 104.217 16.764C104.376 16.2973 104.6 15.9007 104.889 15.574C105.179 15.238 105.533 14.9813 105.953 14.804C106.373 14.6173 106.849 14.524 107.381 14.524C107.951 14.524 108.445 14.622 108.865 14.818C109.285 15.014 109.631 15.28 109.901 15.616C110.172 15.952 110.373 16.344 110.503 16.792C110.643 17.2307 110.713 17.702 110.713 18.206V18.794H105.855V18.976C105.855 19.508 106.005 19.9373 106.303 20.264C106.602 20.5813 107.045 20.74 107.633 20.74C108.081 20.74 108.445 20.6467 108.725 20.46C109.015 20.2733 109.271 20.0353 109.495 19.746L110.461 20.824C110.163 21.244 109.752 21.5753 109.229 21.818C108.716 22.0513 108.119 22.168 107.437 22.168ZM107.409 15.868C106.933 15.868 106.555 16.0267 106.275 16.344C105.995 16.6613 105.855 17.072 105.855 17.576V17.688H108.851V17.562C108.851 17.058 108.725 16.652 108.473 16.344C108.231 16.0267 107.876 15.868 107.409 15.868ZM112.29 22V14.692H114.082V15.91H114.152C114.301 15.518 114.535 15.1913 114.852 14.93C115.179 14.6593 115.627 14.524 116.196 14.524C116.952 14.524 117.531 14.7713 117.932 15.266C118.333 15.7607 118.534 16.4653 118.534 17.38V22H116.742V17.562C116.742 17.0393 116.649 16.6473 116.462 16.386C116.275 16.1247 115.967 15.994 115.538 15.994C115.351 15.994 115.169 16.022 114.992 16.078C114.824 16.1247 114.67 16.1993 114.53 16.302C114.399 16.3953 114.292 16.5167 114.208 16.666C114.124 16.806 114.082 16.974 114.082 17.17V22H112.29ZM122.802 22C122.186 22 121.715 21.8413 121.388 21.524C121.071 21.1973 120.912 20.7353 120.912 20.138V16.12H119.834V14.692H120.394C120.665 14.692 120.847 14.6313 120.94 14.51C121.043 14.3793 121.094 14.188 121.094 13.936V12.69H122.704V14.692H124.202V16.12H122.704V20.572H124.09V22H122.802Z" fill="white"/>
<path d="M13.8684 16.459H11.0721C10.686 16.459 10.373 16.7642 10.373 17.1407V22.4582C10.373 22.8347 10.686 23.1399 11.0721 23.1399H13.8684C14.2545 23.1399 14.5675 22.8347 14.5675 22.4582V17.1407C14.5675 16.7642 14.2545 16.459 13.8684 16.459ZM13.1693 21.7764H11.7712V17.8224H13.1693V21.7764Z" fill="white"/>
<path d="M24.4954 11.0039H21.6991C21.313 11.0039 21 11.3091 21 11.6856V22.4569C21 22.8334 21.313 23.1386 21.6991 23.1386H24.4954C24.8815 23.1386 25.1944 22.8334 25.1944 22.4569V11.6856C25.1944 11.3091 24.8815 11.0039 24.4954 11.0039ZM23.7963 21.7751H22.3981V12.3674H23.7963V21.7751Z" fill="white"/>
<path d="M19.1848 13.7305H16.3885C16.0024 13.7305 15.6895 14.0357 15.6895 14.4122V22.4565C15.6895 22.8331 16.0024 23.1383 16.3885 23.1383H19.1848C19.5709 23.1383 19.8839 22.8331 19.8839 22.4565V14.4122C19.8839 14.0357 19.5709 13.7305 19.1848 13.7305ZM18.4857 21.7748H17.0876V15.0939H18.4857V21.7748Z" fill="white"/>
<path d="M0 17.2964C0 7.74386 7.74386 0 17.2964 0V0C26.8489 0 34.5928 7.74386 34.5928 17.2964V18.2064C34.5928 23.0895 32.6312 27.768 29.1486 31.191L18.6983 41.4621C17.9202 42.2269 16.6726 42.2269 15.8945 41.4621L5.44425 31.191C1.96162 27.768 0 23.0895 0 18.2063V17.2964Z" fill="#854EFC"/>
<path d="M0 17.2964C0 7.74386 7.74386 0 17.2964 0V0C26.8489 0 34.5928 7.74386 34.5928 17.2964V18.2064C34.5928 23.0895 32.6312 27.768 29.1486 31.191L18.6983 41.4621C17.9202 42.2269 16.6726 42.2269 15.8945 41.4621L5.44425 31.191C1.96162 27.768 0 23.0895 0 18.2063V17.2964Z" fill="black" fill-opacity="0.2"/>
<ellipse cx="17.2947" cy="18" rx="15.2615" ry="15" fill="#854EFC"/>
<path fill-rule="evenodd" clip-rule="evenodd" d="M10.1256 14.2539C10.4706 14.2539 10.7506 13.9739 10.7506 13.6289V11.7539H12.6256C12.9706 11.7539 13.2506 11.4739 13.2506 11.1289C13.2506 10.7839 12.9706 10.5039 12.6256 10.5039H10.7506C10.0612 10.5039 9.50057 11.0645 9.50057 11.7539V13.6289C9.50057 13.9739 9.78057 14.2539 10.1256 14.2539ZM9.64179 17.6069C9.77515 17.4444 12.954 13.6285 16.9999 13.6285C21.0458 13.6285 24.2246 17.4444 24.358 17.6069C24.547 17.8376 24.547 18.1698 24.358 18.4001C24.2246 18.5626 21.0458 22.3785 16.9999 22.3785C12.954 22.3785 9.77515 18.5626 9.64179 18.4001C9.45274 18.1694 9.45274 17.8376 9.64179 17.6069ZM10.969 18.0035C11.8537 18.9248 14.2574 21.1285 16.9999 21.1285C19.7423 21.1285 22.1461 18.9244 23.0308 18.0035C22.1465 17.0826 19.7423 14.8785 16.9999 14.8785C14.2574 14.8785 11.8537 17.0822 10.969 18.0035ZM14.8135 18.0043C14.8135 16.7981 15.7948 15.8168 17.001 15.8168C18.2072 15.8168 19.1885 16.7981 19.1885 18.0043C19.1885 19.2102 18.2072 20.1918 17.001 20.1918C15.7948 20.1918 14.8135 19.2102 14.8135 18.0043ZM16.0635 18.0043C16.0635 18.5211 16.4842 18.9418 17.001 18.9418C17.5178 18.9418 17.9385 18.5211 17.9385 18.0043C17.9385 17.4875 17.5178 17.0668 17.001 17.0668C16.4842 17.0668 16.0635 17.4875 16.0635 18.0043ZM12.6256 25.5039H10.7506C10.0612 25.5039 9.50057 24.9433 9.50057 24.2539V22.3789C9.50057 22.0339 9.78057 21.7539 10.1256 21.7539C10.4706 21.7539 10.7506 22.0339 10.7506 22.3789V24.2539H12.6256C12.9706 24.2539 13.2506 24.5339 13.2506 24.8789C13.2506 25.2239 12.9706 25.5039 12.6256 25.5039ZM23.8756 21.7539C23.5306 21.7539 23.2506 22.0339 23.2506 22.3789V24.2539H21.3756C21.0306 24.2539 20.7506 24.5339 20.7506 24.8789C20.7506 25.2239 21.0306 25.5039 21.3756 25.5039H23.2506C23.94 25.5039 24.5006 24.9433 24.5006 24.2539V22.3789C24.5006 22.0339 24.2206 21.7539 23.8756 21.7539ZM21.3756 10.5039H23.2506C23.94 10.5039 24.5006 11.0645 24.5006 11.7539V13.6289C24.5006 13.9739 24.2206 14.2539 23.8756 14.2539C23.5306 14.2539 23.2506 13.9739 23.2506 13.6289V11.7539H21.3756C21.0306 11.7539 20.7506 11.4739 20.7506 11.1289C20.7506 10.7839 21.0306 10.5039 21.3756 10.5039Z" fill="white"/>
</svg>
