<svg width="34" height="43" viewBox="0 0 34 43" fill="none" xmlns="http://www.w3.org/2000/svg">
<path d="M0 17C0 7.61115 7.61116 0 17 0V0C26.3888 0 34 7.61116 34 17V18.2716C34 23.1176 32.075 27.765 28.6484 31.1916L18.4142 41.4258C17.6332 42.2068 16.3668 42.2068 15.5858 41.4258L5.35164 31.1916C1.92504 27.765 0 23.1176 0 18.2716V17Z" fill="#D17521"/>
<path d="M0 17C0 7.61115 7.61116 0 17 0V0C26.3888 0 34 7.61116 34 17V18.2716C34 23.1176 32.075 27.765 28.6484 31.1916L18.4142 41.4258C17.6332 42.2068 16.3668 42.2068 15.5858 41.4258L5.35164 31.1916C1.92504 27.765 0 23.1176 0 18.2716V17Z" fill="black" fill-opacity="0.2"/>
<circle cx="17" cy="18" r="15" fill="#D17521"/>
<path fill-rule="evenodd" clip-rule="evenodd" d="M17 10.5039C15.6355 10.5039 14.5294 11.5113 14.5294 12.7539C14.5294 13.9965 15.6355 15.0039 17 15.0039C18.3645 15.0039 19.4706 13.9965 19.4706 12.7539C19.4706 11.5113 18.3645 10.5039 17 10.5039ZM12.8824 12.7539C12.8824 10.6828 14.7259 9.00391 17 9.00391C19.2741 9.00391 21.1176 10.6828 21.1176 12.7539C21.1176 14.825 19.2741 16.5039 17 16.5039C14.7259 16.5039 12.8824 14.825 12.8824 12.7539ZM11.206 19.1023C11.9782 18.399 13.0256 18.0039 14.1176 18.0039H19.8824C20.9744 18.0039 22.0218 18.399 22.794 19.1023C23.5662 19.8055 24 20.7593 24 21.7539V23.2539C24 23.6681 23.6313 24.0039 23.1765 24.0039C22.7216 24.0039 22.3529 23.6681 22.3529 23.2539V21.7539C22.3529 21.1572 22.0926 20.5849 21.6293 20.1629C21.166 19.741 20.5376 19.5039 19.8824 19.5039H14.1176C13.4624 19.5039 12.834 19.741 12.3707 20.1629C11.9074 20.5849 11.6471 21.1572 11.6471 21.7539V23.2539C11.6471 23.6681 11.2784 24.0039 10.8235 24.0039C10.3687 24.0039 10 23.6681 10 23.2539V21.7539C10 20.7593 10.4338 19.8055 11.206 19.1023Z" fill="white"/>
</svg>
