<svg width="34" height="43" viewBox="0 0 34 43" fill="none" xmlns="http://www.w3.org/2000/svg">
<path d="M0 17C0 7.61115 7.61116 0 17 0V0C26.3888 0 34 7.61116 34 17V18.2716C34 23.1176 32.075 27.765 28.6484 31.1916L18.4142 41.4258C17.6332 42.2068 16.3668 42.2068 15.5858 41.4258L5.35164 31.1916C1.92504 27.765 0 23.1176 0 18.2716V17Z" fill="#D0BD12"/>
<path d="M0 17C0 7.61115 7.61116 0 17 0V0C26.3888 0 34 7.61116 34 17V18.2716C34 23.1176 32.075 27.765 28.6484 31.1916L18.4142 41.4258C17.6332 42.2068 16.3668 42.2068 15.5858 41.4258L5.35164 31.1916C1.92504 27.765 0 23.1176 0 18.2716V17Z" fill="black" fill-opacity="0.2"/>
<circle cx="17" cy="18" r="15" fill="#D0BD12"/>
<path fill-rule="evenodd" clip-rule="evenodd" d="M22.2544 15.1331L23.817 16.5915C24.061 16.8192 24.061 17.1885 23.817 17.4163C23.6948 17.5303 23.5351 17.5872 23.3751 17.5872C23.2151 17.5872 23.0554 17.5303 22.9332 17.4163L22.4376 16.9537V23.4206C22.4376 23.7426 22.1576 24.0039 21.8126 24.0039H17.125C16.78 24.0039 16.5 23.7426 16.5 23.4206C16.5 23.0986 16.78 22.8372 17.125 22.8372H17.75V18.7539H15.25V23.4206C15.25 23.7426 14.97 24.0039 14.625 24.0039H11.1874C10.8424 24.0039 10.5624 23.7426 10.5624 23.4206V16.9537L10.0668 17.4163C9.94462 17.5303 9.78493 17.5872 9.62493 17.5872C9.46493 17.5872 9.30524 17.5303 9.18305 17.4163C8.93898 17.1885 8.93898 16.8192 9.18305 16.5915L10.7456 15.1331L16.0581 10.1748C16.3022 9.94696 16.6978 9.94696 16.9419 10.1748L22.2544 15.1331ZM19 22.8372H21.1875V15.7873L16.5 11.4123L11.8125 15.7873V22.8372H14V18.1705C14 17.8485 14.28 17.5872 14.625 17.5872H18.375C18.72 17.5872 19 17.8485 19 18.1705V22.8372ZM15.5625 14.9622C15.5625 14.4798 15.9831 14.0872 16.5 14.0872C17.0169 14.0872 17.4375 14.4798 17.4375 14.9622C17.4375 15.4447 17.0169 15.8372 16.5 15.8372C15.9831 15.8372 15.5625 15.4447 15.5625 14.9622Z" fill="white"/>
</svg>
