<svg width="34" height="43" viewBox="0 0 34 43" fill="none" xmlns="http://www.w3.org/2000/svg">
<path d="M0 17C0 7.61115 7.61116 0 17 0V0C26.3888 0 34 7.61116 34 17V18.2716C34 23.1176 32.075 27.765 28.6484 31.1916L18.4142 41.4258C17.6332 42.2068 16.3668 42.2068 15.5858 41.4258L5.35164 31.1916C1.92504 27.765 0 23.1176 0 18.2716V17Z" fill="#D332B0"/>
<path d="M0 17C0 7.61115 7.61116 0 17 0V0C26.3888 0 34 7.61116 34 17V18.2716C34 23.1176 32.075 27.765 28.6484 31.1916L18.4142 41.4258C17.6332 42.2068 16.3668 42.2068 15.5858 41.4258L5.35164 31.1916C1.92504 27.765 0 23.1176 0 18.2716V17Z" fill="black" fill-opacity="0.2"/>
<circle cx="17" cy="18" r="15" fill="#D332B0"/>
<path fill-rule="evenodd" clip-rule="evenodd" d="M10.4909 11.4909C13.8124 8.16946 19.188 8.16992 22.509 11.4909C25.8306 14.8124 25.8301 20.1881 22.509 23.509C19.1875 26.8305 13.8119 26.83 10.4909 23.509C7.16944 20.1876 7.16994 14.8119 10.4909 11.4909ZM9.39794 17.5C9.39794 21.4161 12.5839 24.602 16.5 24.602C20.4161 24.602 23.6021 21.4161 23.6021 17.5C23.6021 13.5839 20.4161 10.398 16.5 10.398C12.5839 10.398 9.39794 13.584 9.39794 17.5ZM17.5755 15.7269C17.5755 14.7758 16.4163 14.2916 15.7408 14.9669C15.243 15.4656 15.4363 16.3032 16.0799 16.5698L17.4558 17.1397C19.0177 17.7866 19.4521 19.8283 18.2387 21.0285C17.945 21.3193 17.5882 21.5271 17.1988 21.6406V22.1088C17.1988 22.4943 16.8862 22.8068 16.5007 22.8068C16.1152 22.8068 15.8027 22.4943 15.8027 22.1088V21.6415C14.7508 21.3351 14.03 20.3629 14.03 19.2723C14.03 18.8868 14.3425 18.5743 14.728 18.5743C15.1135 18.5743 15.426 18.8868 15.426 19.2723C15.426 20.2482 16.6275 20.7119 17.2881 20.004C17.7485 19.5099 17.558 18.6931 16.9216 18.4295L15.5457 17.8596C14.8186 17.5584 14.2848 16.9184 14.1179 16.1476C13.8468 14.8953 14.6139 13.7043 15.8028 13.356V12.8905C15.8028 12.505 16.1153 12.1925 16.5008 12.1925C16.8863 12.1925 17.1988 12.505 17.1988 12.8905V13.3572C18.2222 13.6592 18.9715 14.6069 18.9715 15.7269C18.9715 16.1124 18.659 16.4249 18.2735 16.4249C17.888 16.4249 17.5755 16.1124 17.5755 15.7269Z" fill="white"/>
</svg>
