<svg width="34" height="43" viewBox="0 0 34 43" fill="none" xmlns="http://www.w3.org/2000/svg">
<path d="M0 17C0 7.61115 7.61116 0 17 0V0C26.3888 0 34 7.61116 34 17V18.2716C34 23.1176 32.075 27.765 28.6484 31.1916L18.4142 41.4258C17.6332 42.2068 16.3668 42.2068 15.5858 41.4258L5.35164 31.1916C1.92504 27.765 0 23.1176 0 18.2716V17Z" fill="#217DD1"/>
<path d="M0 17C0 7.61115 7.61116 0 17 0V0C26.3888 0 34 7.61116 34 17V18.2716C34 23.1176 32.075 27.765 28.6484 31.1916L18.4142 41.4258C17.6332 42.2068 16.3668 42.2068 15.5858 41.4258L5.35164 31.1916C1.92504 27.765 0 23.1176 0 18.2716V17Z" fill="black" fill-opacity="0.2"/>
<circle cx="17" cy="18" r="15" fill="#217DD1"/>
<path d="M12.0377 17.459H9.20755C8.81677 17.459 8.5 17.7642 8.5 18.1407V23.4582C8.5 23.8347 8.81677 24.1399 9.20755 24.1399H12.0377C12.4285 24.1399 12.7453 23.8347 12.7453 23.4582V18.1407C12.7453 17.7642 12.4285 17.459 12.0377 17.459ZM11.3302 22.7764H9.91509V18.8224H11.3302V22.7764Z" fill="white"/>
<path d="M22.7936 12.0039H19.9634C19.5726 12.0039 19.2559 12.3091 19.2559 12.6856V23.4569C19.2559 23.8334 19.5726 24.1386 19.9634 24.1386H22.7936C23.1844 24.1386 23.5011 23.8334 23.5011 23.4569V12.6856C23.5011 12.3091 23.1844 12.0039 22.7936 12.0039ZM22.086 22.7751H20.671V13.3674H22.086V22.7751Z" fill="white"/>
<path d="M17.4166 14.7305H14.5865C14.1957 14.7305 13.8789 15.0357 13.8789 15.4122V23.4565C13.8789 23.8331 14.1957 24.1383 14.5865 24.1383H17.4166C17.8074 24.1383 18.1242 23.8331 18.1242 23.4565V15.4122C18.1242 15.0357 17.8074 14.7305 17.4166 14.7305ZM16.7091 22.7748H15.294V16.0939H16.7091V22.7748Z" fill="white"/>
</svg>
