<svg width="34" height="43" viewBox="0 0 34 43" fill="none" xmlns="http://www.w3.org/2000/svg">
<path d="M0 17C0 7.61115 7.61116 0 17 0V0C26.3888 0 34 7.61116 34 17V18.2716C34 23.1176 32.075 27.765 28.6484 31.1916L18.4142 41.4258C17.6332 42.2068 16.3668 42.2068 15.5858 41.4258L5.35164 31.1916C1.92504 27.765 0 23.1176 0 18.2716V17Z" fill="#7921D1"/>
<path d="M0 17C0 7.61115 7.61116 0 17 0V0C26.3888 0 34 7.61116 34 17V18.2716C34 23.1176 32.075 27.765 28.6484 31.1916L18.4142 41.4258C17.6332 42.2068 16.3668 42.2068 15.5858 41.4258L5.35164 31.1916C1.92504 27.765 0 23.1176 0 18.2716V17Z" fill="black" fill-opacity="0.2"/>
<circle cx="17" cy="18" r="15" fill="#7921D1"/>
<path fill-rule="evenodd" clip-rule="evenodd" d="M13.2198 13.9651C14.4367 13.9471 18.6522 13.7614 22.1046 12.1339C22.9777 11.7222 24 12.3381 24 13.2827V21.7322C24 22.2019 23.7336 22.6329 23.3048 22.8569C21.3559 23.8751 18.9403 24.2396 16.6991 24.2396C12.0516 24.2396 9.40804 22.7013 9.29446 22.6338C9.15458 22.5507 9.05306 22.4148 9.01633 22.257C9.01518 22.2521 9.01411 22.2485 9.01311 22.2452L9.01311 22.2452L9.01245 22.243C8.99946 22.1992 8.99947 22.1516 9.0003 19.2559C9.00059 18.2786 9.00096 16.977 9.00096 15.2418C9.00096 14.5378 9.5931 13.9651 10.3209 13.9651H13.2198ZM10.3209 15.1566C10.2724 15.1566 10.2329 15.1948 10.2329 15.2418V21.5311C10.5526 21.5318 10.8521 21.5331 11.1352 21.5343C13.2671 21.5432 14.4735 21.5482 16.4137 21.2811C18.8976 20.9389 21.0853 20.2777 22.768 19.3629V13.2827C22.768 13.2197 22.7014 13.1782 22.6444 13.2049C19.8443 14.525 15.9157 15.2054 12.7786 15.1574C12.419 15.1571 11.7179 15.1566 10.3209 15.1566ZM13.2462 22.7212C16.1846 23.2973 20.0859 23.1843 22.7193 21.8086C22.7493 21.7929 22.768 21.7636 22.768 21.7321V20.7118C21.047 21.5448 18.9736 22.1319 16.5873 22.4607C15.1512 22.6585 14.4164 22.6826 13.4348 22.7149L13.2462 22.7212ZM18.6814 18.1937C18.6814 19.3565 17.7033 20.3025 16.501 20.3025C15.2987 20.3025 14.3205 19.3565 14.3206 18.1937C14.3206 17.0309 15.2987 16.0848 16.501 16.0848C17.7032 16.0848 18.6814 17.0309 18.6814 18.1937ZM17.4494 18.1937C17.4494 17.6879 17.0239 17.2764 16.501 17.2764C15.978 17.2764 15.5526 17.6879 15.5526 18.1937C15.5526 18.6995 15.978 19.111 16.501 19.111C17.0239 19.111 17.4494 18.6995 17.4494 18.1937ZM20.5674 16.0662C20.6742 16.0662 20.6769 16.0653 21.1892 15.8986L21.1895 15.8986C21.3222 15.8554 21.4892 15.8011 21.701 15.7328C22.0237 15.6288 22.1981 15.2914 22.0906 14.9792C21.983 14.6671 21.6341 14.4984 21.3114 14.6024L20.3727 14.905C20.05 15.0091 19.8756 15.3465 19.9831 15.6586C20.0692 15.9083 20.3095 16.0662 20.5674 16.0662ZM12.4314 20.9081H11.4928C11.1526 20.9081 10.8768 20.6414 10.8768 20.3124C10.8768 19.9833 11.1526 19.7166 11.4928 19.7166H12.4314C12.7716 19.7166 13.0474 19.9833 13.0474 20.3124C13.0474 20.6414 12.7716 20.9081 12.4314 20.9081Z" fill="white"/>
</svg>
