<svg width="34" height="43" viewBox="0 0 34 43" fill="none" xmlns="http://www.w3.org/2000/svg">
<path d="M0 17C0 7.61115 7.61116 0 17 0V0C26.3888 0 34 7.61116 34 17V18.2716C34 23.1176 32.075 27.765 28.6484 31.1916L18.4142 41.4258C17.6332 42.2068 16.3668 42.2068 15.5858 41.4258L5.35164 31.1916C1.92504 27.765 0 23.1176 0 18.2716V17Z" fill="#99D121"/>
<path d="M0 17C0 7.61115 7.61116 0 17 0V0C26.3888 0 34 7.61116 34 17V18.2716C34 23.1176 32.075 27.765 28.6484 31.1916L18.4142 41.4258C17.6332 42.2068 16.3668 42.2068 15.5858 41.4258L5.35164 31.1916C1.92504 27.765 0 23.1176 0 18.2716V17Z" fill="black" fill-opacity="0.2"/>
<circle cx="17" cy="18" r="15" fill="#99D121"/>
<path fill-rule="evenodd" clip-rule="evenodd" d="M22.3819 14.3697C23.4162 14.5044 24.2088 15.4015 24.2088 16.4639C24.2088 17.1636 23.8651 17.7915 23.3349 18.1772V21.1969C23.3349 22.04 22.8636 22.773 22.1701 23.1468V23.7457C22.1701 24.5098 21.5507 25.1292 20.7866 25.1292C20.0225 25.1292 19.4031 24.5098 19.4031 23.7457V23.4105H14.3061V23.7457C14.3061 24.5098 13.6866 25.1292 12.9226 25.1292C12.1585 25.1292 11.5391 24.5098 11.5391 23.7457V23.147C10.8453 22.7733 10.3738 22.0401 10.3738 21.1969V18.1772C9.84371 17.7914 9.5 17.1635 9.5 16.4639C9.5 15.4015 10.2928 14.5043 11.3272 14.3697C11.5529 11.9903 13.5568 10.1289 15.9953 10.1289H17.7138C20.1523 10.1289 22.1561 11.9903 22.3819 14.3697ZM21.5109 14.4407C20.643 14.7031 20.0146 15.518 20.0146 16.4639C20.0146 16.6392 20.0362 16.81 20.0769 16.9736H20.0725V18.8669H13.636V16.9736H13.6319C13.6726 16.81 13.6942 16.6392 13.6942 16.4639C13.6942 15.5181 13.0659 14.7033 12.1982 14.4408C12.3877 12.5107 14.0154 11.0027 15.9953 11.0027L17.7138 11.0027C19.6936 11.0027 21.3213 12.5107 21.5109 14.4407ZM20.9463 18.9636C21.4584 19.1664 21.8206 19.6661 21.8206 20.2504C21.8206 21.0145 21.2012 21.6339 20.4371 21.6339H13.3012C12.5371 21.6339 11.9177 21.0145 11.9177 20.2504C11.9177 19.6776 12.2659 19.186 12.7622 18.9759V18.218C12.4295 18.4434 12.0291 18.5756 11.5971 18.5756C11.4779 18.5756 11.3612 18.5655 11.2476 18.5462V21.1969C11.2476 21.9368 11.8474 22.5367 12.5874 22.5367H21.1214C21.8613 22.5367 22.4612 21.9368 22.4612 21.1969V18.5462C22.3476 18.5655 22.2309 18.5756 22.1117 18.5756C21.6796 18.5756 21.279 18.4433 20.9463 18.2178V18.9636ZM12.5874 23.4105H13.4323V23.7457C13.4323 24.0272 13.2041 24.2554 12.9226 24.2554C12.6411 24.2554 12.4128 24.0272 12.4128 23.7457V23.4037C12.4704 23.4082 12.5286 23.4105 12.5874 23.4105ZM20.2769 23.4105V23.7457C20.2769 24.0272 20.5051 24.2554 20.7866 24.2554C21.0681 24.2554 21.2963 24.0272 21.2963 23.7457V23.4037C21.2386 23.4082 21.1802 23.4105 21.1214 23.4105H20.2769ZM11.5971 15.2261C10.9264 15.2261 10.3738 15.7833 10.3738 16.4639C10.3738 17.1445 10.9264 17.7018 11.5971 17.7018C12.2678 17.7018 12.8204 17.1445 12.8204 16.4639C12.8204 15.7833 12.2678 15.2261 11.5971 15.2261ZM13.3012 19.7407C13.0197 19.7407 12.7915 19.9689 12.7915 20.2504C12.7915 20.5319 13.0197 20.7601 13.3012 20.7601H20.4371C20.7186 20.7601 20.9469 20.5319 20.9469 20.2504C20.9469 19.9689 20.7186 19.7407 20.4371 19.7407H13.3012ZM20.8884 16.4639C20.8884 15.7833 21.4411 15.2261 22.1117 15.2261C22.7824 15.2261 23.335 15.7833 23.335 16.4639C23.335 17.1445 22.7824 17.7018 22.1117 17.7018C21.4411 17.7018 20.8884 17.1445 20.8884 16.4639Z" fill="white"/>
</svg>
