<svg width="34" height="43" viewBox="0 0 34 43" fill="none" xmlns="http://www.w3.org/2000/svg">
<path d="M0 17C0 7.61115 7.61116 0 17 0V0C26.3888 0 34 7.61116 34 17V18.2716C34 23.1176 32.075 27.765 28.6484 31.1916L18.4142 41.4258C17.6332 42.2068 16.3668 42.2068 15.5858 41.4258L5.35164 31.1916C1.92504 27.765 0 23.1176 0 18.2716V17Z" fill="#4564D3"/>
<path d="M0 17C0 7.61115 7.61116 0 17 0V0C26.3888 0 34 7.61116 34 17V18.2716C34 23.1176 32.075 27.765 28.6484 31.1916L18.4142 41.4258C17.6332 42.2068 16.3668 42.2068 15.5858 41.4258L5.35164 31.1916C1.92504 27.765 0 23.1176 0 18.2716V17Z" fill="black" fill-opacity="0.2"/>
<circle cx="17" cy="18" r="15" fill="#4564D3"/>
<path d="M21.8033 12.2006C20.3867 10.784 18.5033 10.0039 16.5 10.0039C14.4967 10.0039 12.6133 10.784 11.1967 12.2006C9.78009 13.6171 9 15.5006 9 17.5039C9 19.5072 9.78012 21.3906 11.1967 22.8072C12.6132 24.2238 14.4967 25.0039 16.5 25.0039C18.5033 25.0039 20.3867 24.2238 21.8033 22.8072C23.2199 21.3907 24 19.5072 24 17.5039C24 15.5006 23.2199 13.6172 21.8033 12.2006V12.2006ZM21.7409 21.449C21.2923 21.1454 20.8228 20.8832 20.336 20.6642C20.551 19.8258 20.6787 18.9155 20.7105 17.9727H23.0456C22.9535 19.2716 22.4818 20.4672 21.7409 21.449ZM9.95443 17.9727H12.2895C12.3213 18.9155 12.449 19.8258 12.664 20.6642C12.1772 20.8832 11.7077 21.1454 11.2591 21.449C10.5182 20.4672 10.0465 19.2716 9.95443 17.9727V17.9727ZM11.259 13.559C11.7076 13.8625 12.1771 14.1248 12.6639 14.3438C12.4489 15.1822 12.3213 16.0924 12.2894 17.0352H9.95443C10.0465 15.7363 10.5182 14.5408 11.259 13.559V13.559ZM19.5652 12.3115C19.3935 11.9894 19.2079 11.6988 19.0105 11.441C19.8035 11.7706 20.5185 12.2513 21.1192 12.8471C20.7786 13.0709 20.4248 13.2681 20.06 13.4385C19.9168 13.0382 19.7515 12.6608 19.5652 12.3115V12.3115ZM19.1854 13.7882C18.3296 14.075 17.4265 14.2227 16.5 14.2227C15.5735 14.2227 14.6704 14.075 13.8146 13.7882C14.4141 12.0815 15.4046 10.9414 16.5 10.9414C17.5954 10.9414 18.5859 12.0815 19.1854 13.7882ZM13.2276 17.0352C13.2586 16.2048 13.3707 15.4115 13.548 14.688C14.4895 14.9998 15.4822 15.1602 16.5 15.1602C17.5178 15.1602 18.5105 14.9998 19.452 14.688C19.6293 15.4115 19.7414 16.2048 19.7724 17.0352H13.2276ZM19.7724 17.9727C19.7414 18.803 19.6293 19.5964 19.4519 20.3199C18.5104 20.008 17.5177 19.8477 16.5 19.8477C15.4823 19.8477 14.4896 20.008 13.5481 20.3199C13.3707 19.5964 13.2586 18.803 13.2276 17.9727H19.7724ZM13.4348 12.3115C13.2485 12.6608 13.0832 13.0382 12.94 13.4385C12.5752 13.2681 12.2214 13.0709 11.8808 12.8471C12.4815 12.2512 13.1964 11.7705 13.9895 11.4409C13.7921 11.6988 13.6065 11.9894 13.4348 12.3115ZM12.94 21.5695C13.0832 21.9697 13.2485 22.3471 13.4347 22.6963C13.6065 23.0184 13.7921 23.309 13.9895 23.5668C13.1965 23.2372 12.4816 22.7566 11.8809 22.1608C12.2215 21.9371 12.5753 21.7399 12.94 21.5695ZM13.8146 21.2198C14.6705 20.9328 15.5736 20.7852 16.5 20.7852C17.4264 20.7852 18.3295 20.9328 19.1854 21.2198C18.5858 22.9263 17.5954 24.0664 16.5 24.0664C15.4046 24.0664 14.4142 22.9263 13.8146 21.2198V21.2198ZM19.5652 22.6963C19.7515 22.3471 19.9168 21.9697 20.0599 21.5695C20.4247 21.7399 20.7785 21.9371 21.119 22.1608C20.5184 22.7566 19.8035 23.2373 19.0105 23.5668C19.2079 23.309 19.3935 23.0184 19.5652 22.6963ZM20.7105 17.0352C20.6787 16.0924 20.551 15.1822 20.336 14.3438C20.8229 14.1248 21.2924 13.8625 21.7409 13.559C22.4818 14.5407 22.9534 15.7363 23.0455 17.0352H20.7105Z" fill="white"/>
</svg>
