<svg width="34" height="43" viewBox="0 0 34 43" fill="none" xmlns="http://www.w3.org/2000/svg">
<path d="M0 17C0 7.61115 7.61116 0 17 0V0C26.3888 0 34 7.61116 34 17V18.2716C34 23.1176 32.075 27.765 28.6484 31.1916L18.4142 41.4258C17.6332 42.2068 16.3668 42.2068 15.5858 41.4258L5.35164 31.1916C1.92504 27.765 0 23.1176 0 18.2716V17Z" fill="#E24A4A"/>
<path d="M0 17C0 7.61115 7.61116 0 17 0V0C26.3888 0 34 7.61116 34 17V18.2716C34 23.1176 32.075 27.765 28.6484 31.1916L18.4142 41.4258C17.6332 42.2068 16.3668 42.2068 15.5858 41.4258L5.35164 31.1916C1.92504 27.765 0 23.1176 0 18.2716V17Z" fill="black" fill-opacity="0.2"/>
<circle cx="17" cy="18" r="15" fill="#E24A4A"/>
<path fill-rule="evenodd" clip-rule="evenodd" d="M23.1918 17.0581L23.8168 17.6831C24.0609 17.9271 24.0609 18.3227 23.8168 18.5668C23.6949 18.689 23.5349 18.7499 23.3749 18.7499C23.2149 18.7499 23.0549 18.689 22.9331 18.5668L22.6596 18.2934L18.1746 21.0965C18.4974 21.4809 18.6874 21.9706 18.6874 22.4999C18.6874 23.7062 17.7062 24.6874 16.4999 24.6874C15.6112 24.6874 14.8459 24.1537 14.504 23.3909L13.7474 23.8637L13.8168 23.9331C14.0609 24.1771 14.0609 24.5728 13.8168 24.8168C13.6949 24.939 13.5349 24.9999 13.3749 24.9999C13.2149 24.9999 13.0549 24.939 12.9331 24.8168L12.3081 24.1918L9.80805 21.6918L9.18305 21.0668C8.93898 20.8228 8.93898 20.4271 9.18305 20.1831C9.4268 19.939 9.82305 19.939 10.0668 20.1831L10.1362 20.2524L15.7065 11.3402L15.4331 11.0668C15.189 10.8227 15.189 10.4271 15.4331 10.183C15.6768 9.93898 16.0731 9.93898 16.3168 10.183L16.9418 10.808L18.5056 12.3718L18.5077 12.374L23.1918 17.0581ZM15.5871 22.7137C15.6843 23.1281 16.0565 23.4374 16.4999 23.4374C17.0168 23.4374 17.4374 23.0168 17.4374 22.4999C17.4374 22.2156 17.3056 21.9487 17.0918 21.7734L15.5871 22.7137ZM14.6124 21.8481L16.5074 20.6643L21.7524 17.3862L18.1596 13.7934L15.4574 17.8465C15.3371 18.0271 15.1387 18.1249 14.9368 18.1249C14.8177 18.1249 14.6971 18.0912 14.5909 18.0196C14.3037 17.8284 14.2259 17.4402 14.4174 17.1531L17.2584 12.8918L16.6137 12.2471L11.0434 21.1593L12.8402 22.9562L14.6084 21.8512C14.6092 21.8507 14.6098 21.8502 14.6104 21.8496L14.6105 21.8496L14.6124 21.8481ZM19.7311 10.2789C19.9227 9.99172 20.3108 9.91391 20.5977 10.1055C20.8849 10.2967 20.9627 10.6848 20.7711 10.972L20.1461 11.9095C20.0258 12.0902 19.8274 12.188 19.6255 12.188C19.5064 12.188 19.3858 12.1542 19.2796 12.083C18.9924 11.8914 18.9146 11.5036 19.1061 11.2164L19.7311 10.2789ZM23.8948 13.4034C23.7033 13.1159 23.3151 13.0381 23.0283 13.23L22.0908 13.855C21.8036 14.0466 21.7261 14.4344 21.9173 14.7216C22.0376 14.9025 22.2358 15 22.438 15C22.557 15 22.6776 14.9663 22.7839 14.895L23.7214 14.27C24.0086 14.0784 24.0861 13.6906 23.8948 13.4034ZM22.6212 10.4964C22.865 10.2523 23.2612 10.2523 23.505 10.4964C23.749 10.7404 23.749 11.1361 23.505 11.3801L21.9425 12.9426C21.8206 13.0648 21.6606 13.1257 21.5006 13.1257C21.3406 13.1257 21.1806 13.0648 21.0587 12.9426C20.8147 12.6986 20.8147 12.3029 21.0587 12.0589L22.6212 10.4964Z" fill="white"/>
</svg>
