<svg width="34" height="43" viewBox="0 0 34 43" fill="none" xmlns="http://www.w3.org/2000/svg">
<path d="M0 17C0 7.61115 7.61116 0 17 0V0C26.3888 0 34 7.61116 34 17V18.2716C34 23.1176 32.075 27.765 28.6484 31.1916L18.4142 41.4258C17.6332 42.2068 16.3668 42.2068 15.5858 41.4258L5.35164 31.1916C1.92504 27.765 0 23.1176 0 18.2716V17Z" fill="#21D1CC"/>
<path d="M0 17C0 7.61115 7.61116 0 17 0V0C26.3888 0 34 7.61116 34 17V18.2716C34 23.1176 32.075 27.765 28.6484 31.1916L18.4142 41.4258C17.6332 42.2068 16.3668 42.2068 15.5858 41.4258L5.35164 31.1916C1.92504 27.765 0 23.1176 0 18.2716V17Z" fill="black" fill-opacity="0.2"/>
<circle cx="17" cy="18" r="15" fill="#21D1CC"/>
<path d="M10.75 21.1259H10.7781C10.9275 22.0112 11.6976 22.6884 12.625 22.6884C13.5524 22.6884 14.3222 22.0112 14.4719 21.1259H19.2156C19.365 22.0112 20.1351 22.6884 21.0625 22.6884C21.9899 22.6884 22.7597 22.0112 22.9094 21.1259H23.25C23.9394 21.1259 24.5 20.5653 24.5 19.8759C24.5 19.8437 24.4976 19.8115 24.4925 19.7796L24.2972 18.5263C24.1944 17.7046 23.5778 17.0559 22.7669 16.9131L20.4354 16.4846L17.9225 13.885C17.5713 13.5215 17.0797 13.3131 16.5744 13.3131L13.8771 13.3134C13.8765 13.3134 13.8759 13.3131 13.8753 13.3131C13.8747 13.3131 13.8741 13.3134 13.8735 13.3134H12.1428C11.2244 13.2846 10.4241 13.9471 10.2774 14.8309L9.82654 16.9322C9.82623 16.9337 9.82623 16.9352 9.82593 16.9365C9.82562 16.9378 9.82501 16.939 9.82471 16.9406L9.51221 18.5031C9.50412 18.5437 9.5 18.585 9.5 18.6259V19.8759C9.5 20.5653 10.0606 21.1259 10.75 21.1259V21.1259ZM12.625 21.4384C12.2803 21.4384 12 21.1581 12 20.8134C12 20.4687 12.2803 20.1884 12.625 20.1884C12.9697 20.1884 13.25 20.4687 13.25 20.8134C13.25 21.1581 12.9697 21.4384 12.625 21.4384ZM21.0625 21.4384C20.7178 21.4384 20.4375 21.1581 20.4375 20.8134C20.4375 20.4687 20.7178 20.1884 21.0625 20.1884C21.4072 20.1884 21.6875 20.4687 21.6875 20.8134C21.6875 21.1581 21.4072 21.4384 21.0625 21.4384ZM23.0594 18.7002L23.2425 19.8762H22.6837C22.359 19.3168 21.7546 18.9387 21.0625 18.9387C20.3704 18.9387 19.766 19.3168 19.4413 19.8762H14.2462C13.9215 19.3168 13.3171 18.9387 12.625 18.9387C11.9329 18.9387 11.3285 19.3168 11.0038 19.8762H10.75V18.688L10.95 17.6887H20.0681L22.5453 18.144C22.8168 18.1915 23.0225 18.4077 23.0594 18.7002ZM17.0235 14.754L18.6516 16.4384H14.5V14.5634H16.5741C16.7424 14.5634 16.9063 14.6331 17.0235 14.754ZM12.1216 14.5634H13.25V16.4384H11.2107L11.505 15.065C11.5551 14.7644 11.8035 14.5503 12.1216 14.5634Z" fill="white"/>
</svg>
