<svg width="34" height="43" viewBox="0 0 34 43" fill="none" xmlns="http://www.w3.org/2000/svg">
<path d="M0 17C0 7.61115 7.61116 0 17 0V0C26.3888 0 34 7.61116 34 17V18.2716C34 23.1176 32.075 27.765 28.6484 31.1916L18.4142 41.4258C17.6332 42.2068 16.3668 42.2068 15.5858 41.4258L5.35164 31.1916C1.92504 27.765 0 23.1176 0 18.2716V17Z" fill="#854EFC"/>
<path d="M0 17C0 7.61115 7.61116 0 17 0V0C26.3888 0 34 7.61116 34 17V18.2716C34 23.1176 32.075 27.765 28.6484 31.1916L18.4142 41.4258C17.6332 42.2068 16.3668 42.2068 15.5858 41.4258L5.35164 31.1916C1.92504 27.765 0 23.1176 0 18.2716V17Z" fill="black" fill-opacity="0.2"/>
<circle cx="17" cy="18" r="15" fill="#854EFC"/>
<path fill-rule="evenodd" clip-rule="evenodd" d="M10.1256 14.2539C10.4706 14.2539 10.7506 13.9739 10.7506 13.6289V11.7539H12.6256C12.9706 11.7539 13.2506 11.4739 13.2506 11.1289C13.2506 10.7839 12.9706 10.5039 12.6256 10.5039H10.7506C10.0612 10.5039 9.50057 11.0645 9.50057 11.7539V13.6289C9.50057 13.9739 9.78057 14.2539 10.1256 14.2539ZM9.64179 17.6069C9.77515 17.4444 12.954 13.6285 16.9999 13.6285C21.0458 13.6285 24.2246 17.4444 24.358 17.6069C24.547 17.8376 24.547 18.1698 24.358 18.4001C24.2246 18.5626 21.0458 22.3785 16.9999 22.3785C12.954 22.3785 9.77515 18.5626 9.64179 18.4001C9.45274 18.1694 9.45274 17.8376 9.64179 17.6069ZM10.969 18.0035C11.8537 18.9248 14.2574 21.1285 16.9999 21.1285C19.7423 21.1285 22.1461 18.9244 23.0308 18.0035C22.1465 17.0826 19.7423 14.8785 16.9999 14.8785C14.2574 14.8785 11.8537 17.0822 10.969 18.0035ZM14.8135 18.0043C14.8135 16.7981 15.7948 15.8168 17.001 15.8168C18.2072 15.8168 19.1885 16.7981 19.1885 18.0043C19.1885 19.2102 18.2072 20.1918 17.001 20.1918C15.7948 20.1918 14.8135 19.2102 14.8135 18.0043ZM16.0635 18.0043C16.0635 18.5211 16.4842 18.9418 17.001 18.9418C17.5178 18.9418 17.9385 18.5211 17.9385 18.0043C17.9385 17.4875 17.5178 17.0668 17.001 17.0668C16.4842 17.0668 16.0635 17.4875 16.0635 18.0043ZM12.6256 25.5039H10.7506C10.0612 25.5039 9.50057 24.9433 9.50057 24.2539V22.3789C9.50057 22.0339 9.78057 21.7539 10.1256 21.7539C10.4706 21.7539 10.7506 22.0339 10.7506 22.3789V24.2539H12.6256C12.9706 24.2539 13.2506 24.5339 13.2506 24.8789C13.2506 25.2239 12.9706 25.5039 12.6256 25.5039ZM23.8756 21.7539C23.5306 21.7539 23.2506 22.0339 23.2506 22.3789V24.2539H21.3756C21.0306 24.2539 20.7506 24.5339 20.7506 24.8789C20.7506 25.2239 21.0306 25.5039 21.3756 25.5039H23.2506C23.94 25.5039 24.5006 24.9433 24.5006 24.2539V22.3789C24.5006 22.0339 24.2206 21.7539 23.8756 21.7539ZM21.3756 10.5039H23.2506C23.94 10.5039 24.5006 11.0645 24.5006 11.7539V13.6289C24.5006 13.9739 24.2206 14.2539 23.8756 14.2539C23.5306 14.2539 23.2506 13.9739 23.2506 13.6289V11.7539H21.3756C21.0306 11.7539 20.7506 11.4739 20.7506 11.1289C20.7506 10.7839 21.0306 10.5039 21.3756 10.5039Z" fill="white"/>
</svg>
