<svg xmlns="http://www.w3.org/2000/svg" width="10.624" height="10.624" viewBox="0 0 10.624 10.624"><defs><style>.a{fill:#fff;}</style></defs><path class="a" d="M1509.122,170.445a.963.963,0,0,1,0,1.344l-.672.672a.964.964,0,0,1-1.344,0l-3.023-3.024-3.024,3.024a.962.962,0,0,1-1.343,0l-.672-.672a.964.964,0,0,1,0-1.344l3.023-3.023-3.023-3.024a.962.962,0,0,1,0-1.343l.672-.672a.962.962,0,0,1,1.343,0l3.024,3.023,3.023-3.023a.964.964,0,0,1,1.344,0l.672.671a.963.963,0,0,1,0,1.344l-3.023,3.024Z" transform="translate(-1498.771 -162.11)"/></svg>