<svg xmlns="http://www.w3.org/2000/svg" xmlns:xlink="http://www.w3.org/1999/xlink" width="200.703" height="31.136" viewBox="0 0 200.703 31.136"><defs><style>.a{fill:none;}.b{clip-path:url(#a);}.c{fill:#fff;}</style><clipPath id="a"><rect class="a" width="200.703" height="31.136"/></clipPath></defs><g transform="translate(-22.721 -23.951)"><g transform="translate(22.721 23.951)"><g class="b"><g transform="translate(0 0)"><g class="b"><path class="c" d="M183.422,54.072a1.828,1.828,0,0,1,1.862-1.862,1.862,1.862,0,1,1,0,3.724,1.829,1.829,0,0,1-1.862-1.862" transform="translate(-27.536 -24.798)"/><path class="c" d="M225.784,26.071a1.862,1.862,0,1,1,1.861,1.862,1.859,1.859,0,0,1-1.861-1.862" transform="translate(-28.806 -23.96)"/><path class="c" d="M70.052,32.168v1.064h6.375v2.14H70.052V54.626H67.869V35.372H64.19v-2.14h3.679V32.168c0-5.263,2.953-8.3,8.558-7.873v2.054c-4.364-.341-6.375,1.669-6.375,5.819" transform="translate(-23.964 -23.96)"/><path class="c" d="M102.146,44.276c0,.343-.042.686-.042,1.027H82.721a8.709,8.709,0,0,0,9.071,8c3.509,0,6.163-1.628,7.4-3.895l1.883,1.113a10.544,10.544,0,0,1-9.328,4.835A10.81,10.81,0,0,1,80.5,44.192,10.792,10.792,0,0,1,91.578,33.023c6.5,0,10.569,5.391,10.569,11.253m-19.425-1.07h17.2c-.47-5.22-4.151-8.129-8.344-8.129a8.622,8.622,0,0,0-8.856,8.129" transform="translate(-24.452 -24.223)"/><path class="c" d="M115.072,35.372V49.466c0,3.766,2.011,3.851,6.375,3.466v1.926c-5.6.856-8.559-.513-8.559-5.391V35.372h-4.706v-2.14h4.706V26.455l2.184-2.2v8.977h6.375v2.14Z" transform="translate(-25.282 -23.96)"/><path class="c" d="M127.576,44.191A10.958,10.958,0,0,1,138.83,33.024a10.017,10.017,0,0,1,9.328,5.476L146.4,39.527a8.131,8.131,0,0,0-7.574-4.451,9.115,9.115,0,0,0,0,18.229,8.546,8.546,0,0,0,7.7-4.451l1.8,1.07a10.514,10.514,0,0,1-9.5,5.433,10.958,10.958,0,0,1-11.254-11.167" transform="translate(-25.863 -24.223)"/><path class="c" d="M175.172,41.319V54.625h-2.183V41.319c0-3.937-2.268-6.5-6.291-6.5-4.193,0-7.488,2.738-7.488,8.514v11.3h-2.139V26.455l2.139-2.2V37.3a8.058,8.058,0,0,1,7.659-4.536c5.092,0,8.3,3.382,8.3,8.559" transform="translate(-26.747 -23.96)"/><path class="c" d="M215.864,33.494V54.888h-2.183V50.053a10.283,10.283,0,0,1-9.2,5.305,11.167,11.167,0,0,1,0-22.334,10.284,10.284,0,0,1,9.2,5.305V33.494Zm-2.183,10.7a9.05,9.05,0,1,0-9.028,9.114,8.969,8.969,0,0,0,9.028-9.114" transform="translate(-27.835 -24.223)"/><rect class="c" width="2.14" height="21.394" transform="translate(197.771 9.271)"/><rect class="c" width="3.681" height="3.681" transform="translate(0 0.295)"/><rect class="c" width="3.681" height="3.681" transform="translate(9.203 0.295)"/><rect class="c" width="3.682" height="3.681" transform="translate(18.406 0.295)"/><rect class="c" width="3.681" height="3.681" transform="translate(0 9.498)"/><rect class="c" width="3.681" height="3.681" transform="translate(9.203 9.498)"/><rect class="c" width="3.681" height="3.681" transform="translate(0 18.701)"/><path class="c" d="M53.973,26.125a.921.921,0,1,1-.921-.921.92.92,0,0,1,.921.921" transform="translate(-23.603 -23.989)"/><path class="c" d="M53.973,35.612a.921.921,0,1,1-.921-.921.921.921,0,0,1,.921.921" transform="translate(-23.603 -24.273)"/><path class="c" d="M53.973,45.1a.921.921,0,1,1-.921-.921.921.921,0,0,1,.921.921" transform="translate(-23.603 -24.557)"/><path class="c" d="M53.973,54.587a.921.921,0,1,1-.921-.921.92.92,0,0,1,.921.921" transform="translate(-23.603 -24.842)"/><path class="c" d="M44.486,35.612a.921.921,0,1,1-.921-.921.921.921,0,0,1,.921.921" transform="translate(-23.318 -24.273)"/><path class="c" d="M44.486,45.1a.921.921,0,1,1-.921-.921.921.921,0,0,1,.921.921" transform="translate(-23.318 -24.557)"/><path class="c" d="M44.486,54.587a.921.921,0,1,1-.921-.921.92.92,0,0,1,.921.921" transform="translate(-23.318 -24.842)"/><path class="c" d="M35,45.1a.921.921,0,1,1-.921-.921A.921.921,0,0,1,35,45.1" transform="translate(-23.034 -24.557)"/><path class="c" d="M35,54.587a.921.921,0,1,1-.921-.921.92.92,0,0,1,.921.921" transform="translate(-23.034 -24.842)"/><path class="c" d="M25.511,54.587a.921.921,0,1,1-.921-.921.92.92,0,0,1,.921.921" transform="translate(-22.75 -24.842)"/></g></g></g></g></g></svg>