<svg xmlns="http://www.w3.org/2000/svg" xmlns:xlink="http://www.w3.org/1999/xlink" width="45" height="45"
style="transform: scale(1.15);" viewBox="0 0 70.295 70.295"><defs><style>.a{fill:#fff;}.b{fill:url(#c);}.c{fill:#3b83e6;}.d{filter:url(#a);}</style><filter id="a" x="0" y="0" width="70.295" height="70.295" filterUnits="userSpaceOnUse"><feOffset dy="3" input="SourceAlpha"/><feGaussianBlur stdDeviation="3" result="b"/><feFlood flood-opacity="0.4"/><feComposite operator="in" in2="b"/><feComposite in="SourceGraphic"/></filter><radialGradient id="c" cx="0.5" cy="0.5" r="0.732" gradientTransform="translate(0.224) scale(0.551 1)" gradientUnits="objectBoundingBox"><stop offset="0" stop-color="#4b5369"/><stop offset="1" stop-color="#1e2844"/></radialGradient></defs><g transform="translate(9 6)"><g transform="translate(0)"><g transform="translate(0 0)"><g class="d" transform="matrix(1, 0, 0, 1, -9, -6)"><path class="a" d="M-462.416-459.309A26.124,26.124,0,0,0-461.1-451.1c.144.439.3.875.469,1.307A26.167,26.167,0,0,0-436.27-433.16a26.149,26.149,0,0,0,26.149-26.149,26.148,26.148,0,0,0-26.149-26.146,26.087,26.087,0,0,0-20.438,9.843,26.235,26.235,0,0,0-1.887,2.691A25.994,25.994,0,0,0-462.416-459.309Z" transform="translate(471.42 491.46)"/></g></g></g><rect class="b" width="45.521" height="25.095" rx="12.548" transform="translate(3.387 12.56)"/><g transform="translate(11.823 19.093)"><path class="c" d="M-311.42-387.832a1.313,1.313,0,0,1-.713-.21l-3.6-2.314-3.6,2.314a1.32,1.32,0,0,1-1.824-.4,1.32,1.32,0,0,1,.4-1.824l4.313-2.773a1.319,1.319,0,0,1,1.428,0l4.313,2.773a1.319,1.319,0,0,1,.4,1.824A1.319,1.319,0,0,1-311.42-387.832Z" transform="translate(338.748 393.245)"/><path class="c" d="M-395.374-387.832a1.314,1.314,0,0,1-.713-.21l-3.6-2.314-3.6,2.314a1.32,1.32,0,0,1-1.824-.4,1.32,1.32,0,0,1,.4-1.824l4.313-2.773a1.32,1.32,0,0,1,1.428,0l4.313,2.773a1.32,1.32,0,0,1,.4,1.824A1.319,1.319,0,0,1-395.374-387.832Z" transform="translate(405.319 393.245)"/></g></g></svg>