<svg xmlns="http://www.w3.org/2000/svg" width="13.19" height="8.491" viewBox="0 0 13.19 8.491"><defs><style>.a{fill:#202943;}</style></defs><path class="a" d="M-137.6-691.184l-5.606-5.606a.954.954,0,0,1-.288-.7.954.954,0,0,1,.288-.7l.948-.907a.955.955,0,0,1,.7-.288.958.958,0,0,1,.7.288l3.957,3.957,3.957-3.957a.955.955,0,0,1,.7-.288.954.954,0,0,1,.7.288l.948.907a.955.955,0,0,1,.289.7.955.955,0,0,1-.289.7l-5.6,5.606a.959.959,0,0,1-.7.289A.955.955,0,0,1-137.6-691.184Z" transform="translate(143.49 699.386)"/></svg>